<?xml version="1.0" encoding="utf-8"?>
<!-- Generator: Adobe Illustrator 15.0.0, SVG Export Plug-In  -->
<!DOCTYPE svg PUBLIC "-//W3C//DTD SVG 1.1//EN" "http://www.w3.org/Graphics/SVG/1.1/DTD/svg11.dtd" [
	<!ENTITY ns_flows "http://ns.adobe.com/Flows/1.0/">
]>
<svg version="1.1"
	 xmlns="http://www.w3.org/2000/svg" xmlns:xlink="http://www.w3.org/1999/xlink" xmlns:a="http://ns.adobe.com/AdobeSVGViewerExtensions/3.0/"
	 x="0px" y="0px" width="140px" height="140px" viewBox="177 108.93 140 140" enable-background="new 177 108.93 140 140"
	 xml:space="preserve">
<defs>
</defs>
<path fill="#841414" d="M240.159,188.374c0.018-0.035,0.58-0.91,1.363-2.152c-13.341-8.87-18.616-12.636-26.687-20.356
	c-2.858-2.734-4.384-5.597-4.884-7.235c-0.359-1.18-0.053-2.028,0.338-2.646c0.208-0.329,0.655-1.179,2.29-1.455
	c1.466-0.249,4.537-0.096,8.647,1.243c7.42,2.424,15.421,6.678,29.601,15.569c0.021,0.011,0.635-0.974,0.656-0.961
	c0.771-1.23,0.51-0.812,0.705-1.122c3.701-5.845,32.184-38.49,37.439-45.206c0.02-0.022-0.1-0.07-0.125-0.089
	c-0.168-0.134-0.297-0.218-0.426-0.318c-1.344-1.043-3.123-2.272-5.275-3.659c-5.568-3.589-13.898-7.494-24.152-9.423
	c-4.041-0.76-8.252-1.167-12.836-1.169c-13.527-0.008-28.012,4.011-40.751,13.238c-10.669,7.724-19.73,19.033-24.659,32.703
	c-2.646,7.338-4.195,15.481-4.096,24.425c0.056,5.104,0.647,9.995,1.707,14.65c2.744,12.055,8.408,22.053,14.787,29.594
	c3.101,3.661,6.369,6.758,9.493,9.261c4.799,3.846,9.173,6.31,12.05,7.812c0.034,0.018,11.84-26.255,23.03-49.476
	C238.913,190.481,239.968,188.682,240.159,188.374"/>
<path fill="#BEBEBE" d="M302.141,137.564l-3.709,5.853l10.832,5.774C307.271,145.073,304.881,141.181,302.141,137.564"/>
<path fill="#BEBEBE" d="M310.803,152.597l-12.371-9.18l-4.408,6.959l19.625,10.464C312.869,158.018,311.918,155.267,310.803,152.597
	"/>
<path fill="#BEBEBE" d="M316.098,180.764c0.025-1.272,0.02-2.535-0.02-3.791l-26.441-19.626l26.025,13.877
	c-0.211-1.827-0.492-3.631-0.844-5.411l-20.795-15.437l-4.404,6.958v0.003l-4.408,6.956v0.001l-4.404,6.958l34.518,18.407
	c0.139-0.91,0.258-1.826,0.361-2.749l-30.459-22.607L316.098,180.764z"/>
<path fill="#BEBEBE" d="M313.518,198.006c0.195-0.686,0.373-1.374,0.547-2.066l-33.258-24.689l-4.408,6.961L313.518,198.006z"/>
<path fill="#BEBEBE" d="M297.273,226.583c0.404-0.427,0.805-0.858,1.195-1.297l-35.293-26.198l-4.41,6.961L297.273,226.583z"/>
<path fill="#BEBEBE" d="M254.36,213.008l-4.404,6.956l-0.004,0.002l-4.405,6.956l29.154,15.546c1.152-0.505,2.293-1.035,3.416-1.602
	l-28.148-20.893l33.52,17.874c0.779-0.487,1.553-0.989,2.313-1.505l-31.418-23.32l36.543,19.485
	c0.551-0.451,1.096-0.912,1.625-1.381l-33.785-25.077l-4.404,6.956L254.36,213.008z"/>
<path fill="#BEBEBE" d="M264.07,246.113c1.771-0.451,3.518-0.971,5.232-1.555l-23.755-17.636l-4.408,6.961L264.07,246.113z"/>
<path fill="#BEBEBE" d="M236.729,240.845l-3.747,5.918c3.907,0.811,7.936,1.293,12.061,1.418c0.541,0.018,1.078,0.025,1.615,0.027
	l-9.903-7.352l13.649,7.279c2.934-0.139,5.821-0.459,8.65-0.951l-17.915-13.301l-4.406,6.959L236.729,240.845z"/>
<path fill="#BEBEBE" d="M291.838,210.233c-3.158,0.102-10.512-1.791-28.072-11.432c-0.1-0.055-0.201-0.111-0.303-0.166l-0.287,0.453
	l39.486,21.058c0.311-0.428,0.623-0.857,0.926-1.291l-11.627-8.631C291.922,210.227,291.881,210.231,291.838,210.233"/>
<path fill="#BEBEBE" d="M271.648,185.71c0.145,0.105,0.293,0.209,0.432,0.309c15.217,10.758,20.805,16.975,22.242,20.29
	c0.013,0.038,0.023,0.068,0.039,0.101l12.791,6.821c0.264-0.459,0.516-0.924,0.77-1.389l-35.926-26.668l38.781,20.682
	c0.229-0.543,0.447-1.088,0.66-1.636l-35.039-26.008l-4.408,6.958L271.648,185.71z"/>
<rect display="none" fill="none" width="566.93" height="566.93"/>
</svg>
