<?xml version="1.0" standalone="no"?>
<!DOCTYPE svg PUBLIC "-//W3C//DTD SVG 1.1//EN" "http://www.w3.org/Graphics/SVG/1.1/DTD/svg11.dtd" >
<svg xmlns="http://www.w3.org/2000/svg">
<metadata>Generated by IcoMoon</metadata>
<defs>
<font id="elvert_iconfont" horiz-adv-x="1024">
<font-face units-per-em="1024" ascent="960" descent="-64" />
<missing-glyph horiz-adv-x="1024" />
<glyph unicode="&#x20;" horiz-adv-x="512" d="" />
<glyph unicode="&#xe001;" glyph-name="connector" d="M390.096 176.299l-45.786-45.469c-39.69-39.337-104.243-39.372-143.911 0-19.071 18.921-29.543 44.057-29.543 70.772s10.486 51.864 29.535 70.786l168.54 167.214c34.929 34.633 100.633 85.638 148.53 38.142 21.977-21.83 57.475-21.686 79.291 0.283 21.83 21.963 21.694 57.475-0.283 79.278-81.407 80.786-201.725 65.852-306.508-38.121l-168.545-167.227c-40.439-40.143-62.701-93.533-62.701-150.36s22.262-110.205 62.707-150.346c41.616-41.285 96.258-61.917 150.928-61.917 54.676 0 109.347 20.632 150.981 61.937l45.821 45.482c21.963 21.808 22.092 57.299 0.256 79.278-21.796 21.958-57.326 22.078-79.305 0.256zM900.871 825.867c-87.437 86.754-209.689 91.466-290.629 11.155l-57.077-56.658c-21.977-21.821-22.113-57.299-0.283-79.278s57.326-22.099 79.305-0.283l57.056 56.624c41.934 41.637 96.833 24.378 132.649-11.155 19.090-18.921 29.575-44.071 29.575-70.786 0-26.731-10.499-51.872-29.556-70.799l-179.815-178.374c-82.223-81.575-120.792-43.286-137.252-26.952-21.977 21.821-57.461 21.686-79.291-0.283s-21.694-57.475 0.283-79.278c37.742-37.465 80.831-56.035 125.998-56.035 55.298 0 113.714 27.846 169.249 82.989l179.815 178.374c40.426 40.143 62.707 93.542 62.707 150.373 0 56.806-22.281 110.205-62.734 150.373z" />
<glyph unicode="&#xe002;" glyph-name="docx" d="M315.66 454.902h-84.148v-196.34h84.148c30.855 0 56.096 25.243 56.096 56.096v84.148c0 30.855-25.241 56.096-56.096 56.096zM343.708 314.662c0-16.829-11.22-28.050-28.050-28.050h-56.096v140.244h56.096c16.829 0 28.050-11.22 28.050-28.050v-84.148zM483.95 454.902h-28.050c-30.855 0-56.096-25.243-56.096-56.096v-84.148c0-30.853 25.241-56.096 56.096-56.096h28.050c30.853 0 56.096 25.243 56.096 56.096v84.148c0 30.855-25.243 56.096-56.096 56.096zM512 314.662c0-16.829-11.22-28.050-28.050-28.050h-28.050c-16.829 0-28.050 11.22-28.050 28.050v84.148c0 16.829 11.22 28.050 28.050 28.050h28.050c16.829 0 28.050-11.22 28.050-28.050v-84.148zM624.194 426.858h28.050c16.829 0 28.050-11.22 28.050-28.050h28.050c0 30.853-25.243 56.096-56.096 56.096h-28.050c-30.853 0-56.096-25.243-56.096-56.096v-84.148c0-30.853 25.243-56.096 56.096-56.096h28.050c30.853 0 56.096 25.243 56.096 56.096h-28.050c0-16.829-11.22-28.050-28.050-28.050h-28.050c-16.829 0-28.050 11.22-28.050 28.050v84.148c0 16.828 11.22 28.050 28.050 28.050zM876.634 539.052h-280.486v84.148l-168.292 196.34h-308.536c-30.855 0-56.096-25.243-56.096-56.096v-645.12c0-30.853 25.241-56.096 56.096-56.096h420.73c30.853 0 56.096 25.243 56.096 56.096v56.096h280.486c47.685 0 84.148 36.463 84.148 84.148v196.34c0 47.685-36.463 84.149-84.148 84.149zM427.852 777.465l131.831-154.269h-103.781c-14.023 0-28.050 14.023-28.050 28.050v126.219zM568.096 118.32c0-14.023-11.22-28.050-28.050-28.050h-420.73c-14.023 0-28.050 11.22-28.050 28.050v645.122c0 14.023 11.22 28.050 28.050 28.050h280.486v-140.244c0-30.855 25.241-56.096 56.096-56.096h112.194v-56.096h-336.583c-47.685 0-84.148-36.463-84.148-84.148v-196.34c0-47.685 36.463-84.148 84.148-84.148h336.583v-56.098zM932.73 258.565c0-30.853-25.243-56.096-56.096-56.096h-645.12c-30.855 0-56.096 25.243-56.096 56.096v196.34c0 30.855 25.241 56.096 56.096 56.096h645.12c30.853 0 56.096-25.241 56.096-56.096v-196.34zM848.583 454.902l-42.075-72.924-42.073 72.924h-28.050l56.096-98.169-56.096-98.169h28.050l42.073 72.924 42.075-72.924h28.050l-56.096 98.169 56.096 98.169z" />
<glyph unicode="&#xe003;" glyph-name="doorkey" horiz-adv-x="1027" d="M681.51 893.856c-154.685 0-280.079-125.425-280.079-280.079 0-35.991 7.532-70.054 19.967-101.639l-340.268-340.237c-9.827-9.858-15.903-19.219-15.903-34.246v-84.028c0-29.961 26.012-56.011 56.011-56.011h84.028c15.018 0 24.503 6.023 34.33 15.804l40.192 40.223h65.617c30.914 0 56.011 25.090 56.011 56.011v56.011h56.011c30.914 0 56.011 25.090 56.011 56.011v65.648l66.356 66.402c31.623-12.472 65.648-20.020 101.692-20.020 154.632 0 280.079 125.425 280.079 280.079s-125.44 280.079-280.079 280.079zM681.51 389.717c-41.443 0-79.881 12.038-113.173 31.707l-9.644-9.606-84.867-84.882c-10.498-10.498-16.406-24.724-16.406-39.605v-65.648h-56.011c-30.914 0-56.011-25.074-56.011-56.011v-56.011h-65.602c-14.851 0-29.092-5.908-39.605-16.406l-39.72-39.72-79.142 0.115-0.084 79.828 326.713 326.141c0 0 0-0.031 0.031-0.053l41.145 41.145c-19.669 33.293-31.707 71.693-31.707 113.158 0 123.733 100.351 224.068 224.068 224.068s224.068-100.32 224.068-224.068-100.298-224.121-224.037-224.121zM844.397 663.095c-31.402 43.753-69.635 81.924-113.577 113.54-7.151 5.191-16.391 6.48-24.708 3.545-38.903-13.692-65.533-40.307-79.142-79.21-1.037-2.912-1.54-5.939-1.54-8.935 0-5.573 1.739-11.1 5.108-15.766 31.501-43.806 69.688-82.008 113.509-113.509 7.197-5.154 16.353-6.48 24.708-3.583 38.95 13.608 65.602 40.276 79.256 79.21 1.006 2.912 1.54 5.939 1.54 8.935-0.053 5.573-1.792 11.1-5.154 15.766zM760.384 585.493c-41.427 29.747-77.465 65.816-106.998 106.228 10.848 30.899 31.12 51.17 61.112 62.202 41.427-29.831 77.418-65.785 106.877-106.747-10.948-30.663-31.166-50.835-60.997-61.699z" />
<glyph unicode="&#xe004;" glyph-name="facebook" horiz-adv-x="1025" d="M393.318 722.468c0-22.58 0-123.361 0-123.361h-90.375v-150.844h90.375v-448.261h185.663v448.249h124.576c0 0 11.669 72.329 17.321 151.417-16.219 0-141.199 0-141.199 0s0 87.757 0 103.137c0 15.41 20.242 36.146 40.252 36.146 19.969 0 62.111 0 101.15 0 0 20.54 0 91.499 0 157.039-52.115 0-111.391 0-137.529 0-194.821 0.012-190.234-150.987-190.234-173.525z" />
<glyph unicode="&#xe005;" glyph-name="google" horiz-adv-x="1025" d="M643.975 895.462h-213.747c-95.246 0-161.176-20.883-220.52-69.903-46.669-40.262-74.522-98.78-74.522-156.542 0-88.989 67.851-183.56 193.578-183.56 12.088 0 25.474 1.239 37.287 2.34l-1.743-4.233c-5.057-12.11-9.841-23.527-9.841-41.358 0-34.713 16.746-56.122 32.933-76.808l2.037-2.623-3.619-0.249c-51.919-3.557-148.552-10.185-219.141-53.567-83.374-49.567-89.852-121.672-89.852-142.584 0-83.196 77.532-167.168 250.751-167.168 201.417 0 306.808 111.123 306.808 220.885 0.017 81.189-47.587 121.268-98.117 163.816l-42.624 33.154c-13.172 10.914-29.575 24.491-29.575 49.651 0 24.733 16.402 41.059 30.879 55.464l1.51 1.527c46.032 36.257 98.2 77.366 98.2 166.277 0 89.397-55.863 135.597-82.72 157.802h70.931c0.869 0 1.743 0.244 2.461 0.714l61.102 38.414c1.743 1.1 2.555 3.22 1.981 5.201-0.548 1.981-2.379 3.341-4.431 3.341zM384.771 48.193c-122.773 0-205.267 57.339-205.267 142.695 0 55.729 33.74 96.229 100.191 120.306 53.213 17.913 121.905 18.797 122.591 18.797 11.634 0 17.487 0 26.781-1.168 85.908-61.141 127.211-93.237 127.211-154.378-0.011-77.88-65.726-126.253-171.499-126.253zM383.614 518.213c-103.040 0-145.804 135.447-145.804 207.973 0 36.877 8.387 65.184 25.641 86.555 18.725 23.429 50.79 38.563 81.686 38.563 94.609 0 146.925-127.16 146.925-215.053 0-13.864 0-56.046-29.138-85.343-19.594-19.556-51.465-32.695-79.307-32.695zM943.554 476.866h-112.633v112.234c0 2.555-2.079 4.63-4.63 4.63h-48.449c-2.555 0-4.63-2.075-4.63-4.63v-112.234h-112.063c-2.555 0-4.63-2.075-4.63-4.63v-49.097c0-2.544 2.075-4.63 4.63-4.63h112.063v-112.954c0-2.544 2.075-4.63 4.63-4.63h48.449c2.544 0 4.63 2.079 4.63 4.63v112.971h112.633c2.555 0 4.63 2.064 4.63 4.63v49.076c0 2.561-2.064 4.63-4.63 4.63z" />
<glyph unicode="&#xe006;" glyph-name="info" horiz-adv-x="1025" d="M621.255 896c59.997 0 89.985-40.923 89.985-87.709 0-58.439-52.093-112.492-119.984-112.492-56.843 0-90 33.619-88.427 89.123 0 46.781 39.466 111.078 118.425 111.078zM436.507 0.005c-47.369 0-82.107 29.227-48.951 157.828l54.384 228.095c9.472 36.532 11.021 51.135 0 51.135-14.229 0-75.719-25.233-112.091-50.085l-23.653 39.466c115.25 97.895 247.85 155.309 304.677 155.309 47.355 0 55.264-56.993 31.584-144.685l-62.263-239.771c-11.058-42.373-6.297-56.976 4.724-56.976 14.212 0 60.81 17.586 106.586 54.129l26.856-36.547c-112.106-113.996-234.484-157.901-281.855-157.901z" />
<glyph unicode="&#xe007;" glyph-name="instagram" horiz-adv-x="1026" d="M179.887 895.278h666.239c63.27 0 115.039-46.846 115.039-115.039v-666.261c0-68.192-51.768-115.039-115.039-115.039h-666.239c-63.291 0-115.049 46.846-115.049 115.039v666.261c0 68.192 51.758 115.039 115.049 115.039v0zM717.775 795.689c-22.198 0-40.34-18.151-40.34-40.355v-96.585c0-22.198 18.139-40.355 40.34-40.355h101.311c22.198 0 40.355 18.156 40.355 40.355v96.585c0 22.205-18.156 40.355-40.355 40.355h-101.311zM859.865 516.22h-78.891c7.464-24.371 11.506-50.184 11.506-76.895 0-149.091-124.758-269.942-278.622-269.942-153.859 0-278.594 120.853-278.594 269.942 0 26.726 4.032 52.534 11.506 76.895h-82.323v-378.624c0-19.593 16.034-35.637 35.637-35.637h624.172c19.603 0 35.637 16.034 35.637 35.637v378.624h-0.017zM513.847 623.482c-99.412 0-180.014-78.087-180.014-174.425s80.602-174.425 180.014-174.425c99.422 0 180.030 78.087 180.030 174.425s-80.602 174.425-180.030 174.425z" />
<glyph unicode="&#xe008;" glyph-name="location" horiz-adv-x="1027" d="M513.4 896.092c-167.719 0-304.171-136.45-304.171-304.169 0-67.398 39.681-169.897 124.876-322.57 58.135-104.173 116.005-192.165 118.446-195.871l41.825-63.398c4.217-6.393 11.361-10.241 19.023-10.241s14.805 3.846 19.023 10.241l41.825 63.395c2.417 3.664 59.865 90.895 118.447 195.876 85.197 152.665 124.876 255.165 124.876 322.57 0 167.719-136.451 304.169-304.171 304.169zM652.895 291.566c-57.768-103.511-114.306-189.373-116.69-192.982l-22.804-34.566-22.798 34.558c-2.396 3.637-59.367 90.268-116.697 192.991-79.026 141.618-119.097 242.674-119.097 300.358 0 142.586 116.002 258.588 258.59 258.588s258.59-116.002 258.59-258.588c0-57.691-40.071-158.743-119.097-300.358zM513.4 762.47c-92.993 0-168.645-75.655-168.645-168.645s75.654-168.645 168.645-168.645 168.645 75.655 168.645 168.645-75.654 168.645-168.645 168.645zM513.4 470.757c-67.86 0-123.066 55.207-123.066 123.066s55.207 123.066 123.066 123.066c67.861 0 123.066-55.207 123.066-123.066s-55.205-123.066-123.066-123.066z" />
<glyph unicode="&#xe009;" glyph-name="magnifying-glass" horiz-adv-x="1026" d="M696.437 311.102c57.281 62.010 93.016 145.042 93.016 236.48 0 191.814-156.078 348.415-348.415 348.415s-348.415-156.603-348.415-348.415 156.078-348.415 348.415-348.415c78.303 0 150.297 25.75 208.629 69.368l259.077-259.077c6.307-6.307 14.189-9.458 22.071-9.458s16.29 3.153 22.071 9.458c12.088 12.088 12.088 32.055 0 44.668l-256.449 256.976zM155.683 547.585c0 157.129 127.701 285.354 285.354 285.354 157.129 0 285.354-127.701 285.354-285.354s-127.701-285.354-285.354-285.354-285.354 128.225-285.354 285.354z" />
<glyph unicode="&#xe00a;" glyph-name="mail" horiz-adv-x="1022" d="M59.139 700.658v-570.777h903.931v570.777h-903.931zM924.87 662.45v-28.251l-413.762-291.085-413.781 291.047v28.288h827.543zM97.33 168.060v419.405l402.775-283.318c3.284-2.341 7.136-3.492 10.997-3.492s7.665 1.131 10.949 3.492l402.823 283.326v-419.416h-827.524z" />
<glyph unicode="&#xe00b;" glyph-name="map" horiz-adv-x="1021" d="M510.7 894.091c-197.062 0-356.851-159.757-356.851-356.819 0-296.595 356.851-539.398 356.851-539.398s356.851 260.664 356.851 539.429c0 197.062-159.789 356.803-356.851 356.803zM510.7 367.194c-93.994 0-170.16 76.166-170.16 170.094s76.166 170.094 170.16 170.094c93.947 0.033 170.094-76.181 170.094-170.127-0.033-93.947-76.166-170.079-170.094-170.079z" />
<glyph unicode="&#xe00c;" glyph-name="musicplayer" horiz-adv-x="1025" d="M720.101 478.444l-263.6 172.586c-6.485 4.243-13.612 6.489-20.615 6.489-18.64 0-32.7-15.179-32.7-35.305v-348.425c0-20.128 14.057-35.305 32.697-35.305 7.006 0 14.135 2.246 20.615 6.492l263.604 172.612c10.976 7.188 17.275 18.28 17.271 30.43 0.005 12.15-6.293 23.237-17.271 30.429zM453.828 303.753v288.499l220.305-144.24-220.305-144.261zM512.577 895.999c-247.029 0-448.001-200.97-448.001-447.999s200.974-448.001 448.001-448.001 448.001 200.974 448.001 448.001c0 247.029-200.97 447.999-448.001 447.999zM512.577 50.639c-219.107 0-397.361 178.256-397.361 397.361s178.256 397.359 397.361 397.359 397.361-178.253 397.361-397.359c0-219.107-178.253-397.361-397.361-397.361z" />
<glyph unicode="&#xe00d;" glyph-name="padlock" horiz-adv-x="1027" d="M737.466 503.774v168.041c0 123.532-100.516 224.066-224.066 224.066s-224.066-100.516-224.066-224.066v-168.041c-46.317 0-84.029-37.695-84.029-84.029v-336.083c0-46.317 37.695-84.029 84.029-84.029h448.117c46.317 0 84.029 37.695 84.029 84.029v336.083c0 46.317-37.695 84.029-84.029 84.029zM345.359 671.815c0 92.684 75.375 168.041 168.041 168.041s168.041-75.375 168.041-168.041v-168.041h-336.083v168.041zM765.471 83.661c0-15.466-12.571-28.005-28.005-28.005h-448.117c-15.434 0-28.005 12.554-28.005 28.005v336.083c0 15.466 12.571 28.005 28.005 28.005h448.117c15.434 0 28.005-12.554 28.005-28.005v-336.083zM541.405 271.957v63.776c0 15.483-12.554 28.005-28.005 28.005s-28.005-12.521-28.005-28.005v-63.776c-16.672-9.725-28.005-27.552-28.005-48.258 0-30.917 25.092-56.007 56.007-56.007s56.007 25.092 56.007 56.007c0 20.672-11.316 38.534-28.005 48.258z" />
<glyph unicode="&#xe00e;" glyph-name="pdf" horiz-adv-x="1023" d="M452.782 462.679h-88.076v-205.512h29.358v88.076h58.718c32.293 0 58.718 26.423 58.718 58.718s-26.423 58.718-58.718 58.718zM452.782 374.601h-58.718v58.718h58.718c17.616 0 29.358-11.744 29.358-29.358s-11.744-29.358-29.358-29.358zM628.936 462.679h-88.076v-205.512h88.076c32.293 0 58.718 26.423 58.718 58.718v88.076c0 32.293-26.423 58.718-58.718 58.718zM658.294 315.883c0-17.616-11.744-29.358-29.358-29.358h-58.718v146.794h58.718c17.616 0 29.358-11.744 29.358-29.358v-88.076zM863.806 550.753h-234.872v88.076l-176.154 205.512h-322.948c-32.295 0-58.718-26.423-58.718-58.718v-675.254c0-32.293 26.423-58.718 58.718-58.718h440.384c32.293 0 58.718 26.423 58.718 58.718v58.718h234.872c49.911 0 88.076 38.165 88.076 88.076v205.514c0 49.909-38.165 88.075-88.076 88.075zM452.782 800.305l137.987-161.475h-108.629c-14.679 0-29.358 14.679-29.358 29.358v132.115zM599.576 110.371c0-14.679-11.744-29.358-29.358-29.358h-440.384c-14.679 0-29.358 11.744-29.358 29.358v675.252c0 14.679 11.744 29.358 29.358 29.358h293.589v-146.794c0-32.295 26.423-58.718 58.718-58.718h117.436v-58.718h-234.872c-49.911 0-88.076-38.165-88.076-88.076v-205.512c0-49.911 38.165-88.076 88.076-88.076h234.872v-58.716zM922.524 257.165c0-32.293-26.423-58.718-58.718-58.718h-499.102c-32.295 0-58.718 26.423-58.718 58.718v205.514c0 32.295 26.423 58.718 58.718 58.718h499.102c32.293 0 58.718-26.423 58.718-58.718v-205.514zM717.012 257.165h29.358v88.078h88.076v29.358h-88.076v58.718h117.436v29.36h-146.794z" />
<glyph unicode="&#xe00f;" glyph-name="ppt" horiz-adv-x="1023" d="M452.782 462.68h-88.076v-205.512h29.358v88.076h58.718c32.293 0 58.718 26.423 58.718 58.718s-26.423 58.718-58.718 58.718zM452.782 374.601h-58.718v58.718h58.718c17.616 0 29.358-11.744 29.358-29.358s-11.744-29.358-29.358-29.358zM863.806 550.754h-234.872v88.076l-176.154 205.512h-322.948c-32.295 0-58.718-26.423-58.718-58.718v-675.254c0-32.293 26.423-58.718 58.718-58.718h440.384c32.293 0 58.718 26.423 58.718 58.718v58.718h234.872c49.911 0 88.076 38.165 88.076 88.076v205.514c0 49.909-38.165 88.075-88.076 88.075zM452.782 800.305l137.987-161.475h-108.629c-14.679 0-29.358 14.679-29.358 29.358v132.115zM599.576 110.372c0-14.679-11.744-29.358-29.358-29.358h-440.384c-14.679 0-29.358 11.744-29.358 29.358v675.252c0 14.679 11.744 29.358 29.358 29.358h293.589v-146.794c0-32.295 26.423-58.718 58.718-58.718h117.436v-58.718h-234.872c-49.911 0-88.076-38.165-88.076-88.076v-205.512c0-49.911 38.165-88.076 88.076-88.076h234.872v-58.716zM922.524 257.166c0-32.293-26.423-58.718-58.718-58.718h-499.102c-32.295 0-58.718 26.423-58.718 58.718v205.514c0 32.295 26.423 58.718 58.718 58.718h499.102c32.293 0 58.718-26.423 58.718-58.718v-205.514zM717.012 433.318h58.718v-176.154h29.358v176.154h58.718v29.36h-146.794zM628.936 462.68h-88.076v-205.512h29.358v88.076h58.718c32.293 0 58.718 26.423 58.718 58.718s-26.423 58.718-58.718 58.718zM628.936 374.601h-58.718v58.718h58.718c17.616 0 29.358-11.744 29.358-29.358s-11.744-29.358-29.358-29.358z" />
<glyph unicode="&#xe010;" glyph-name="registration" horiz-adv-x="1025" d="M596.178 364.028c77.251 33.128 131.527 109.882 131.527 199.114 0 1.732-0.2 3.424-0.257 5.156h-26.848c0.056-1.716 0.264-3.407 0.264-5.156 0-104.139-84.372-188.897-188.336-189.651-0.474 0.016-0.938 0.040-1.395 0.040s-0.921-0.024-1.395-0.040c-103.979 0.754-188.352 85.511-188.352 189.651 0 92.063 65.919 168.96 153.034 186.107v27.122c-101.967-17.515-179.868-106.338-179.868-213.229 0-89.233 54.276-165.994 131.527-199.114-167.341-35.125-361.338-165.713-361.338-348.684 0-7.418 6.014-13.417 13.417-13.417s13.417 5.999 13.417 13.417c0 191.687 249.244 330.552 418.173 331.306 0.457 0 0.914-0.064 1.379-0.064s0.921 0.064 1.395 0.064c167.028-0.721 418.147-132.665 418.147-331.29 0-7.418 5.999-13.417 13.417-13.417s13.417 5.999 13.417 13.417c0 182.955-193.997 313.544-361.338 348.668zM775.067 754.317h-94.341v94.341c0 7.411-5.999 13.417-13.417 13.417s-13.417-6.014-13.417-13.417v-94.341h-94.341c-7.418 0-13.417-6.014-13.417-13.417s5.999-13.417 13.417-13.417h94.341v-94.341c0-7.411 5.999-13.417 13.417-13.417s13.417 6.014 13.417 13.417v94.341h94.341c7.418 0 13.417 6.014 13.417 13.417s-5.999 13.417-13.417 13.417z" />
<glyph unicode="&#xe011;" glyph-name="marketplace-icon" horiz-adv-x="1022" d="M947.621 539.511c0-19.083-15.613-33.827-33.827-33.827h-322.665c-19.083 0-33.827 15.613-33.827 33.827v322.665c0 19.083 15.613 33.827 33.827 33.827h322.665c19.083 0 33.827-15.613 33.827-33.827v-322.665zM463.626 539.511c0-19.083-15.613-33.827-33.827-33.827h-322.665c-19.083 0-33.827 15.613-33.827 33.827v322.665c0 19.083 15.613 33.827 33.827 33.827h322.665c19.083 0 33.827-15.613 33.827-33.827v-322.665zM463.626 33.829c0-19.083-15.613-33.827-33.827-33.827h-322.665c-19.083 0-33.827 15.613-33.827 33.827v322.665c0 19.083 15.613 33.827 33.827 33.827h322.665c19.083 0 33.827-15.613 33.827-33.827v-322.665zM947.621 33.829c0-19.083-15.613-33.827-33.827-33.827h-322.665c-19.083 0-33.827 15.613-33.827 33.827v322.665c0 19.083 15.613 33.827 33.827 33.827h322.665c19.083 0 33.827-15.613 33.827-33.827v-322.665z" />
<glyph unicode="&#xe012;" glyph-name="rss" horiz-adv-x="1025" d="M267.108 203.402c21.706-21.676 34.903-51.080 34.986-83.824-0.077-32.683-13.28-62.094-34.903-83.686l-0.077-0.042c-21.665-21.563-51.253-34.741-84.157-34.741-32.862 0-62.379 13.222-84.037 34.783-21.605 21.586-34.903 50.962-34.903 83.686 0 32.742 13.298 62.224 34.903 83.853v-0.030c21.665 21.586 51.181 34.867 84.037 34.867 32.904 0 62.462-13.31 84.157-34.867zM267.108 203.432v-0.030c0.042 0 0.042 0 0.042 0l-0.042 0.030zM98.919 35.851c0 0 0 0 0 0.042-0.042 0-0.042 0-0.042 0l0.042-0.042zM64.118 591.324v-171.086c111.693-0.072 217.329-43.947 296.387-123.117 79.039-78.926 122.731-184.723 122.909-296.803h0.060v-0.31h171.793c-0.136 162.969-66.383 310.595-173.483 417.771-107.123 107.159-254.682 173.448-417.665 173.543zM64.428 895.997v-171.008c399.255-0.291 723.814-325.356 724.082-724.992h171.502c-0.119 246.995-100.513 470.773-262.757 633.13-162.297 162.304-385.927 262.757-632.834 262.864z" />
<glyph unicode="&#xe013;" glyph-name="share" horiz-adv-x="1026" d="M761.693 629.010c2.514 0 5.027-0.503 7.541-0.503v0c69.388 0 127.21 54.805 131.232 124.193 4.024 72.404-51.288 134.752-123.691 139.278-72.906 4.024-134.752-51.789-138.775-123.691-1.006-17.599 1.508-34.193 6.535-49.777l-312.747-186.541c-23.129 19.609-52.795 31.677-85.477 31.677-72.404 0-131.232-58.829-131.232-131.232s58.829-131.232 131.232-131.232c30.67 0 59.33 10.56 81.455 28.66l305.204-165.926c-8.044-31.174-4.024-63.857 11.061-92.517 22.626-43.743 67.376-71.398 116.652-71.398v0c21.119 0 41.734 5.531 60.337 15.587 64.36 33.186 89.499 113.633 56.315 177.492-22.626 43.743-67.376 70.895-116.652 70.895-21.119 0-41.734-5.027-60.337-15.085-15.085-8.044-28.66-18.603-39.22-31.174l-295.149 160.395c7.541 16.593 12.068 35.196 12.068 54.805 0 18.101-3.52 35.196-10.057 50.785l309.227 183.526c21.623-22.125 51.289-36.706 84.475-38.214zM698.337 764.266c2.010 37.71 33.186 66.872 70.895 66.872 1.508 0 3.017 0 4.024 0 39.22-2.514 68.886-35.7 66.872-74.92-2.010-38.717-35.7-68.886-74.92-66.872-39.218 2.514-69.387 36.202-66.872 74.92zM175.419 432.411c0 39.22 31.677 70.895 70.895 70.895s70.895-31.677 70.895-70.895-31.677-70.895-70.895-70.895-70.895 31.677-70.895 70.895zM728.003 195.087c10.057 5.531 21.119 8.044 32.683 8.044 26.649 0 50.785-14.582 63.354-38.213 18.101-34.694 4.526-77.936-30.168-95.533-10.057-5.531-21.119-8.044-32.683-8.044v0c-26.649 0-50.785 14.582-63.354 38.213-8.548 16.593-10.56 36.202-4.526 54.303 5.027 17.596 17.599 32.682 34.694 41.23z" />
<glyph unicode="&#xe014;" glyph-name="star" d="M952.406 558.060c-2.401 11.062-12.983 17.806-24.527 17.806h-293.932l-96.201 277.563c-4.189 12.080-12.51 17.806-25.502 17.806-12.983 0-21.786-5.726-25.974-17.806l-96.212-277.563h-293.921c-12.992 0-21.172-5.778-25.502-17.806-3.366-12.983-0.513-22.65 8.661-29.824l235.723-184.245-85.631-282.376c-3.756-12.397 0-22.608 9.625-29.824 10.58-6.261 21.666-7.029 31.743 0l241.49 168.369 241.008-168.369c5.141-3.591 10.59-4.812 15.876-4.812 14.912 0 26.456 11.546 26.456 26.456 0 2.401-0.328 5.818-1.919 11.062l-84.666 279.492 235.713 184.245c9.481 7.411 12.027 17.323 7.696 29.824zM661.85 374.779c-8.107-6.332-12.080-18.616-9.133-28.377l68.308-226.579-194.355 134.699c-9.761 6.764-19.909 6.539-29.341 0l-194.344-134.699 68.308 226.579c2.945 9.761-1.025 22.044-9.144 28.377l-189.047 147.69h236.677c12.027 0 20.332 5.726 24.537 17.796l77.923 223.694 77.452-223.694c4.177-12.080 12.51-17.796 25.009-17.796h236.205l-189.057-147.69z" />
<glyph unicode="&#xe015;" glyph-name="tool" horiz-adv-x="1026" d="M561.872 9.249h-94.096c-14.159 0-19.097-0.032-67.339 119.495l-37.258 15.145c-101.52-46.055-113.536-46.055-117.556-46.055h-7.769l-6.624 5.69-66.703 65.262c-10.145 10.126-13.659 13.643 38.537 131.602l-15.191 35.942c-122.553 43.916-122.553 49.014-122.553 63.486v92.252c0 14.453 0 19.017 122.149 66.249l15.191 36.022c-55.214 116.166-51.413 119.774-40.523 130.025l71.735 70.327 8.907 0.28c10.832 0 51.010-14.659 119.523-43.585l37.148 15.082c44.724 119.99 50.214 119.975 64.322 119.975h94.096c14.095 0 19.052-0.019 67.297-119.573l37.318-15.036c101.362 45.997 113.536 45.997 117.584 45.997h7.721l6.624-5.593 66.703-65.153c10.145-10.236 13.611-13.739-38.585-131.747l15.236-36.149c122.713-43.728 122.713-48.808 122.713-63.309v-92.143c0-14.114 0-19.083-122.305-66.339l-15.095-36.052c54.934-115.663 51.304-119.289 41.022-129.65l-72.28-70.763-8.956-0.248c-10.781 0-50.868 14.678-119.289 43.634l-37.367-15.095c-44.848-119.964-49.943-119.964-64.335-119.964zM477.555 47.338h74.218c8.517 17.363 26.925 63.389 41.664 103.035l2.969 7.889 67.577 27.289 7.266-3.079c40.275-17.176 87.879-36.209 106.427-42.058l52.152 51.010c-6.624 18.363-26.706 63.292-44.821 101.192l-3.653 7.705 27.963 66.747 7.611 2.94c40.682 15.658 87.816 34.991 105.428 43.808v71.659c-17.818 8.375-64.763 26.239-105.221 40.586l-7.921 2.83-28.144 66.813 3.359 7.531c17.315 39.069 36.571 85.157 42.741 103.726l-52.293 51.119c-16.877-5.89-64.14-26.142-104.006-44.337l-7.422-3.406-67.577 27.238-3.017 7.517c-15.974 39.868-35.82 86.097-44.772 103.209h-74.167c-8.563-17.315-26.912-63.357-41.616-102.99l-2.921-7.847-67.39-27.38-7.266 3.108c-40.366 17.144-88.064 36.149-106.678 41.993l-52.061-51.039c6.532-18.331 26.677-63.231 44.73-101.132l3.704-7.721-28.101-66.716-7.563-2.921c-40.614-15.641-87.674-34.962-105.289-43.741v-71.749c17.818-8.407 64.717-26.319 105.148-40.723l7.86-2.86 28.147-66.591-3.359-7.517c-17.315-39.037-36.554-85.066-42.741-103.598l52.4-51.275c16.831 5.941 64.031 26.193 103.942 44.401l7.472 3.424 67.436-27.412 3.017-7.517c16.022-39.881 35.807-86.030 44.765-103.158zM512.893 294.325c-86.285 0-156.547 68.873-156.547 153.533 0 84.593 70.25 153.423 156.547 153.423 86.235 0 156.328-68.844 156.328-153.423 0-84.659-70.092-153.533-156.328-153.533zM512.893 563.16c-65.308 0-118.399-51.729-118.399-115.306 0-63.621 53.074-115.398 118.399-115.398 65.201 0 118.245 51.777 118.245 115.398-0.019 63.576-53.043 115.306-118.245 115.306z" />
<glyph unicode="&#xe016;" glyph-name="vk" horiz-adv-x="1023" d="M798.704 419.728c-33.291 35.894-77.62 59.666-132.977 71.297v4.826c38.525 16.023 68.698 41.102 90.564 75.21 21.856 34.090 32.79 73.005 32.79 116.727 0 37.71-7.93 71.006-23.753 99.91-15.859 28.885-39.823 51.946-71.913 69.182-29.701 16.049-61.466 26.579-95.375 31.599-33.904 5.019-83.742 7.52-149.545 7.52h-316.524v-896h358.658c62.167 0 113.44 5.638 153.737 16.862 40.311 11.211 77.336 30.076 111.024 56.567 28.499 22.062 51.159 49.945 67.997 83.651 16.831 33.699 25.284 72.795 25.284 117.33 0 60.959-16.656 109.416-49.966 145.319v0zM355.85 731.734h15.631c40.117 0 70.305-0.304 90.55-0.901 20.279-0.609 37.804-4.123 52.677-10.531 15.645-6.838 27.149-17.858 34.571-33.103 7.426-15.253 11.149-30.092 11.149-44.52 0-19.681-3.428-36.925-10.224-51.756-6.838-14.861-19.271-26.491-37.318-34.904-16.457-7.628-32.381-11.832-47.832-12.648-15.453-0.812-42.422-1.186-80.935-1.186h-28.272l0.003 189.546zM602.851 220.545c-9.422-17.045-24.37-30.005-44.828-38.794-23.288-10.049-46.146-15.474-68.597-16.259-22.471-0.805-62.993-1.225-121.536-1.225h-12.039v224.474h41.499c40.134 0 72.107-0.301 95.973-0.914 23.872-0.598 42.636-3.521 56.264-8.731 22.476-8.028 39.305-19.845 50.548-35.494 11.248-15.645 16.865-37.305 16.865-64.989 0.003-21.655-4.725-41.028-14.149-58.071v0z" />
<glyph unicode="&#xe017;" glyph-name="youtube" horiz-adv-x="1025" d="M770.262 240.607h-49.183l0.226 28.56c0 12.691 10.424 23.074 23.169 23.074h3.136c12.762 0 23.218-10.382 23.218-23.074l-0.566-28.56zM585.819 301.815c-12.478 0-22.682-8.383-22.682-18.647v-138.909c0-10.246 10.204-18.606 22.682-18.606 12.524 0 22.742 8.36 22.742 18.606v138.909c0 10.276-10.216 18.647-22.742 18.647zM885.348 379.516v-264.257c0-63.385-54.971-115.257-122.154-115.257h-502.347c-67.211 0-122.166 51.866-122.166 115.257v264.257c0 63.385 54.955 115.264 122.166 115.264h502.347c67.181 0 122.154-51.877 122.154-115.264zM294.357 86.568l-0.042 278.366 62.273-0.018v41.246l-165.999 0.25v-40.55l51.819-0.148v-279.144h51.949zM481.020 323.466h-51.919v-148.649c0-21.503 1.303-32.255-0.077-36.051-4.219-11.53-23.199-23.765-30.596-1.243-1.255 3.944-0.148 15.84-0.166 36.266l-0.208 149.672h-51.628l0.161-147.311c0.042-22.58-0.506-39.425 0.178-47.082 1.262-13.513 0.816-29.267 13.351-38.258 23.354-16.833 68.128 2.512 79.326 26.561l-0.102-30.69 41.692-0.048v236.833zM647.11 153.249l-0.106 123.719c-0.042 47.147-35.314 75.393-83.198 37.241l0.208 91.981-51.866-0.077-0.25-317.481 42.637 0.624 3.885 19.772c54.514-50.003 88.774-15.75 88.697 44.22zM809.597 169.641l-38.937-0.208c-0.018-1.541-0.072-3.325-0.090-5.266v-21.723c0-11.62-9.61-21.087-21.277-21.087h-7.628c-11.685 0-21.284 9.467-21.284 21.087v57.138h89.144v33.551c0 24.521-0.624 49.035-2.66 63.047-6.373 44.34-68.616 51.378-100.055 28.679-9.877-7.087-17.409-16.577-21.794-29.327-4.432-12.75-6.622-30.173-6.622-52.307v-73.762c0.012-122.635 148.965-105.298 131.191 0.178zM609.91 570.136c2.678-6.509 6.837-11.787 12.482-15.768 5.576-3.921 12.716-5.897 21.247-5.897 7.484 0 14.119 2.023 19.89 6.195 5.754 4.152 10.604 10.353 14.553 18.629l-0.975-20.366h57.869v246.111h-45.56v-191.542c0-10.37-8.545-18.867-18.987-18.867-10.382 0-18.957 8.491-18.957 18.867v191.542h-47.547v-165.999c0-21.147 0.381-35.242 1.005-42.387 0.666-7.098 2.29-13.906 4.968-20.51zM434.534 709.134c0 23.627 1.969 42.073 5.885 55.371 3.944 13.251 11.020 23.902 21.277 31.94 10.222 8.074 23.317 12.115 39.235 12.115 13.388 0 24.858-2.63 34.445-7.777 9.626-5.176 17.046-11.893 22.199-20.188 5.248-8.323 8.813-16.875 10.71-25.627 1.939-8.871 2.898-22.253 2.898-40.299v-62.243c0-22.83-0.917-39.621-2.69-50.283-1.761-10.692-5.546-20.611-11.401-29.905-5.784-9.199-13.238-16.078-22.282-20.468-9.139-4.432-19.593-6.599-31.398-6.599-13.192 0-24.299 1.821-33.463 5.622-9.187 3.785-16.286 9.49-21.343 17.064-5.104 7.586-8.7 16.826-10.871 27.596-2.177 10.763-3.213 26.947-3.213 48.522v65.159zM479.86 611.37c0-13.936 10.37-25.318 23.009-25.318 12.644 0 22.967 11.376 22.967 25.318v131.013c0 13.917-10.324 25.3-22.967 25.3-12.632 0-23.009-11.376-23.009-25.3v-131.013zM319.693 545.217h54.597l0.060 188.757 64.51 161.697h-59.715l-34.295-120.107-34.783 120.435h-59.096l68.634-162.113 0.090-188.669z" />
<glyph unicode="&#xe80a;" glyph-name="burger" d="M67.060 856.715h889.88v-121.348h-889.88v121.348zM67.060 492.674h889.88v-121.348h-889.88v121.348zM67.060 128.631h889.88v-121.348h-889.88v121.348z" />
<glyph unicode="&#xe900;" glyph-name="tech-master" horiz-adv-x="1022" d="M514.060 425.659c-103.17 0-187.107 83.927-187.107 187.084 0 103.17 83.939 187.107 187.107 187.107s187.107-83.939 187.107-187.107c-0.012-103.159-83.939-187.084-187.107-187.084zM514.060 776.667c-90.384 0-163.924-73.529-163.924-163.924 0-90.372 73.54-163.901 163.924-163.901s163.924 73.529 163.924 163.901c-0.012 90.395-73.54 163.924-163.924 163.924zM128.554 365.553c-6.41 0-11.591 5.193-11.591 11.591v115.921c0 6.398 5.181 11.591 11.591 11.591s11.591-5.193 11.591-11.591v-115.921c0-6.398-5.181-11.591-11.591-11.591zM839.393 295.781c-79.22 95.634-220.552 153.156-325.332 153.156-106.010 0-249.437-58.852-328.103-156.516 5.762-6.040 10.722-12.832 14.536-20.344 72.345 93.699 210.5 153.675 313.566 153.675 100.769 0 237.475-55.735 310.831-147.938 4.023 6.63 8.89 12.67 14.502 17.969zM872.814 396.342l1.205 7.72-7.499 3.801c-16.044 8.127-25.851 24.331-25.851 42.254 0 8.498 6.607 16.705 6.607 23.833v-26.545l40.549-23.648 40.584 23.602v26.684c0-7.142 6.712-15.349 6.735-23.856-0.047-17.121-9.215-32.957-24.099-41.29l-5.866-3.328 0.070-99.529c8.207-1.565 15.997-4.301 23.196-8.032l-0.035 94.382c18.674 13.086 30.070 34.625 30.129 57.797-0.070 25.236-13.702 48.674-35.577 61.172l-17.353 9.9 0.047-60.499-17.76-10.247-17.747 10.27-0.047 60.592-17.364-10.004c-21.817-12.567-35.392-36.027-35.426-61.254 0.012-24.25 12.229-46.345 32.33-59.282l0.023-91.658c7.234 3.466 15.012 5.925 23.185 7.234l-0.035 89.93zM105.37 342.369h11.591v23.185h23.185v-23.185h11.591v-39.414c8.405-2.864 16.182-7.002 23.185-12.196v74.793h-11.591v23.185h-69.553v-23.185h-11.591v-67.525c7.199 3.72 14.977 6.467 23.185 8.021v36.318zM189.007 214.857h-50.38c-5.565 0-10.074 5.193-10.074 11.591s4.509 11.591 10.074 11.591h50.38c5.565 0 10.074-5.193 10.074-11.591s-4.509-11.591-10.074-11.591zM189.007 168.487h-50.38c-5.565 0-10.074 5.193-10.074 11.591s4.509 11.591 10.074 11.591h50.38c5.565 0 10.074-5.193 10.074-11.591s-4.509-11.591-10.074-11.591zM189.007 122.12h-50.38c-5.565 0-10.074 5.193-10.074 11.591s4.509 11.591 10.074 11.591h50.38c5.565 0 10.074-5.193 10.074-11.591s-4.509-11.591-10.074-11.591zM200.438 274.371c-3.259 7.142-8.184 13.621-13.075 19.371-2.91 3.408-6.364 6.619-9.749 9.425-5.948 4.925-12.74 8.867-19.88 11.591-7.361 2.818-15.406 4.417-23.602 4.417h-2.445c-4.649 0-9.169-0.546-13.552-1.472-6.99-1.472-13.598-4.081-19.717-7.615-23.371-13.527-39.414-40.794-39.414-72.207v-90.963c0-44.827 32.597-82.768 72.682-82.768h2.445c40.073 0 75.568 37.929 75.568 82.768v90.963c0 13.133-4.278 25.525-9.262 36.493zM186.516 146.915c0-32.679-23.173-59.583-52.385-59.583h-2.445c-29.212 0-49.497 26.894-49.497 59.583v90.963c0 19.915 7.153 36.91 20.646 47.655 8.672 6.897 17.434 10.456 28.853 10.456h2.445c11.419 0 21.921-3.57 30.579-10.456 3.72-2.968 7.072-6.212 9.993-10.143 4.995-6.642 8.462-14.35 10.432-22.987 1.101-4.695 1.379-9.46 1.379-14.525v-90.963zM833.179 214.857h50.38c5.565 0 10.074 5.193 10.074 11.591s-4.509 11.591-10.074 11.591h-50.38c-5.554 0-10.074-5.193-10.074-11.591s4.522-11.591 10.074-11.591zM833.179 168.487h50.38c5.565 0 10.074 5.193 10.074 11.591s-4.509 11.591-10.074 11.591h-50.38c-5.554 0-10.074-5.193-10.074-11.591s4.522-11.591 10.074-11.591zM833.179 122.12h50.38c5.565 0 10.074 5.193 10.074 11.591s-4.509 11.591-10.074 11.591h-50.38c-5.554 0-10.074-5.193-10.074-11.591s4.522-11.591 10.074-11.591zM812.486 237.867v-90.963c0-44.827 35.495-82.756 75.568-82.756h2.458c40.085 0 72.682 37.918 72.682 82.756v90.963c0 31.416-16.044 58.68-39.414 72.207-6.109 3.546-12.729 6.155-19.705 7.627-4.383 0.939-8.914 1.472-13.552 1.472h-2.458c-8.196 0-16.229-1.612-23.59-4.406-7.142-2.736-13.934-6.666-19.891-11.603-3.385-2.806-6.84-6.040-9.749-9.437-4.891-5.75-9.819-12.207-13.075-19.359-4.995-10.979-9.273-23.359-9.273-36.504zM835.672 237.867c0 5.077 0.278 9.843 1.379 14.536 1.971 8.637 5.437 16.334 10.42 22.987 2.933 3.918 6.271 7.176 9.993 10.143 8.661 6.886 19.163 10.456 30.579 10.456h2.458c11.407 0 20.17-3.582 28.843-10.456 13.504-10.734 20.658-27.74 20.658-47.668v-90.963c0-32.679-20.287-59.572-49.497-59.572h-2.458c-29.212 0-52.385 26.882-52.385 59.572v90.963z" />
<glyph unicode="&#xe901;" glyph-name="check_round" d="M512 895.987c-247.024 0-447.988-200.964-447.988-447.988s200.964-447.988 447.988-447.988 447.988 200.964 447.988 447.988c0 247.024-200.964 447.988-447.988 447.988zM512 72.237c-207.238 0-375.816 168.579-375.816 375.816s168.579 375.762 375.816 375.762 375.816-168.579 375.816-375.816-168.632-375.762-375.816-375.762zM654.788 590.841l-209.115-209.115-76.515 76.515c-14.102 14.102-36.944 14.102-51.045 0s-14.102-36.944 0-51.045l102.038-102.038c7.077-7.023 16.3-10.562 25.523-10.562s18.445 3.539 25.523 10.562l234.638 234.638c14.102 14.102 14.102 36.944 0 51.045s-36.944 14.102-51.045 0z" />
<glyph unicode="&#xe902;" glyph-name="doc_down" horiz-adv-x="1023" d="M625.994 896.12h-359.954c-52.64 0-95.39-42.781-95.39-95.39v-705.462c0-52.577 42.75-95.39 95.39-95.39h491.12c52.548 0 95.39 42.813 95.39 95.39v575.102l-226.556 225.751zM757.161 58.345h-491.12c-20.399 0-36.953 16.555-36.953 36.923v705.462c0 20.336 16.585 36.891 36.953 36.891l338.099 0.371v-124.966c0-36.55 29.637-66.187 66.157-66.187l122.454 0.341 1.333-551.943c-0.031-20.368-16.524-36.891-36.923-36.891zM616.323 438.729h-45.788v135.785c0 13.796-11.161 24.955-24.926 24.955h-68.079c-13.733 0-24.894-11.161-24.894-24.955v-135.785h-45.788c-7.565 0-14.354-4.588-17.298-11.595-2.914-6.976-1.302-15.004 4.062-20.399l104.691-104.722c7.315-7.315 19.189-7.315 26.475 0l104.783 104.722c5.364 5.395 6.945 13.455 4.062 20.399-2.914 7.007-9.735 11.595-17.298 11.595z" />
<glyph unicode="&#xe903;" glyph-name="doc_pdf" horiz-adv-x="1027" d="M627.673 896.037h-359.887c-52.631 0-95.373-42.774-95.373-95.373v-705.329c0-52.567 42.743-95.373 95.373-95.373h491.028c52.536 0 95.373 42.774 95.373 95.373v574.994l-226.513 225.708zM758.814 58.419h-491.028c-20.394 0-36.947 16.552-36.947 36.947v705.299c0 20.363 16.583 36.915 36.947 36.915l338.036 0.341v-124.943c0-36.544 29.631-66.175 66.143-66.175l122.432 0.341 1.333-551.841c0-20.363-16.52-36.883-36.915-36.883zM305.786 338.71v66.393h47.578c40.263 0 62.642 27.741 62.642 60.193 0 32.762-22.099 60.193-62.642 60.193h-87.283v-186.778h39.706zM354.822 432.347h-49.035v62.982h49.035c15.653 0 31.305-17.265 31.305-32.949 0-15.405-15.653-30.035-31.305-30.035zM507.473 338.71c58.457 0 98.069 36.978 98.069 93.265s-39.581 93.544-98.069 93.544h-56.163v-186.778h56.163zM507.473 369.83h-16.428v124.539h16.428c38.311 0 68.159-29.352 68.159-62.393-0.031-31.647-31.243-62.145-68.159-62.145zM677.141 338.71v63.726h82.634v30.159h-82.634v62.734h84.586v30.159h-124.291v-186.778h39.706z" />
<glyph unicode="&#xe904;" glyph-name="doc_st" horiz-adv-x="1027" d="M627.673 896.035h-359.887c-52.63 0-95.373-42.805-95.373-95.373v-705.328c0-52.567 42.743-95.373 95.373-95.373h491.028c52.536 0 95.373 42.805 95.373 95.373v574.963l-226.513 225.739zM758.814 58.388h-491.028c-20.394 0-36.947 16.553-36.947 36.915v705.361c0 20.334 16.583 36.883 36.947 36.883l338.036 0.371v-124.943c0-36.544 29.631-66.174 66.143-66.174l122.431 0.341 1.333-551.84c0-20.363-16.521-36.915-36.915-36.915z" />
<glyph unicode="&#xe905;" glyph-name="user" horiz-adv-x="1026" d="M596.555 419.943c-0.027 0.013-0.066 0.013-0.092 0.013 76.216 32.79 129.649 108.992 129.649 197.764 0 118.719-95.511 214.984-213.319 214.984s-213.319-96.253-213.319-214.984c0-88.785 53.432-164.975 129.649-197.764-0.027 0-0.066-0.013-0.092-0.013-165.954-34.93-355.893-163.229-355.893-343.43 0-7.309 5.921-13.217 13.217-13.217s13.217 5.908 13.217 13.217c0 188.763 245.381 325.51 411.771 326.316 0.489-0.013 0.965-0.079 1.454-0.079v0c0 0 0 0 0 0 0.013 0 0.040 0 0.054 0 0.475 0 0.938 0.079 1.401 0.079 164.513-0.779 411.758-130.72 411.758-326.303 0-7.309 5.908-13.217 13.217-13.217s13.217 5.908 13.217 13.217c0.027 180.187-188.406 308.407-355.881 343.417zM325.892 617.72c0 104.036 83.683 188.367 186.913 188.367s186.9-84.331 186.9-188.367c0-104.023-83.683-188.341-186.913-188.341s-186.9 84.318-186.9 188.341z" />
</font>
</defs>
</svg>
