<?xml version="1.0" standalone="no"?>
<!DOCTYPE svg PUBLIC "-//W3C//DTD SVG 1.1//EN" "http://www.w3.org/Graphics/SVG/1.1/DTD/svg11.dtd" >
<svg>
<metadata>
Created by FontForge 20090622 at Tue Jan 26 07:36:34 2016
 By deploy user
Copyright (c) 2007 by ALS. All rights reserved.
</metadata>
<defs>
<font id="Mirta" horiz-adv-x="577" >
  <font-face 
    font-family="Mirta"
    font-weight="400"
    font-stretch="normal"
    units-per-em="1000"
    panose-1="2 0 5 3 7 0 0 2 0 3"
    ascent="750"
    descent="-250"
    x-height="467"
    cap-height="701"
    bbox="-100 -326 1120 897"
    underline-thickness="50"
    underline-position="-50"
    unicode-range="U+0002-U+FB04"
  />
<missing-glyph horiz-adv-x="1141" 
 />
    <glyph glyph-name="uniE001" unicode="fk" horiz-adv-x="884" 
d="M823 467v-36q-65 -2 -92 -25l-106 -105l159 -248q9 -11 17 -11l71 -6v-36h-252v36l51 5q5 0 5 8q0 3 -2 7l-118 183l-52 -50v-137q0 -12 13 -13l43 -3v-36h-227v36l67 3q12 0 12 12v653q0 13 -11 17q-31 12 -81 12q-114 0 -114 -139v-122l117 -5v-33l-117 -4v-378
q0 -11 12 -12l67 -4v-36h-250v36l66 3q13 0 13 13v378l-60 2v35l60 5v89q0 206 212 206q40 0 178 -18v-506l176 164q8 8 8 13q0 7 -7 7l-64 4v36h206z" />
    <glyph glyph-name="uniE002" unicode="fh" horiz-adv-x="938" 
d="M825 351v-299q0 -13 12 -13l66 -3v-36h-248v36l66 3q12 0 12 13v274q0 53 -22 85t-68 32t-83.5 -32.5t-55.5 -64.5v-294q0 -13 13 -13l65 -3v-36h-250v36l67 3q5 0 9 4.5t4 8.5v648q0 8 -2.5 12.5t-5.5 6.5t-10 4q-28 10 -76 10q-49 0 -80.5 -31.5t-31.5 -96.5v-133
l117 -5v-33l-117 -4v-378q0 -11 12 -12l67 -4v-36h-250v36l66 3q13 0 13 13v378l-60 2v35l60 5v89q0 206 212 206q58 0 178 -18v-357q70 89 168 89q66 0 109.5 -33.5t43.5 -96.5z" />
    <glyph glyph-name="uniE003" unicode="fj" horiz-adv-x="597" 
d="M207 -293q-10 20 -10 52q0 50 48 50q12 0 40 -4v-88q17 -9 53 -9q74 0 74 117v594q0 11 -13 11q-32 2 -66 2l-127 -8v-372q0 -11 12 -12l67 -4v-36h-250v36l66 3q5 0 9 4t4 9v373l-79 3v34l79 5v80q0 106 60 163.5t171 57.5q38 0 84.5 -11.5t68.5 -28.5q9 -18 9 -49
q0 -23 -13.5 -37t-38.5 -14q-26 0 -40 4v87q-28 14 -72 14q-67 0 -102 -44.5t-35 -121.5v-100h298v-603q0 -94 -46 -142t-121 -48q-88 0 -130 33z" />
    <glyph glyph-name="ff" unicode="ff" horiz-adv-x="631" 
d="M711 729q10 -23 10 -50q0 -22 -13.5 -35.5t-37.5 -13.5q-9 0 -41 4v87q-23 12 -53 12q-72 0 -72 -115v-151l117 -4v-32l-117 -5v-374q0 -11 12 -12l67 -4v-36h-250v36l67 3q5 0 8.5 4.5t3.5 8.5v374q-39 8 -92 8q-23 0 -51.5 -2t-45.5 -4l-17 -2v-374q0 -11 12 -12l67 -4
v-36h-250v36l66 3q5 0 9 4.5t4 8.5v374l-79 3v34l79 4v81q0 100 63.5 151t168.5 51q60 0 124 -20q43 38 110 38q81 0 131 -39zM206 467h206q0 98 5.5 149.5t27.5 84.5q-27 14 -91 14q-66 0 -107 -37t-41 -110v-101z" />
    <glyph glyph-name="fi" unicode="fi" horiz-adv-x="617" 
d="M498 728q9 -18 9 -49q0 -23 -13.5 -37t-38.5 -14q-26 0 -40 4v87q-28 14 -72 14q-67 0 -102 -44.5t-35 -121.5v-100h298v-414q0 -12 12 -13l66 -4v-36h-248v36l66 3q12 0 12 13v365q0 10 -11 12q-27 3 -68 3l-127 -8v-372q0 -11 12 -12l67 -4v-36h-250v36l66 3q5 0 9 4
t4 9v373l-79 3v34l79 5v80q0 106 60 163.5t171 57.5q38 0 84.5 -11.5t68.5 -28.5z" />
    <glyph glyph-name="fl" unicode="fl" horiz-adv-x="617" 
d="M504 749v-696q0 -12 12 -13l66 -4v-36h-248v36l67 4q11 2 11 13v663q-31 17 -88 17q-60 0 -89 -34t-29 -130v-97l117 -5v-33l-117 -4v-378q0 -11 12 -12l66 -4v-36h-249v36l66 3q5 0 9 4.5t4 8.5v377l-77 3v35l77 5v76q0 115 51.5 167t171.5 52q28 0 167 -18z" />
    <glyph glyph-name="ffi" unicode="ffi" horiz-adv-x="915" 
d="M796 728q9 -21 9 -49q0 -23 -13.5 -37t-38.5 -14q-26 0 -40 4v87q-28 14 -72 14q-67 0 -102 -44t-35 -120v-102h298v-415q0 -12 11 -13l67 -4v-35h-248v35l65 3q13 3 13 13v366q-28 15 -104 15q-46 0 -102 -8v-372q0 -12 11 -12l68 -4v-36h-250v36l69 3q10 0 10 13v372
q-1 0 -6 1t-13.5 2t-19 2.5t-25 2.5t-28.5 1q-24 0 -52.5 -2.5t-45.5 -4.5l-16 -2v-372q0 -11 11 -12l68 -4v-36h-250v36l67 3q5 0 8.5 4.5t3.5 8.5v372l-79 5v34l79 4v81q0 100 66 151t175 51q61 0 141 -28q61 46 147 46q38 0 84.5 -11.5t68.5 -28.5zM412 467v82
q0 87 55 147q-51 19 -114 19q-65 0 -106 -37.5t-41 -109.5v-101h206z" />
    <glyph glyph-name="ffl" unicode="ffl" horiz-adv-x="914" 
d="M802 749v-696q0 -12 11 -13l66 -4v-36h-247v36l66 4q12 2 12 13v640q0 21 -29 30.5t-60 9.5q-58 0 -87.5 -35t-29.5 -130v-101l117 -6v-24l-117 -11v-375q0 -9 12 -11l67 -4v-36h-250v36l67 3q12 0 12 13v374q-41 8 -92 8q-23 0 -51.5 -2t-45.5 -4l-17 -2v-374
q0 -11 12 -12l67 -4v-36h-250v36l66 3q5 0 9 4.5t4 8.5v374l-78 3v34l78 4v81q0 100 66.5 151t175.5 51q54 0 118 -22q52 40 152 40q27 0 176 -19zM412 467v81q0 98 36 152q-32 15 -94 15q-66 0 -107 -37t-41 -110v-101h206z" />
    <glyph glyph-name=".notdef" horiz-adv-x="1141" 
 />
    <glyph glyph-name=".null" horiz-adv-x="0" 
 />
    <glyph glyph-name=".null" horiz-adv-x="0" 
 />
    <glyph glyph-name="nonmarkingreturn" horiz-adv-x="333" 
 />
    <glyph glyph-name="uni0002" horiz-adv-x="1140" 
 />
    <glyph glyph-name="uni0003" horiz-adv-x="0" 
 />
    <glyph glyph-name="space" unicode=" " horiz-adv-x="280" 
 />
    <glyph glyph-name="exclam" unicode="!" horiz-adv-x="244" 
d="M146 110q28 0 44.5 -15t16.5 -44q0 -60 -61 -60q-63 0 -63 60q0 59 63 59zM145 754q62 0 62 -87q0 -17 -3 -40l-41 -410h-36l-42 406q-3 39 -3 44q0 87 63 87z" />
    <glyph glyph-name="quotedbl" unicode="&#x22;" horiz-adv-x="368" 
d="M128 751q52 0 52 -61q0 -24 -4.5 -52.5t-15.5 -81.5l-15 -73h-35q-35 165 -35 207q0 61 53 61zM286 751q52 0 52 -61q0 -21 -8 -67q-4 -25 -14 -74.5t-13 -65.5h-35q-35 177 -35 207q0 61 53 61z" />
    <glyph glyph-name="numbersign" unicode="#" horiz-adv-x="688" 
d="M30 227l5 46h148l16 160h-148l5 48h148l23 221h49l-22 -221h155l22 221h51l-21 -221h147l-6 -48h-147l-16 -160h148l-5 -46h-148l-22 -227h-52l25 227h-158l-23 -227h-51l25 227h-148zM249 433l-17 -160h156l15 160h-154z" />
    <glyph glyph-name="dollar" unicode="$" horiz-adv-x="638" 
d="M266 -61v62q-75 9 -134 63q-19 -23 -20 -58h-44v239h44q2 -90 41 -144.5t113 -64.5v291q-53 21 -83 35.5t-62.5 38.5t-46.5 55t-14 73q0 86 57 138t149 52v52h32v-53q49 -4 113 -31q20 19 26 51h44v-221h-44q0 34 -4 57.5t-17 50t-42.5 42t-75.5 18.5v-280q1 -1 3 -1
l30 -12q45 -18 73.5 -32.5t57.5 -37.5t42.5 -55t13.5 -74q0 -64 -37.5 -109.5t-85.5 -64.5t-97 -19v-61h-32zM424 155q0 55 -32.5 92t-93.5 66v-279q59 0 92.5 34t33.5 87zM144 564q0 -49 27.5 -81.5t94.5 -63.5v267q-59 -2 -90.5 -35.5t-31.5 -86.5z" />
    <glyph glyph-name="percent" unicode="%" horiz-adv-x="814" 
d="M252 715q73 0 120.5 -44t47.5 -116q0 -71 -48.5 -116t-118.5 -45q-71 0 -119.5 43t-48.5 115q0 74 47 118.5t120 44.5zM193 -4l448 731l36 -21l-451 -733zM253 417q31 0 48 20t21.5 46.5t4.5 69.5q0 45 -3.5 71t-20.5 47t-50 21q-25 0 -41 -10.5t-23 -33t-9 -43t-2 -53.5
q0 -135 75 -135zM615 311q71 0 120 -44.5t49 -115.5q0 -70 -51 -115t-117 -45q-67 0 -117.5 43.5t-50.5 114.5q0 73 48 117.5t119 44.5zM616 13q26 0 42.5 11.5t23 34.5t8 41.5t1.5 48.5q0 139 -75 139q-74 0 -74 -139q0 -29 2 -47.5t8.5 -42t22.5 -35t41 -11.5z" />
    <glyph glyph-name="ampersand" unicode="&#x26;" horiz-adv-x="773" 
d="M353 767q43 0 76.5 -8.5t47 -16t31.5 -20.5q6 20 8 45h44v-198h-46q1 9 1 31q0 52 -34.5 91.5t-107.5 39.5q-55 0 -94 -32.5t-39 -97.5q0 -60 70.5 -163t214.5 -274q37 79 37 179q0 15 -17 15l-79 5v37h234v-37l-83 -5q-11 0 -13 -15q-9 -125 -52 -211l65 -75
q12 -12 21 -13l80 -8v-36h-172l-48 59q-73 -75 -185 -75q-113 0 -178 62t-65 159q0 144 140 223q-37 49 -54 86t-17 83q0 72 63 121t151 49zM339 22q77 0 136 66l-246 306q-28 -33 -43.5 -72t-15.5 -107q0 -88 45.5 -140.5t123.5 -52.5z" />
    <glyph glyph-name="quotesingle" unicode="'" horiz-adv-x="210" 
d="M128 751q52 0 52 -61q0 -24 -4.5 -52.5t-15.5 -81.5l-15 -73h-36q-34 170 -34 207q0 61 53 61z" />
    <glyph glyph-name="parenleft" unicode="(" horiz-adv-x="325" 
d="M237 752l13 -32q-55 -29 -81.5 -164t-26.5 -342q0 -204 27 -338t80 -168l-13 -32q-18 9 -39.5 27t-50.5 60.5t-51.5 98.5t-38.5 148.5t-16 203.5t15 203t37 148.5t50.5 98.5t51 60.5t43.5 27.5z" />
    <glyph glyph-name="parenright" unicode=")" horiz-adv-x="325" 
d="M75 720l13 32q21 -9 43.5 -27.5t51 -60.5t50.5 -98.5t37 -148.5t15 -203t-16 -203.5t-38.5 -148.5t-51.5 -98.5t-50.5 -60.5t-39.5 -27l-13 32q53 34 80 168t27 338q0 207 -26.5 342t-81.5 164z" />
    <glyph glyph-name="asterisk" unicode="*" horiz-adv-x="396" 
d="M206 615l3 2q-33 86 -33 103t10.5 28.5t26.5 11.5t26.5 -11.5t10.5 -28.5q0 -4 -4.5 -18t-13 -38.5t-14.5 -46.5l3 -2l67 73q13 13 27 13q20 0 30.5 -11t10.5 -25q0 -33 -30 -39l-102 -20v-4l102 -20q14 -3 22 -14t8 -24q0 -14 -10 -25t-29 -11q-20 0 -44 28l-52 58
l-3 -2q32 -93 32 -103q0 -18 -10.5 -29t-26.5 -11t-26.5 11t-10.5 29q0 13 33 103l-3 2l-67 -73q-13 -13 -32 -13q-16 0 -26.5 11t-10.5 25q0 31 30 38q60 13 103 20v4l-103 20q-13 3 -21.5 14.5t-8.5 24.5q0 15 10.5 25.5t32.5 10.5q7 0 15.5 -5.5t19 -16l19 -19.5
t21 -23.5z" />
    <glyph glyph-name="plus" unicode="+" 
d="M41 270v51h221v223h51v-223h222v-51h-222v-220h-51v220h-221z" />
    <glyph glyph-name="comma" unicode="," horiz-adv-x="232" 
d="M139 103q29 0 46 -18t17 -51q0 -64 -63 -161l-31 17q39 57 39 84q0 15 -18 15q-54 4 -54 50q0 30 17.5 47t46.5 17z" />
    <glyph glyph-name="hyphen" unicode="-" horiz-adv-x="348" 
d="M54 264v63h240v-63h-240z" />
    <glyph glyph-name="period" unicode="." horiz-adv-x="231" 
d="M137 110q29 0 46.5 -15t17.5 -44q0 -30 -17.5 -45t-46.5 -15q-28 0 -45 15t-17 45q0 27 17.5 43t44.5 16z" />
    <glyph glyph-name="slash" unicode="/" horiz-adv-x="515" 
d="M-67 -139l559 911l42 -25l-564 -912z" />
    <glyph glyph-name="zero" unicode="0" 
d="M288 717q69 0 119.5 -30.5t77.5 -84.5t39.5 -117.5t12.5 -139.5q0 -71 -13.5 -134t-41.5 -116.5t-77.5 -85t-116.5 -31.5q-68 0 -118.5 29.5t-79.5 82t-43 116t-14 138.5q0 76 13.5 140t42 118t79.5 84.5t120 30.5zM133 345q0 -93 15.5 -166t51 -120.5t88.5 -47.5
t87.5 48.5t48 120.5t13.5 166t-13 166.5t-48 122t-88 49.5t-89 -49.5t-51 -123t-15 -166.5z" />
    <glyph glyph-name="one" unicode="1" 
d="M475 0h-377v36l122 4q20 2 20 23v543q-73 -31 -139 -44l-9 24q23 11 79 49q42 29 69 68h93v-640q0 -22 22 -23l120 -4v-36z" />
    <glyph glyph-name="two" unicode="2" 
d="M514 0h-452v64q34 19 71.5 45.5t88.5 73t90 97t66.5 119.5t27.5 139q0 72 -34.5 109t-93.5 37q-57 0 -104 -35v-108q-27 -9 -48 -9q-31 0 -44 14q-11 12 -11 33q0 51 59 95.5t158 44.5q100 0 159 -48.5t59 -141.5q0 -49 -16.5 -98t-47.5 -91.5t-62.5 -77.5t-76 -70
t-71.5 -54.5t-64.5 -44t-41.5 -27.5l328 20q18 2 19 18l5 86h36v-190z" />
    <glyph glyph-name="three" unicode="3" 
d="M280 710q52 0 95 -12.5t75.5 -47.5t32.5 -88q0 -37 -14.5 -67t-37 -49.5t-53.5 -33.5t-59.5 -21t-58.5 -10v-4q249 -3 249 -172q0 -57 -23.5 -100.5t-61.5 -67.5t-79.5 -35.5t-83.5 -11.5q-81 0 -136.5 29t-55.5 75q0 21 13.5 38t43.5 17q22 0 38 -7v-96q32 -21 93 -21
q66 0 106 43.5t40 136.5q0 73 -43 111t-109 38q-19 0 -44.5 -3l-41.5 -5l-16 -3l-5 44q128 5 182.5 47.5t54.5 123.5q0 58 -32 88t-91 30q-53 0 -93 -22v-88q-24 -8 -46 -8q-23 0 -36.5 12.5t-13.5 34.5q0 41 59 73t152 32z" />
    <glyph glyph-name="four" unicode="4" 
d="M425 713v-455l56 3q12 0 14 15l10 72h35v-144h-115v-143q0 -20 21 -21l73 -4v-36h-299v36l93 4q7 0 13.5 6.5t6.5 14.5v143h-307v19l376 490h23zM333 563l-242 -323l242 12v311z" />
    <glyph glyph-name="five" unicode="5" 
d="M465 794v-183h-324v-175q59 7 88 7q51 0 89.5 -4t77.5 -17t64 -34t40.5 -57t15.5 -85q0 -123 -74.5 -191t-175.5 -68q-102 0 -153.5 33t-51.5 75q0 31 17.5 52.5t45.5 21.5q18 0 40 -6v-117q30 -24 92 -24q73 0 114 55t41 155q0 177 -194 177q-42 0 -116 -12v291l302 15
q19 2 21 25l6 66h35z" />
    <glyph glyph-name="six" unicode="6" 
d="M488 650l-25 -29q-33 26 -59.5 36.5t-67.5 10.5q-77 0 -128.5 -80.5t-56.5 -247.5q65 82 171 82q103 0 156 -50t53 -141q0 -98 -65.5 -169.5t-167.5 -71.5q-50 0 -91.5 16t-78 51t-57 100.5t-20.5 155.5q0 184 84 290.5t203 106.5q92 0 150 -60zM303 385
q-48 0 -87.5 -25.5t-63.5 -67.5q0 -267 141 -267q62 0 100 55t38 141q0 84 -35 124t-93 40z" />
    <glyph glyph-name="seven" unicode="7" 
d="M514 703v-31q-78 -70 -148.5 -189t-110.5 -288q-17 -70 -17 -143q0 -11 1 -29t1 -23h-122q0 79 37 191q42 126 134 263t156 197q-165 -8 -223 -15.5t-88 -20.5q-16 -7 -25.5 -27.5t-11 -33.5t-1.5 -21h-34v218h35q7 -29 18 -48h399z" />
    <glyph glyph-name="eight" unicode="8" 
d="M302 716q82 0 130.5 -36.5t48.5 -109.5q0 -34 -10.5 -61.5t-32 -49t-39.5 -34.5t-46 -30q84 -43 128 -88t44 -117q0 -91 -75 -147t-175 -56q-98 0 -158.5 49.5t-60.5 139.5q0 59 41.5 108t99.5 77q-59 36 -91.5 76.5t-32.5 102.5q0 85 69.5 130.5t159.5 45.5zM423 161
q0 32 -15 59.5t-45.5 50t-57 37t-68.5 33.5q-133 -58 -133 -169q0 -66 44 -108.5t118 -42.5q72 0 114.5 37t42.5 103zM179 563q0 -46 33 -79t99 -67l6 -3q46 23 82.5 62.5t36.5 90.5q0 56 -36 85.5t-99 29.5q-58 0 -90 -31.5t-32 -87.5z" />
    <glyph glyph-name="nine" unicode="9" 
d="M81 85l30 26q56 -79 142 -79q77 0 125 81t52 252q-28 -38 -74.5 -61.5t-101.5 -23.5q-99 0 -153 50.5t-54 141.5q0 99 64.5 168.5t167.5 69.5q53 0 96.5 -16.5t80.5 -52t57.5 -100t20.5 -152.5q0 -185 -79 -292t-195 -107q-109 0 -179 95zM279 319q46 0 87 26.5t64 67.5
q0 132 -38.5 198t-108.5 66q-63 0 -96.5 -54t-33.5 -142q0 -162 126 -162z" />
    <glyph glyph-name="colon" unicode=":" horiz-adv-x="246" 
d="M137 110q29 0 46.5 -15t17.5 -44q0 -30 -17.5 -45t-46.5 -15q-28 0 -45 15t-17 45q0 29 17 44t45 15zM137 468q29 0 46.5 -15t17.5 -44t-17.5 -45t-46.5 -16q-28 0 -45 16t-17 45t17 44t45 15z" />
    <glyph glyph-name="semicolon" unicode=";" horiz-adv-x="247" 
d="M136 103q29 0 46 -18t17 -51q0 -64 -63 -161l-31 17q39 57 39 84q0 15 -18 15q-54 4 -54 50q0 30 17.5 47t46.5 17zM138 468q29 0 46.5 -15t17.5 -44q0 -30 -17.5 -45t-46.5 -15q-28 0 -45 15t-17 45q0 27 17.5 43t44.5 16z" />
    <glyph glyph-name="less" unicode="&#x3c;" 
d="M494 538l-329 -233l329 -236v-69l-421 302l421 298v-62z" />
    <glyph glyph-name="equal" unicode="=" 
d="M62 222v49h479v-49h-479zM62 319v49h479v-49h-479z" />
    <glyph glyph-name="greater" unicode="&#x3e;" 
d="M402 298l-329 233v69l421 -298l-421 -302v62z" />
    <glyph glyph-name="question" unicode="?" horiz-adv-x="551" 
d="M260 110q28 0 45.5 -15t17.5 -44q0 -30 -17.5 -45t-45.5 -15q-29 0 -46 15t-17 45q0 29 17 44t46 15zM277 277v-117h-34v130q156 76 156 231q0 84 -33.5 121.5t-86.5 37.5q-61 0 -110 -30v-87q-1 0 -8.5 -1t-18.5 -2t-20 -1q-47 0 -47 41q0 18 11 35q19 29 77 53.5
t130 24.5q28 0 54 -4t56 -16t51.5 -31t36 -53.5t14.5 -80.5q0 -159 -228 -251z" />
    <glyph glyph-name="at" unicode="@" horiz-adv-x="804" 
d="M579 466l2 -4l-60 -287q-4 -22 -4 -38q0 -40 29 -40q64 0 109.5 72t45.5 158q0 138 -77.5 203t-204.5 65q-54 0 -109 -21t-103.5 -61t-78.5 -108t-30 -153q0 -84 27.5 -148.5t72 -99.5t93.5 -52t99 -17q135 0 218 81l19 -22q-30 -34 -89 -64t-148 -30q-152 0 -246 95
t-94 257q0 163 110.5 270.5t269.5 107.5q61 0 114.5 -16t99.5 -49.5t73 -94.5t27 -142q0 -111 -68 -193t-184 -82q-74 0 -74 78q0 20 7 49l-5 2q-24 -40 -64 -77t-83 -37q-35 0 -58.5 28t-23.5 89q0 118 85 198t195 80q5 0 13.5 -0.5t12.5 -0.5q46 0 82 4zM326 138
q19 0 44 22.5t44 53.5q14 23 24.5 53t15.5 51t12.5 59t11.5 54q-8 1 -20 1q-58 0 -111.5 -79.5t-53.5 -167.5q0 -47 33 -47z" />
    <glyph glyph-name="A" unicode="A" horiz-adv-x="717" 
d="M702 0h-271v37l70 5q10 0 10 9q0 4 -5 17l-53 159h-238l-53 -149q-8 -19 -8 -27q0 -10 16 -10l63 -4v-37h-217v37l74 5q17 1 25 25l240 662h21l233 -674q4 -10 15 -11l78 -7v-37zM339 571l-111 -306h213z" />
    <glyph glyph-name="B" unicode="B" horiz-adv-x="649" 
d="M567 555q0 -74 -58.5 -121.5t-142.5 -53.5v-4q109 -8 169.5 -49t60.5 -130q0 -95 -74 -146t-182 -51h-285v36l71 7q11 2 11 13v591q0 13 -12 14l-70 4v36h300q212 0 212 -146zM229 662v-269h87q63 0 106.5 42.5t43.5 109.5q0 65 -38.5 95.5t-103.5 30.5q-36 0 -95 -9z
M229 356v-313q72 -8 112 -8q74 0 114.5 42.5t40.5 121.5q0 82 -49.5 119.5t-130.5 37.5h-87z" />
    <glyph glyph-name="C" unicode="C" horiz-adv-x="646" 
d="M531 650q12 20 15 46h38v-201h-38q-8 65 -31 102q-45 75 -142 75q-99 0 -160 -79.5t-61 -243.5q0 -83 19.5 -144t53.5 -94.5t72.5 -49.5t81.5 -16q66 0 115.5 34.5t78.5 76.5l28 -23q-14 -23 -32 -44t-47.5 -45t-72.5 -38.5t-92 -14.5q-55 0 -106 17.5t-97 55.5
t-73.5 107.5t-27.5 163.5q0 181 88 278t213 97q107 0 177 -60z" />
    <glyph glyph-name="D" unicode="D" horiz-adv-x="722" 
d="M669 358q0 -68 -13.5 -123.5t-35.5 -92t-53 -64.5t-61 -43t-65 -24.5t-60.5 -12t-51.5 -2.5q-21 0 -66 2t-71 2h-137v37l70 6q12 1 12 12v590q0 12 -13 12l-69 6v38h286q172 0 250 -85.5t78 -257.5zM340 36q43 0 81.5 15.5t73 50t54.5 98.5t20 151q0 173 -59 243t-170 70
q-45 0 -111 -8v-609q48 -11 111 -11z" />
    <glyph glyph-name="E" unicode="E" horiz-adv-x="623" 
d="M547 506h-37v148q0 11 -10 11l-271 -9v-277h99q60 0 60 124h38v-284h-36q0 124 -63 124h-98v-296l245 -10q19 0 22 17l27 161h38v-215h-506v37l71 3q11 0 11 12v594q0 12 -12 12l-70 5v38h533z" />
    <glyph glyph-name="F" unicode="F" horiz-adv-x="601" 
d="M541 504h-38v149q0 12 -7 12l-267 -10v-275h121q33 0 37 124h38v-286h-38q-1 48 -11 86.5t-26 38.5h-121v-290q0 -12 12 -13l82 -4v-36h-268v36l69 3q5 0 9 3.5t4 8.5v594q0 11 -10 12l-72 8v36h526z" />
    <glyph glyph-name="G" unicode="G" horiz-adv-x="696" 
d="M548 696h38v-201h-39q0 68 -27 110q-44 70 -149 70q-103 0 -160.5 -91t-57.5 -248q0 -83 17.5 -144.5t46.5 -93.5t61 -47t67 -15q87 0 151 69v137q0 12 -12 14l-68 3v36h250v-36l-67 -3q-11 0 -11 -14v-242h-32q-18 42 -39 75q-25 -23 -43.5 -37.5t-60.5 -31t-89 -16.5
q-35 0 -69 8.5t-71.5 32t-65.5 60.5t-46.5 100t-18.5 144q0 84 21.5 151.5t54.5 108t76 67.5t83 37.5t78 10.5q96 0 162 -51q12 16 20 37z" />
    <glyph glyph-name="H" unicode="H" horiz-adv-x="788" 
d="M313 663l-69 -2q-14 0 -14 -12v-270h328v268q0 13 -13 13l-70 3v38h258v-38l-71 -3q-12 0 -12 -13v-594q0 -12 12 -12l70 -4v-37h-256v37l70 3q4 0 8 4t4 9v289h-328v-289q0 -12 12 -13l71 -3v-37h-258v37l72 4q11 0 11 12v593q0 14 -12 14l-71 3v38h258v-38z" />
    <glyph glyph-name="I" unicode="I" horiz-adv-x="376" 
d="M60 701h256v-38l-70 -4q-12 0 -12 -13v-592q0 -12 12 -12l70 -5v-37h-256v37l70 4q12 0 12 13v592q0 13 -11 13l-71 4v38z" />
    <glyph glyph-name="J" unicode="J" horiz-adv-x="434" 
d="M384 662l-69 -5q-13 -2 -13 -16v-482q0 -87 -51.5 -130t-119.5 -43q-32 0 -58 6.5t-46.5 26.5t-20.5 52q0 58 50 58q22 0 39 -7v-90q15 -11 43 -11q39 0 55.5 27.5t16.5 91.5v502q0 13 -13 15l-79 5v39h266v-39z" />
    <glyph glyph-name="K" unicode="K" horiz-adv-x="753" 
d="M723 0h-289v37l83 7q8 1 8 8q0 4 -3 9l-207 310l-86 -99v-219q0 -13 13 -13l69 -4v-36h-256v36l69 4q5 0 9 4t4 9v594q0 12 -13 12l-69 5v37h256v-37l-72 -5q-10 -3 -10 -12v-312l265 309q3 3 3 7q0 5 -9 7l-61 6v37h229v-37l-87 -8q-11 0 -20 -11l-176 -206l257 -383
q7 -11 17 -11l76 -8v-37z" />
    <glyph glyph-name="L" unicode="L" horiz-adv-x="591" 
d="M55 701h255v-37l-69 -4q-13 0 -13 -12v-592q0 -5 4 -8.5t9 -3.5l188 -10h10q10 -1 11 -1q20 0 21 15l32 209h38v-257h-482v36l65 6q12 1 12 13v592q0 13 -11 13l-70 4v37z" />
    <glyph glyph-name="M" unicode="M" horiz-adv-x="941" 
d="M886 0h-257v36l70 5q13 0 13 12v550l-4 1l-241 -613h-43l-235 624l-3 -1v-560q0 -12 12 -12l69 -6v-36h-212v36l70 5q12 0 12 12v595q0 11 -13 12l-68 4v37h204l211 -574l224 574h191v-37l-70 -4q-12 0 -12 -12v-595q0 -12 12 -12l70 -5v-36z" />
    <glyph glyph-name="N" unicode="N" horiz-adv-x="763" 
d="M626 -12h-32l-417 648v-582q0 -13 12 -13l70 -4v-37h-204v37l65 4q13 0 13 13v593q0 12 -12 12l-66 5v37h196l332 -528v473q0 12 -11 13l-71 5v37h207v-37l-69 -5q-13 -2 -13 -12v-659z" />
    <glyph glyph-name="O" unicode="O" horiz-adv-x="738" 
d="M685 343q0 -91 -25.5 -161t-69.5 -111t-99 -61.5t-118 -20.5q-69 0 -125.5 19.5t-101 60.5t-69 110.5t-24.5 163.5q0 185 88 276t232 91q143 0 227.5 -91t84.5 -276zM373 25q97 0 154.5 79.5t57.5 246.5q0 326 -212 326q-101 0 -160.5 -78t-59.5 -249q0 -325 220 -325z
" />
    <glyph glyph-name="P" unicode="P" horiz-adv-x="651" 
d="M55 701h303q248 0 248 -200q0 -53 -24 -95t-62 -66t-79.5 -36.5t-81.5 -12.5q-66 0 -130 18v-251q0 -12 12 -14l78 -7v-37h-264v38l68 7q14 2 14 14v587q0 11 -13 13l-69 5v37zM229 658v-309q51 -20 120 -20q62 0 109.5 43.5t47.5 125.5q0 88 -44 130t-137 42
q-20 0 -44 -3t-38 -6z" />
    <glyph glyph-name="Q" unicode="Q" horiz-adv-x="738" 
d="M685 341q0 -138 -76 -238t-185 -113v-72q0 -44 13.5 -63.5t44.5 -19.5q28 0 48 15l15 -33q-47 -35 -100 -35q-90 0 -112 73q-10 33 -10 133q-129 10 -199.5 106t-70.5 243q0 74 19.5 140.5t58 120.5t101 85.5t142.5 31.5q79 0 140 -31.5t97.5 -85.5t55 -119t18.5 -138z
M375 21q29 0 55.5 7t55.5 28t50 55t35 92t14 134q0 95 -18 165t-49 107.5t-66.5 55t-76.5 17.5q-42 0 -79 -17.5t-70.5 -55t-53 -107.5t-19.5 -166q0 -76 15 -134.5t38 -92t54 -54t58.5 -27.5t56.5 -7z" />
    <glyph glyph-name="R" unicode="R" horiz-adv-x="692" 
d="M586 547q0 -85 -63 -128t-149 -45v-6q35 0 62 -4.5t52.5 -15.5t41 -33.5t19.5 -54.5l19 -180q4 -46 44 -46q23 0 41 11l14 -31q-33 -24 -92 -24q-61 0 -83 28q-17 21 -20 54l-18 178q-5 44 -33 73q-25 26 -95 26h-96v-294q0 -12 13 -12l70 -6v-37h-258v37l69 5
q14 0 14 13v594q0 12 -13 12l-70 4v36h231q155 0 227.5 -32.5t72.5 -121.5zM230 660v-274h81q72 0 123.5 37.5t51.5 112.5q0 133 -159 133q-52 0 -97 -9z" />
    <glyph glyph-name="S" unicode="S" horiz-adv-x="562" 
d="M478 486h-38q0 80 -25 122q-16 29 -52 48.5t-88 19.5q-59 0 -93 -31.5t-34 -83.5q0 -53 35.5 -88.5t130.5 -76.5q40 -17 61.5 -27.5t51.5 -30t45 -39t26 -49.5t11 -67q0 -91 -67.5 -142t-148.5 -51q-107 0 -181 81q-17 -21 -19 -74h-38v252h38q1 -103 58.5 -163
t132.5 -60q128 0 128 132q0 59 -36 94t-107 65q-51 22 -83.5 39t-66 42.5t-50 57.5t-16.5 72q0 84 59 133t147 49t158 -43q18 24 23 59h38v-240z" />
    <glyph glyph-name="T" unicode="T" horiz-adv-x="652" 
d="M456 36v-36h-259v36l70 5q6 0 9.5 4t3.5 8v607l-170 6q-9 0 -12 -13l-40 -171h-38l9 219h595l8 -219h-38l-36 173q-1 13 -13 13l-173 -8v-607q0 -12 12 -12z" />
    <glyph glyph-name="U" unicode="U" horiz-adv-x="768" 
d="M713 665l-71 -5q-12 -2 -12 -13v-452q0 -48 -15 -84.5t-38 -58.5t-55.5 -36t-64 -19t-66.5 -5q-47 0 -89.5 10.5t-80 33t-60 62.5t-22.5 94v456q0 13 -13 13l-71 4v36h259v-36l-70 -4q-13 0 -13 -13v-452q0 -81 45 -124t123 -43q83 0 136.5 41t53.5 121v456q0 11 -12 13
l-70 5v36h206v-36z" />
    <glyph glyph-name="V" unicode="V" horiz-adv-x="739" 
d="M709 701v-37l-75 -5q-12 0 -17 -12l-235 -657h-14l-255 657q-4 11 -16 11l-67 6v37h275v-37l-75 -6q-9 -2 -9 -10q0 -1 5 -16l173 -484l166 472q9 27 9 29q0 10 -10 10l-72 5v37h217z" />
    <glyph glyph-name="W" unicode="W" horiz-adv-x="1118" 
d="M873 701h215v-36l-71 -4q-11 0 -15 -13l-226 -659h-15l-202 521l-179 -521h-15l-250 650q-10 18 -19 19l-66 6v37h274v-36l-77 -7q-9 0 -9 -9q0 -4 7 -23l169 -473l142 415l-29 80q-5 11 -18 12l-65 5v36h275v-36l-72 -8q-11 -2 -11 -11q0 -5 8 -26l168 -467l161 478
q6 21 6 22q0 8 -10 8l-76 4v36z" />
    <glyph glyph-name="X" unicode="X" horiz-adv-x="685" 
d="M638 665l-68 -5q-14 -2 -21 -13l-165 -278l179 -314q7 -13 18 -13l74 -5v-37h-267v36l63 4q10 0 10 9q0 3 -3 8l-138 243l-142 -235q-7 -12 -7 -18q0 -8 10 -8l70 -3v-36h-219v36l74 3q11 0 18 12l174 286l-180 312q-7 12 -19 12l-69 4v36h279v-36l-74 -3q-12 0 -12 -8
q0 -2 13 -26l129 -222l137 238q3 4 3 9q0 8 -11 8l-76 4v36h220v-36z" />
    <glyph glyph-name="Y" unicode="Y" horiz-adv-x="706" 
d="M676 701v-36l-77 -6q-13 -2 -17 -11l-174 -371v-220q0 -12 13 -13l88 -8v-36h-289v36l84 8q12 1 12 13v217l-193 376q-6 11 -17 11l-76 4v36h291v-36l-82 -4q-8 -1 -8 -10q2 -8 4 -12l156 -309l146 315q2 4 2 9q0 6 -11 6l-73 5v36h221z" />
    <glyph glyph-name="Z" unicode="Z" horiz-adv-x="555" 
d="M510 666l-371 -632l281 12q12 0 15 15l42 180h38l-20 -241h-454v35l365 631l-277 -10q-15 0 -15 -15v-158h-38l-36 218h470v-35z" />
    <glyph glyph-name="bracketleft" unicode="[" horiz-adv-x="277" 
d="M202 750v-38h-75v-999h75v-37h-162v1074h162z" />
    <glyph glyph-name="backslash" unicode="\" horiz-adv-x="467" 
d="M35 772l559 -911l-37 -26l-564 912z" />
    <glyph glyph-name="bracketright" unicode="]" horiz-adv-x="277" 
d="M75 713v37h162v-1074h-162v37h77v1000h-77z" />
    <glyph glyph-name="asciicircum" unicode="^" 
d="M519 323h-62l-168 319l-169 -319h-62l205 378h54z" />
    <glyph glyph-name="underscore" unicode="_" horiz-adv-x="232" 
d="M-2 -109v34h236v-34h-236z" />
    <glyph glyph-name="grave" unicode="`" horiz-adv-x="178" 
d="M0 647q0 15 18 28.5t34 13.5q15 0 28.5 -15.5t43.5 -61.5l54 -84l-31 -18l-74 57l-13.5 10.5l-12.5 9.5l-11 8.5l-10 8t-7.5 7t-6.5 7.5t-5 7t-4 7t-2 7t-1 8z" />
    <glyph glyph-name="a" unicode="a" horiz-adv-x="524" 
d="M439 42q24 0 44 69l29 -12q-28 -109 -108 -109t-80 88v16q-22 -40 -66.5 -72t-98.5 -32q-56 0 -88.5 29t-32.5 84q0 153 245 153h41v91q0 99 -83 99q-46 0 -88 -24v-91q-24 -6 -48 -6q-26 0 -35.5 12.5t-9.5 39.5q0 16 3 37q24 21 76 42t106 21q74 0 122.5 -32t48.5 -102
v-266q0 -35 23 -35zM324 152v74h-57q-72 0 -100 -28.5t-28 -82.5q0 -71 68 -71q36 0 70.5 32t46.5 76z" />
    <glyph glyph-name="b" unicode="b" horiz-adv-x="576" 
d="M538 247q0 -116 -58 -186.5t-156 -70.5q-108 0 -159 101l-60 -91h-20v695q0 11 -11 13l-69 6v36h172v-373q20 36 62.5 67.5t98.5 31.5q86 0 143 -60.5t57 -168.5zM306 29q65 0 98.5 54.5t33.5 154.5q0 200 -116 200q-51 0 -90 -40t-55 -83v-163q11 -44 45.5 -83.5
t83.5 -39.5z" />
    <glyph glyph-name="c" unicode="c" horiz-adv-x="475" 
d="M431 421q9 -22 9 -54q0 -51 -49 -51q-19 0 -47 8v94q-27 23 -77 23q-58 0 -93.5 -54t-35.5 -149t38.5 -146.5t104.5 -51.5q88 0 133 98l26 -14q-21 -63 -68.5 -98.5t-115.5 -35.5q-38 0 -73.5 11t-69.5 36t-54.5 73.5t-20.5 115.5q0 70 20.5 121.5t54.5 78t70.5 38.5
t76.5 12q92 0 171 -55z" />
    <glyph glyph-name="d" unicode="d" horiz-adv-x="602" 
d="M268 26q51 0 86 36t48 79v170q-15 57 -51.5 93t-84.5 36q-62 0 -95 -54.5t-33 -154.5q0 -94 34.5 -149.5t95.5 -55.5zM38 229q0 67 20 117t52.5 77t68 40t73.5 13q103 0 150 -87v306q0 11 -16 13l-62 6v36h170v-695q0 -11 12 -13l66 -6v-36h-171v75q-54 -89 -165 -89
q-34 0 -67 13t-63.5 40t-49 76t-18.5 114z" />
    <glyph glyph-name="e" unicode="e" horiz-adv-x="475" 
d="M432 269h-292v-7q-1 -7 -1.5 -17t-0.5 -17q0 -89 37.5 -139t105.5 -50q51 0 86 33t48 68l25 -9q-4 -18 -15.5 -39t-32.5 -45.5t-57.5 -40.5t-80.5 -16q-94 0 -155 60t-61 176q0 118 62.5 184t158.5 66q76 0 127.5 -37.5t51.5 -105.5q0 -29 -6 -64zM259 441q-46 0 -77 -33
t-39 -103h196q5 33 5 53q0 38 -22.5 60.5t-62.5 22.5z" />
    <glyph glyph-name="f" unicode="f" horiz-adv-x="333" 
d="M413 721q10 -23 10 -47q0 -23 -13.5 -37.5t-38.5 -14.5q-8 0 -40 4v88q-21 11 -52 11q-73 0 -73 -115v-138l117 -5v-33l-117 -4v-378q0 -11 12 -12l67 -4v-36h-250v36l66 3q13 0 13 13v378l-60 2v35l60 5v89q0 99 45 149t119 50q85 0 135 -39z" />
    <glyph glyph-name="g" unicode="g" horiz-adv-x="537" 
d="M446 298q0 -87 -57 -134.5t-146 -47.5q-50 0 -92 18q-26 -8 -41 -33.5t-15 -53.5q0 -55 38 -55q37 0 113.5 3t117.5 3q110 0 110 -112q0 -94 -64.5 -148t-163.5 -54q-104 0 -151 41t-47 101q0 55 35 91q-40 27 -40 95q0 48 20.5 85t54.5 55q-83 51 -83 145q0 73 55.5 126
t152.5 53q62 0 115 -27q56 32 110 32q38 0 67 -12q2 -4 2 -28q0 -60 -45 -60q-22 0 -41 7v54q-35 0 -63 -15q58 -58 58 -129zM243 151q103 0 103 147q0 67 -26.5 104.5t-76.5 37.5t-79 -38t-29 -103q0 -67 27 -107.5t81 -40.5zM138 -98q-8 0 -22 2q-25 -22 -25 -70
q0 -53 42.5 -77.5t112.5 -24.5q80 0 127 37t47 92q0 48 -65 48q-27 0 -102 -3.5t-115 -3.5z" />
    <glyph glyph-name="h" unicode="h" horiz-adv-x="641" 
d="M528 351v-299q0 -13 12 -13l66 -3v-36h-248v36l66 3q12 0 12 13v274q0 53 -22 85t-68 32t-83.5 -32.5t-55.5 -64.5v-294q0 -13 13 -13l65 -3v-36h-250v36l67 3q5 0 9 4.5t4 8.5v644q0 5 -3.5 9t-8.5 4l-68 5v35h172v-357q70 89 168 89q66 0 109.5 -33.5t43.5 -96.5z" />
    <glyph glyph-name="i" unicode="i" horiz-adv-x="319" 
d="M215 655q0 -30 -12.5 -42t-43.5 -12t-43.5 12t-12.5 42q0 29 12.5 41t43.5 12t43.5 -12t12.5 -41zM35 467h170v-414q0 -13 12 -13l67 -4v-36h-249v36l66 3q12 2 12 13v365q0 11 -10 12l-68 3v35z" />
    <glyph glyph-name="j" unicode="j" horiz-adv-x="306" 
d="M-90 -293q-10 20 -10 52q0 50 48 50q12 0 40 -4v-88q19 -9 53 -9q74 0 74 117v588q0 11 -13 12l-66 6v36h171v-603q0 -94 -46 -142t-121 -48q-88 0 -130 33zM216 654q0 -30 -12.5 -42t-43.5 -12t-43.5 12t-12.5 42q0 29 12.5 41t43.5 12t43.5 -12t12.5 -41z" />
    <glyph glyph-name="k" unicode="k" horiz-adv-x="592" 
d="M525 467v-36q-63 -2 -94 -32l-104 -98l159 -248q9 -11 17 -11l71 -6v-36h-252v36l51 5q5 0 5 8q0 3 -2 7l-118 183l-52 -50v-137q0 -12 13 -13l43 -3v-36h-227v36l67 3q12 0 12 12v647q0 12 -13 12l-66 4v35h171v-506l176 164q8 8 8 13q0 7 -7 7l-64 4v36h206z" />
    <glyph glyph-name="l" unicode="l" horiz-adv-x="311" 
d="M35 750h167v-693q0 -15 14 -16l60 -5v-36h-241v36l61 5q14 2 14 16v638q0 15 -15 15l-60 4v36z" />
    <glyph glyph-name="m" unicode="m" horiz-adv-x="947" 
d="M912 0h-248v36l62 3q6 0 10.5 4.5t4.5 8.5v285q0 45 -17.5 73t-66.5 28q-68 0 -138 -88v-297q0 -13 11 -13l67 -4v-36h-246v36l65 4q11 1 11 13v283q0 102 -83 102q-36 0 -76.5 -26.5t-61.5 -53.5v-305q0 -12 11 -13l65 -4v-36h-247v36l66 4q13 0 13 13v361q0 12 -12 13
l-67 4v36h171v-69q78 78 164 78q100 0 144 -87q85 87 170 87q66 0 107.5 -30.5t41.5 -89.5v-303q0 -12 13 -13l66 -4v-36z" />
    <glyph glyph-name="n" unicode="n" horiz-adv-x="640" 
d="M206 467v-80q76 89 171 89q61 0 105.5 -33.5t44.5 -104.5v-287q0 -12 12 -12l66 -3v-36h-248v36l66 3q12 2 12 13v272q0 56 -19 84.5t-64 28.5q-40 0 -83 -30.5t-63 -62.5v-291q0 -13 13 -13l64 -4v-36h-248v36l66 6q13 1 13 13v358q0 11 -12 13l-67 6v35h171z" />
    <glyph glyph-name="o" unicode="o" horiz-adv-x="539" 
d="M501 231q0 -115 -65 -178t-165 -63q-102 0 -167.5 60.5t-65.5 178.5q0 120 63.5 183.5t168.5 63.5t168 -62.5t63 -182.5zM271 25q130 0 130 202q0 106 -33.5 160t-97.5 54t-98 -54t-34 -159q0 -102 35.5 -152.5t97.5 -50.5z" />
    <glyph glyph-name="p" unicode="p" horiz-adv-x="604" 
d="M566 235q0 -123 -64 -184t-148 -61q-50 0 -91.5 24.5t-61.5 66.5v-351q0 -12 11 -12l67 -6v-36h-249v36l68 7q11 0 11 12v683q0 12 -12 13l-67 4v36h171v-93q65 102 168 102q83 0 140 -58.5t57 -182.5zM335 28q58 0 94.5 53.5t36.5 154.5q0 199 -124 199q-47 0 -85.5 -38
t-55.5 -80v-164q5 -42 43 -83.5t91 -41.5z" />
    <glyph glyph-name="q" unicode="q" horiz-adv-x="597" 
d="M35 229q0 70 20 121t53 77t68 37.5t74 11.5q107 0 160 -101l57 92h22v-737q0 -10 11 -12l67 -6v-36h-249v36l66 6q13 1 13 12v350q-24 -41 -68 -65.5t-100 -24.5q-35 0 -67 12t-61.5 37.5t-47.5 74.5t-18 115zM265 30q46 0 82 32t50 72v184q-16 55 -51 88.5t-83 33.5
q-62 0 -95 -53.5t-33 -153.5q0 -97 34 -150t96 -53z" />
    <glyph glyph-name="r" unicode="r" horiz-adv-x="453" 
d="M445 450q3 -21 3 -37q0 -62 -56 -62q-15 0 -36 3v76q-9 6 -30 6q-54 0 -120 -116v-267q0 -13 12 -13l66 -4v-36h-249v36l67 6q12 2 12 13v358q0 13 -12 13l-67 5v36h171v-96q67 110 148 110q57 0 91 -31z" />
    <glyph glyph-name="s" unicode="s" horiz-adv-x="423" 
d="M368 482v-154h-36q0 7 -4 31q-18 82 -112 82q-37 0 -59.5 -20t-22.5 -54q0 -32 25 -55t90 -49q68 -27 103.5 -57.5t35.5 -83.5q0 -64 -50 -98t-116 -34q-38 0 -71.5 12t-48 22.5t-18.5 16.5q-8 -16 -15 -51h-34v175h35q2 -73 43 -106.5t93 -33.5q40 0 62 19.5t22 54.5
q0 34 -18.5 52t-66.5 39q-81 35 -123.5 70.5t-42.5 90.5q0 59 43 92t115 33t125 -35q8 16 10 41h36z" />
    <glyph glyph-name="t" unicode="t" horiz-adv-x="393" 
d="M179 559v-92h156v-37h-156v-307q0 -48 16.5 -68.5t50.5 -20.5q31 0 56 21.5t35.5 42.5t16.5 43l29 -12q-15 -60 -54.5 -99.5t-103.5 -39.5q-67 0 -102.5 32.5t-35.5 84.5v323l-67 7v25l67 5l30 92h62z" />
    <glyph glyph-name="u" unicode="u" horiz-adv-x="624" 
d="M341 467h170v-415q0 -13 12 -13l66 -3v-36h-170v100q-23 -45 -65.5 -77.5t-101.5 -32.5q-154 0 -154 143v281q0 10 -11 12l-67 5v36h170v-304q0 -70 17 -103.5t65 -33.5q47 0 88.5 40.5t58.5 95.5v252q0 11 -11 13l-67 4v36z" />
    <glyph glyph-name="v" unicode="v" horiz-adv-x="559" 
d="M466 416l-164 -425h-29l-181 422q-6 12 -16 12l-61 6v36h248v-36l-60 -4q-10 0 -10 -10q0 -3 5 -16l117 -282l105 281q6 14 6 18q0 9 -8 10l-62 3v36h188v-36l-62 -3q-11 -1 -16 -12z" />
    <glyph glyph-name="w" unicode="w" horiz-adv-x="848" 
d="M833 431l-56 -4q-11 0 -17 -10l-176 -426h-21l-131 323l-142 -323h-21l-179 425q-5 11 -18 12l-57 3v36h241v-36l-58 -3q-10 0 -10 -8q0 -2 5 -15l118 -278l104 235l-23 53q-5 10 -16 12l-53 4v36h233v-36l-58 -4q-10 0 -10 -10q0 -4 5 -14l110 -276l114 280q3 6 3 9
q0 8 -9 10l-56 5v36h178v-36z" />
    <glyph glyph-name="x" unicode="x" horiz-adv-x="565" 
d="M538 431l-73 -3q-9 0 -14 -9l-125 -160l145 -212q5 -9 17 -9l57 -2v-36h-262v36l66 4q9 0 9 6q0 1 -8 13l-90 133l-100 -131q-9 -11 -9 -14q0 -4 7 -4l73 -7v-36h-211v36l66 7q12 1 19 10l132 174l-131 192q-7 9 -14 9l-66 3v36h266v-35l-73 -3q-4 0 -4 -5q0 -4 6 -12
l83 -121l89 114q12 15 12 18q0 5 -6 5l-72 3v36h211v-36z" />
    <glyph glyph-name="y" unicode="y" horiz-adv-x="584" 
d="M480 400l-200 -566q-30 -85 -59.5 -120t-84.5 -35q-45 0 -72 20.5t-27 60.5q0 28 20 48t53 20q19 0 33 -4v-95q9 -3 24 -3q32 0 55 65l51 143l-174 479q-4 11 -16 12l-68 6v36h256v-36l-69 -4q-9 0 -9 -8q0 -7 8 -26l116 -334l120 341q5 13 5 18q0 9 -8 10l-64 3v36h199
v-36l-67 -3q-11 0 -16 -12z" />
    <glyph glyph-name="z" unicode="z" horiz-adv-x="441" 
d="M398 441l-258 -407l178 10q15 0 19 14l31 137h38l-14 -195h-357v24l252 405l-172 -7q-13 0 -13 -16l-7 -124h-38l-20 185h361v-26z" />
    <glyph glyph-name="braceleft" unicode="{" horiz-adv-x="345" 
d="M267 749l3 -34q-91 -2 -91 -77v-305q0 -15 -4 -32t-13.5 -38t-32 -34.5t-53.5 -13.5v-5q41 -1 66 -25.5t31 -48t6 -46.5v-280q0 -50 19.5 -72t71.5 -23l-3 -36q-10 -2 -28 -2q-64 0 -108.5 31.5t-44.5 93.5v317q0 70 -56 75v35q27 2 41.5 18.5t14.5 39.5v327
q0 58 46.5 97t115.5 39h8.5h7.5z" />
    <glyph glyph-name="bar" unicode="|" horiz-adv-x="247" 
d="M147 750v-930h-47v930h47z" />
    <glyph glyph-name="braceright" unicode="}" horiz-adv-x="345" 
d="M75 715l3 35h19q69 0 115.5 -39t46.5 -97v-327q0 -23 14.5 -39.5t41.5 -18.5v-35q-56 -5 -56 -75v-317q0 -62 -44.5 -93.5t-108.5 -31.5h-28l-3 38q52 1 71.5 23t19.5 72v280q0 23 6 46.5t31 48t66 25.5v5q-31 0 -53.5 13.5t-32 34.5t-13.5 38t-4 32v305q0 75 -91 77z
" />
    <glyph glyph-name="asciitilde" unicode="~" 
d="M496 350l38 -33q-62 -102 -151 -102q-12 0 -22 1.5t-21 6.5t-16.5 8t-19.5 12t-19 12q-62 38 -91 38q-64 0 -113 -58l-37 35q33 52 70 78t87 26q41 0 100 -40q43 -28 67 -33q11 -2 24 -2q34 0 55.5 12t48.5 39z" />
    <glyph glyph-name="nbspace" unicode="&#xa0;" horiz-adv-x="280" 
 />
    <glyph glyph-name="sterling" unicode="&#xa3;" horiz-adv-x="568" 
d="M58 343v36h56q-34 73 -34 150q0 93 59 141.5t159 48.5q99 0 158 -44.5t59 -95.5q0 -21 -11 -33q-13 -14 -44 -14q-21 0 -48 9v114q-39 29 -104 29q-62 0 -95 -37.5t-33 -111.5q0 -78 23 -156h256v-36h-245q28 -100 28 -178q0 -30 -6 -70q94 -15 145 -15q55 0 77 32
q8 11 14.5 26t8.5 24l2 10l32 -11q-2 -13 -6 -30q-37 -141 -145 -141q-63 0 -153 47q-32 -47 -82 -47q-39 0 -57.5 16.5t-18.5 42.5t16 44.5t48 18.5q9 0 85 -12q3 19 3 52q-1 19 -5 38.5t-7 32t-13.5 33.5t-13.5 27.5t-17 31.5t-16 28h-75zM129 22q33 0 54 30
q-50 27 -65 27q-29 0 -29 -28q0 -13 11 -21t29 -8z" />
    <glyph glyph-name="currency" unicode="&#xa4;" horiz-adv-x="696" 
d="M100 292v37h82v317q0 11 -13 13l-69 5v37h303q248 0 248 -200q0 -59 -26.5 -102.5t-69.5 -65.5t-85 -31.5t-84 -9.5h-112v-39h348v-37h-348v-158q0 -12 12 -14l78 -7v-37h-264v38l68 7q14 2 14 14v157h-82v37h82v39h-82zM274 658v-329h110q69 0 118 43t49 126
q0 88 -44 130t-137 42q-20 0 -44 -3t-38 -6z" />
    <glyph glyph-name="section" unicode="&#xa7;" horiz-adv-x="523" 
d="M241 760q21 0 44 -3t50 -10.5t44.5 -24t17.5 -39.5q0 -19 -11 -31.5t-31 -12.5q-17 0 -44 3v76q-26 10 -65 10q-44 0 -73 -21.5t-29 -62.5q0 -10 2.5 -18.5t10.5 -17l14 -14.5t20.5 -15.5l23.5 -15l29 -17.5t31 -18q74 -43 111 -80.5t37 -85.5q0 -44 -35.5 -85
t-112.5 -57q28 -13 45 -22.5t37 -24.5t29.5 -34.5t9.5 -43.5q0 -69 -61 -113t-145 -44q-39 0 -73.5 6t-63.5 25t-29 50q0 24 17 38.5t43 14.5q12 0 27 -3v-86q28 -14 75 -14q48 0 82 23t34 69q0 39 -29 64.5t-90 54.5q-88 41 -133 79.5t-45 94.5q0 50 45.5 88.5t105.5 54.5
q-31 18 -44 26.5t-32 24.5t-26 33t-7 39q0 60 52 100t142 40zM323 349q0 42 -36.5 73.5t-105.5 62.5q-78 -28 -78 -109q0 -42 37.5 -74.5t110.5 -66.5q34 11 53 43.5t19 70.5z" />
    <glyph glyph-name="dieresis" unicode="&#xa8;" horiz-adv-x="315" 
d="M71 637q20 0 33 -12.5t13 -34.5q0 -23 -14.5 -35.5t-31.5 -12.5q-55 0 -55 48q0 47 55 47zM252 637q21 0 33.5 -12t12.5 -35t-14.5 -35.5t-31.5 -12.5q-55 0 -55 48q0 47 55 47z" />
    <glyph glyph-name="copyright" unicode="&#xa9;" horiz-adv-x="912" 
d="M96 368q0 -144 96.5 -243t237.5 -99q143 0 239 99t96 243t-96.5 244t-238.5 100q-141 0 -237.5 -100.5t-96.5 -243.5zM50 368q0 158 111 270.5t269 112.5q159 0 270.5 -112.5t111.5 -270.5t-111.5 -269.5t-270.5 -111.5q-158 0 -269 111.5t-111 269.5zM613 558
q4 -10 4 -27q0 -30 -42 -30q-18 0 -30 2v70q-29 30 -92 30q-62 0 -106 -59t-44 -170q0 -113 45 -168t113 -55q47 0 81.5 23t51.5 51l21 -15q-17 -38 -66.5 -70.5t-116.5 -32.5q-83 0 -150.5 64.5t-67.5 190.5q0 131 69 201t166 70q62 0 108 -22.5t56 -52.5z" />
    <glyph glyph-name="guillemotleft" unicode="&#xab;" horiz-adv-x="452" 
d="M352 120l24 27q-51 68 -104 105v4q25 18 56 51t49 57l-27 27q-26 -27 -74.5 -67t-76.5 -50v-42q29 -11 79.5 -49.5t73.5 -62.5zM277 464l27 -27q-38 -56 -183 -183v-4q134 -107 183 -178l-27 -28q-176 162 -247 186v45q31 10 108.5 71.5t138.5 117.5z" />
    <glyph glyph-name="logicalnot" unicode="&#xac;" 
d="M76 291v56h424v-256h-50v200h-374z" />
    <glyph glyph-name="registered" unicode="&#xae;" horiz-adv-x="770" 
d="M115 393q0 -118 77 -194.5t191 -76.5q113 0 190.5 76.5t77.5 194.5t-77 195t-191 77q-115 0 -191.5 -77t-76.5 -195zM75 393q0 134 88.5 221t219.5 87q129 0 218 -87t89 -221t-89 -220.5t-218 -86.5q-131 0 -219.5 86.5t-88.5 220.5zM519 490q0 -43 -28.5 -65.5
t-59.5 -23.5v-4q43 -5 59 -21.5t16 -62.5q0 -7 -1.5 -29t-1.5 -30q0 -20 20 -20q13 0 28 12l8 -13q-21 -21 -57 -21q-56 0 -56 44q0 10 1 30.5t1 25.5q0 26 -4.5 41.5t-15.5 22t-20.5 8t-28.5 1.5h-42v-135q0 -13 6 -13l33 -2v-17h-134v17l34 2q8 0 8 8v306q0 10 -6 12
l-36 3v16h134q66 0 104.5 -23.5t38.5 -68.5zM337 565v-163h43q79 0 79 88q0 44 -22.5 60t-68.5 16h-12.5h-13.5z" />
    <glyph glyph-name="macron" unicode="&#xaf;" horiz-adv-x="278" 
d="M0 529v46h278v-46h-278z" />
    <glyph glyph-name="degree" unicode="&#xb0;" horiz-adv-x="358" 
d="M123 577q0 -37 22 -61t55 -24t55.5 24t22.5 61q0 38 -21.5 62.5t-56.5 24.5t-56 -24.5t-21 -62.5zM75 577q0 53 36.5 89t88.5 36q51 0 87 -36.5t36 -88.5q0 -50 -36 -86.5t-87 -36.5q-53 0 -89 35.5t-36 87.5z" />
    <glyph glyph-name="plusminus" unicode="&#xb1;" 
d="M35 270v51h225v186h52v-186h226v-51h-226v-186h-52v186h-225zM35 0v51h507v-51h-507z" />
    <glyph glyph-name="acute" unicode="&#xb4;" horiz-adv-x="179" 
d="M179 651q0 -13 -10 -26.5t-22 -24t-42 -33.5l-74 -57l-31 18l54 84q29 48 42 62.5t30 14.5t35 -12t18 -26z" />
    <glyph glyph-name="paragraph" unicode="&#xb6;" horiz-adv-x="641" 
d="M377 0h-40v282q-137 0 -212.5 48t-75.5 164q0 115 76 161t209 46h227v-36l-76 -3q-12 0 -16 -13v-649h-40v662h-52v-662z" />
    <glyph glyph-name="cedilla" unicode="&#xb8;" horiz-adv-x="165" 
d="M83 39h30l-32 -76q84 1 84 -69q0 -48 -29.5 -75t-71.5 -27q-35 0 -64 13l10 29q23 -7 44 -7t32 16t11 38q0 37 -37 37q-10 0 -20 -2l-4 20z" />
    <glyph glyph-name="guillemotright" unicode="&#xbb;" horiz-adv-x="452" 
d="M100 120l-24 27q51 68 104 105v4q-25 18 -56 51t-49 57l27 27q26 -27 74.5 -67t76.5 -50v-42q-29 -11 -79.5 -49.5t-73.5 -62.5zM148 437l27 27q61 -56 138.5 -117.5t108.5 -71.5v-45q-71 -24 -247 -186l-27 28q49 71 183 178v4q-145 127 -183 183z" />
    <glyph glyph-name="Agrave" unicode="&#xc0;" horiz-adv-x="717" 
d="M702 0h-271v37l70 5q10 0 10 9q0 4 -5 17l-53 159h-238l-53 -149q-8 -19 -8 -27q0 -10 16 -10l63 -4v-37h-217v37l74 5q17 1 25 25l240 662h21l233 -674q4 -10 15 -11l78 -7v-37zM339 571l-111 -306h213zM249 806q0 16 14.5 31t28.5 15q21 0 80 -42l70 -49l-29 -21
l-79 23q-50 14 -67.5 22t-17.5 21z" />
    <glyph glyph-name="Aacute" unicode="&#xc1;" horiz-adv-x="717" 
d="M702 0h-271v37l70 5q10 0 10 9q0 4 -5 17l-53 159h-238l-53 -149q-8 -19 -8 -27q0 -10 16 -10l63 -4v-37h-217v37l74 5q17 1 25 25l240 662h21l233 -674q4 -10 15 -11l78 -7v-37zM339 571l-111 -306h213zM473 815q0 -13 -17.5 -21t-67.5 -22l-79 -23l-29 21l70 49
q59 42 80 42q14 0 28.5 -15t14.5 -31z" />
    <glyph glyph-name="Acircumflex" unicode="&#xc2;" horiz-adv-x="717" 
d="M702 0h-271v37l70 5q10 0 10 9q0 4 -5 17l-53 159h-238l-53 -149q-8 -19 -8 -27q0 -10 16 -10l63 -4v-37h-217v37l74 5q17 1 25 25l240 662h21l233 -674q4 -10 15 -11l78 -7v-37zM339 571l-111 -306h213zM497 777l-25 -27l-107 52l-103 -49l-22 26q69 53 106 91h45
q46 -48 106 -93z" />
    <glyph glyph-name="Atilde" unicode="&#xc3;" horiz-adv-x="717" 
d="M702 0h-271v37l70 5q10 0 10 9q0 4 -5 17l-53 159h-238l-53 -149q-8 -19 -8 -27q0 -10 16 -10l63 -4v-37h-217v37l74 5q17 1 25 25l240 662h21l233 -674q4 -10 15 -11l78 -7v-37zM339 571l-111 -306h213zM507 830l25 -21q-61 -69 -121 -69q-23 0 -69 27q-40 25 -57 25
q-24 0 -56 -39l-25 24q57 70 121 70q30 0 66 -26q38 -24 60 -24q21 0 56 33z" />
    <glyph glyph-name="Adieresis" unicode="&#xc4;" horiz-adv-x="717" 
d="M702 0h-271v37l70 5q10 0 10 9q0 4 -5 17l-53 159h-238l-53 -149q-8 -19 -8 -27q0 -10 16 -10l63 -4v-37h-217v37l74 5q17 1 25 25l240 662h21l233 -674q4 -10 15 -11l78 -7v-37zM339 571l-111 -306h213zM281 845q20 0 33 -12.5t13 -34.5q0 -23 -14.5 -35.5t-31.5 -12.5
q-55 0 -55 48q0 47 55 47zM462 845q21 0 33.5 -12t12.5 -35t-14.5 -35.5t-31.5 -12.5q-55 0 -55 48q0 47 55 47z" />
    <glyph glyph-name="Aring" unicode="&#xc5;" horiz-adv-x="717" 
d="M702 0h-271v37l70 5q10 0 10 9q0 4 -5 17l-53 159h-238l-53 -149q-8 -19 -8 -27q0 -10 16 -10l63 -4v-37h-217v37l74 5q17 1 25 25l240 662h21l233 -674q4 -10 15 -11l78 -7v-37zM339 571l-111 -306h213zM339 814q0 -20 10.5 -31t26.5 -11t26.5 11.5t10.5 30.5
q0 20 -10.5 31t-26.5 11t-26.5 -11t-10.5 -31zM302 814q0 31 21.5 52.5t52.5 21.5t52.5 -21.5t21.5 -52.5t-21.5 -52.5t-52.5 -21.5t-52.5 21.5t-21.5 52.5z" />
    <glyph glyph-name="AE" unicode="&#xc6;" horiz-adv-x="899" 
d="M864 701l-41 -195h-37v148q0 11 -10 11l-251 -9v-277h79q60 0 60 124h38v-284h-36q0 124 -63 124h-78v-296l225 -10q19 0 22 17l27 161h38v-215h-486v37l71 3q11 0 11 12v175h-190l-73 -149q-7 -15 -7 -24q0 -12 16 -13l53 -4v-37h-216v37l74 5q12 1 25 25l293 583
q4 9 -6 9l-51 4v38h513zM433 613l-172 -348h172v348z" />
    <glyph glyph-name="Ccedilla" unicode="&#xc7;" horiz-adv-x="646" 
d="M531 650q12 20 15 46h38v-201h-38q-8 65 -31 102q-45 75 -142 75q-99 0 -160 -79.5t-61 -243.5q0 -83 19.5 -144t53.5 -94.5t72.5 -49.5t81.5 -16q66 0 115.5 34.5t78.5 76.5l28 -23q-32 -53 -90 -96.5t-148 -45.5l-12 -28q84 1 84 -69q0 -48 -29.5 -75t-71.5 -27
q-35 0 -64 13l10 29q23 -7 44 -7t32 16t11 38q0 47 -57 35l-4 20l25 56q-52 4 -99 23.5t-88.5 58t-66 106t-24.5 155.5q0 181 88 278t213 97q107 0 177 -60z" />
    <glyph glyph-name="Egrave" unicode="&#xc8;" horiz-adv-x="623" 
d="M547 506h-37v148q0 11 -10 11l-271 -9v-277h99q60 0 60 124h38v-284h-36q0 124 -63 124h-98v-296l245 -10q19 0 22 17l27 161h38v-215h-506v37l71 3q11 0 11 12v594q0 12 -12 12l-70 5v38h533zM228 806q0 16 14.5 31t28.5 15q21 0 80 -42l70 -49l-29 -21l-79 23
q-50 14 -67.5 22t-17.5 21z" />
    <glyph glyph-name="Eacute" unicode="&#xc9;" horiz-adv-x="623" 
d="M547 506h-37v148q0 11 -10 11l-271 -9v-277h99q60 0 60 124h38v-284h-36q0 124 -63 124h-98v-296l245 -10q19 0 22 17l27 161h38v-215h-506v37l71 3q11 0 11 12v594q0 12 -12 12l-70 5v38h533zM442 806q0 -13 -17.5 -21t-67.5 -22l-79 -23l-29 21l70 49q59 42 80 42
q14 0 28.5 -15t14.5 -31z" />
    <glyph glyph-name="Ecircumflex" unicode="&#xca;" horiz-adv-x="623" 
d="M547 506h-37v148q0 11 -10 11l-271 -9v-277h99q60 0 60 124h38v-284h-36q0 124 -63 124h-98v-296l245 -10q19 0 22 17l27 161h38v-215h-506v37l71 3q11 0 11 12v594q0 12 -12 12l-70 5v38h533zM463 774l-25 -27l-107 52l-103 -49l-22 26q69 53 106 91h45q46 -48 106 -93z
" />
    <glyph glyph-name="Edieresis" unicode="&#xcb;" horiz-adv-x="623" 
d="M547 506h-37v148q0 11 -10 11l-271 -9v-277h99q60 0 60 124h38v-284h-36q0 124 -63 124h-98v-296l245 -10q19 0 22 17l27 161h38v-215h-506v37l71 3q11 0 11 12v594q0 12 -12 12l-70 5v38h533zM252 835q20 0 33 -12.5t13 -34.5q0 -23 -14.5 -35.5t-31.5 -12.5
q-55 0 -55 48q0 47 55 47zM433 835q21 0 33.5 -12t12.5 -35t-14.5 -35.5t-31.5 -12.5q-55 0 -55 48q0 47 55 47z" />
    <glyph glyph-name="Igrave" unicode="&#xcc;" horiz-adv-x="376" 
d="M60 701h256v-38l-70 -4q-12 0 -12 -13v-592q0 -12 12 -12l70 -5v-37h-256v37l70 4q12 0 12 13v592q0 13 -11 13l-71 4v38zM91 806q0 16 14.5 31t28.5 15q21 0 80 -42l70 -49l-29 -21l-79 23q-50 14 -67.5 22t-17.5 21z" />
    <glyph glyph-name="Iacute" unicode="&#xcd;" horiz-adv-x="376" 
d="M60 701h256v-38l-70 -4q-12 0 -12 -13v-592q0 -12 12 -12l70 -5v-37h-256v37l70 4q12 0 12 13v592q0 13 -11 13l-71 4v38zM287 807q0 -13 -17.5 -21t-67.5 -22l-79 -23l-29 21l70 49q59 42 80 42q14 0 28.5 -15t14.5 -31z" />
    <glyph glyph-name="Icircumflex" unicode="&#xce;" horiz-adv-x="376" 
d="M60 701h256v-38l-70 -4q-12 0 -12 -13v-592q0 -12 12 -12l70 -5v-37h-256v37l70 4q12 0 12 13v592q0 13 -11 13l-71 4v38zM317 774l-25 -27l-107 52l-103 -49l-22 26q69 53 106 91h45q46 -48 106 -93z" />
    <glyph glyph-name="Idieresis" unicode="&#xcf;" horiz-adv-x="376" 
d="M60 701h256v-38l-70 -4q-12 0 -12 -13v-592q0 -12 12 -12l70 -5v-37h-256v37l70 4q12 0 12 13v592q0 13 -11 13l-71 4v38zM105 835q20 0 33 -12.5t13 -34.5q0 -23 -14.5 -35.5t-31.5 -12.5q-55 0 -55 48q0 47 55 47zM286 835q21 0 33.5 -12t12.5 -35t-14.5 -35.5
t-31.5 -12.5q-55 0 -55 48q0 47 55 47z" />
    <glyph glyph-name="Ntilde" unicode="&#xd1;" horiz-adv-x="763" 
d="M626 -12h-32l-417 648v-582q0 -13 12 -13l70 -4v-37h-204v37l65 4q13 0 13 13v593q0 12 -12 12l-66 5v37h196l332 -528v473q0 12 -11 13l-71 5v37h207v-37l-69 -5q-13 -2 -13 -12v-659zM536 830l25 -21q-61 -69 -121 -69q-23 0 -69 27q-40 25 -57 25q-24 0 -56 -39
l-25 24q57 70 121 70q30 0 66 -26q38 -24 60 -24q21 0 56 33z" />
    <glyph glyph-name="Ograve" unicode="&#xd2;" horiz-adv-x="738" 
d="M685 343q0 -91 -25.5 -161t-69.5 -111t-99 -61.5t-118 -20.5q-69 0 -125.5 19.5t-101 60.5t-69 110.5t-24.5 163.5q0 185 88 276t232 91q143 0 227.5 -91t84.5 -276zM373 25q97 0 154.5 79.5t57.5 246.5q0 326 -212 326q-101 0 -160.5 -78t-59.5 -249q0 -325 220 -325z
M253 806q0 16 14.5 31t28.5 15q21 0 80 -42l70 -49l-29 -21l-79 23q-50 14 -67.5 22t-17.5 21z" />
    <glyph glyph-name="Oacute" unicode="&#xd3;" horiz-adv-x="738" 
d="M685 343q0 -91 -25.5 -161t-69.5 -111t-99 -61.5t-118 -20.5q-69 0 -125.5 19.5t-101 60.5t-69 110.5t-24.5 163.5q0 185 88 276t232 91q143 0 227.5 -91t84.5 -276zM373 25q97 0 154.5 79.5t57.5 246.5q0 326 -212 326q-101 0 -160.5 -78t-59.5 -249q0 -325 220 -325z
M473 806q0 -13 -17.5 -21t-67.5 -22l-79 -23l-29 21l70 49q59 42 80 42q14 0 28.5 -15t14.5 -31z" />
    <glyph glyph-name="Ocircumflex" unicode="&#xd4;" horiz-adv-x="738" 
d="M685 343q0 -91 -25.5 -161t-69.5 -111t-99 -61.5t-118 -20.5q-69 0 -125.5 19.5t-101 60.5t-69 110.5t-24.5 163.5q0 185 88 276t232 91q143 0 227.5 -91t84.5 -276zM373 25q97 0 154.5 79.5t57.5 246.5q0 326 -212 326q-101 0 -160.5 -78t-59.5 -249q0 -325 220 -325z
M497 776l-25 -27l-107 52l-103 -49l-22 26q69 53 106 91h45q46 -48 106 -93z" />
    <glyph glyph-name="Otilde" unicode="&#xd5;" horiz-adv-x="738" 
d="M685 343q0 -91 -25.5 -161t-69.5 -111t-99 -61.5t-118 -20.5q-69 0 -125.5 19.5t-101 60.5t-69 110.5t-24.5 163.5q0 185 88 276t232 91q143 0 227.5 -91t84.5 -276zM373 25q97 0 154.5 79.5t57.5 246.5q0 326 -212 326q-101 0 -160.5 -78t-59.5 -249q0 -325 220 -325z
M512 830l25 -21q-61 -69 -121 -69q-23 0 -69 27q-40 25 -57 25q-24 0 -56 -39l-25 24q57 70 121 70q30 0 66 -26q38 -24 60 -24q21 0 56 33z" />
    <glyph glyph-name="Odieresis" unicode="&#xd6;" horiz-adv-x="738" 
d="M685 343q0 -91 -25.5 -161t-69.5 -111t-99 -61.5t-118 -20.5q-69 0 -125.5 19.5t-101 60.5t-69 110.5t-24.5 163.5q0 185 88 276t232 91q143 0 227.5 -91t84.5 -276zM373 25q97 0 154.5 79.5t57.5 246.5q0 326 -212 326q-101 0 -160.5 -78t-59.5 -249q0 -325 220 -325z
M285 835q20 0 33 -12.5t13 -34.5q0 -23 -14.5 -35.5t-31.5 -12.5q-55 0 -55 48q0 47 55 47zM466 835q21 0 33.5 -12t12.5 -35t-14.5 -35.5t-31.5 -12.5q-55 0 -55 48q0 47 55 47z" />
    <glyph glyph-name="multiply" unicode="&#xd7;" 
d="M54 484l36 35l199 -198l198 198l35 -35l-197 -198l198 -197l-35 -36l-198 196l-201 -201l-36 36l200 202z" />
    <glyph glyph-name="Ugrave" unicode="&#xd9;" horiz-adv-x="768" 
d="M713 665l-71 -5q-12 -2 -12 -13v-452q0 -48 -15 -84.5t-38 -58.5t-55.5 -36t-64 -19t-66.5 -5q-47 0 -89.5 10.5t-80 33t-60 62.5t-22.5 94v456q0 13 -13 13l-71 4v36h259v-36l-70 -4q-13 0 -13 -13v-452q0 -81 45 -124t123 -43q83 0 136.5 41t53.5 121v456q0 11 -12 13
l-70 5v36h206v-36zM303 806q0 16 14.5 31t28.5 15q21 0 80 -42l70 -49l-29 -21l-79 23q-50 14 -67.5 22t-17.5 21z" />
    <glyph glyph-name="Uacute" unicode="&#xda;" horiz-adv-x="768" 
d="M713 665l-71 -5q-12 -2 -12 -13v-452q0 -48 -15 -84.5t-38 -58.5t-55.5 -36t-64 -19t-66.5 -5q-47 0 -89.5 10.5t-80 33t-60 62.5t-22.5 94v456q0 13 -13 13l-71 4v36h259v-36l-70 -4q-13 0 -13 -13v-452q0 -81 45 -124t123 -43q83 0 136.5 41t53.5 121v456q0 11 -12 13
l-70 5v36h206v-36zM536 807q0 -13 -17.5 -21t-67.5 -22l-79 -23l-29 21l70 49q59 42 80 42q14 0 28.5 -15t14.5 -31z" />
    <glyph glyph-name="Ucircumflex" unicode="&#xdb;" horiz-adv-x="768" 
d="M713 665l-71 -5q-12 -2 -12 -13v-452q0 -48 -15 -84.5t-38 -58.5t-55.5 -36t-64 -19t-66.5 -5q-47 0 -89.5 10.5t-80 33t-60 62.5t-22.5 94v456q0 13 -13 13l-71 4v36h259v-36l-70 -4q-13 0 -13 -13v-452q0 -81 45 -124t123 -43q83 0 136.5 41t53.5 121v456q0 11 -12 13
l-70 5v36h206v-36zM539 777l-25 -27l-107 52l-103 -49l-22 26q69 53 106 91h45q46 -48 106 -93z" />
    <glyph glyph-name="Udieresis" unicode="&#xdc;" horiz-adv-x="768" 
d="M713 665l-71 -5q-12 -2 -12 -13v-452q0 -48 -15 -84.5t-38 -58.5t-55.5 -36t-64 -19t-66.5 -5q-47 0 -89.5 10.5t-80 33t-60 62.5t-22.5 94v456q0 13 -13 13l-71 4v36h259v-36l-70 -4q-13 0 -13 -13v-452q0 -81 45 -124t123 -43q83 0 136.5 41t53.5 121v456q0 11 -12 13
l-70 5v36h206v-36zM334 836q20 0 33 -12.5t13 -34.5q0 -23 -14.5 -35.5t-31.5 -12.5q-55 0 -55 48q0 47 55 47zM515 836q21 0 33.5 -12t12.5 -35t-14.5 -35.5t-31.5 -12.5q-55 0 -55 48q0 47 55 47z" />
    <glyph glyph-name="Yacute" unicode="&#xdd;" horiz-adv-x="706" 
d="M676 701v-36l-77 -6q-13 -2 -17 -11l-174 -371v-220q0 -12 13 -13l88 -8v-36h-289v36l84 8q12 1 12 13v217l-193 376q-6 11 -17 11l-76 4v36h291v-36l-82 -4q-8 -1 -8 -10q2 -8 4 -12l156 -309l146 315q2 4 2 9q0 6 -11 6l-73 5v36h221zM520 806q0 -13 -17.5 -21
t-67.5 -22l-79 -23l-29 21l70 49q59 42 80 42q14 0 28.5 -15t14.5 -31z" />
    <glyph glyph-name="germandbls" unicode="&#xdf;" horiz-adv-x="592" 
d="M83 52v478q0 106 61.5 161.5t171.5 55.5q91 0 149.5 -49t58.5 -132q0 -76 -42.5 -112.5t-118.5 -47.5q93 -15 138 -64.5t45 -153.5q0 -95 -62 -147.5t-151 -52.5q-39 0 -72 12.5t-48 25.5q-3 21 -3 37q0 27 9.5 39.5t35.5 12.5q24 0 48 -6v-83q8 -5 30 -5q113 0 113 169
q0 96 -28.5 146.5t-114.5 50.5h-67v35h71q64 0 91.5 36.5t27.5 106.5q0 157 -113 157q-43 0 -71 -14t-42 -41.5t-19 -57t-5 -71.5v-435v-103h-171v36l66 6q11 2 12 10z" />
    <glyph glyph-name="agrave" unicode="&#xe0;" horiz-adv-x="524" 
d="M439 42q24 0 44 69l29 -12q-28 -109 -108 -109t-80 88v16q-22 -40 -66.5 -72t-98.5 -32q-56 0 -88.5 29t-32.5 84q0 153 245 153h41v91q0 99 -83 99q-46 0 -88 -24v-91q-24 -6 -48 -6q-26 0 -35.5 12.5t-9.5 39.5q0 16 3 37q24 21 76 42t106 21q74 0 122.5 -32t48.5 -102
v-266q0 -35 23 -35zM324 152v74h-57q-72 0 -100 -28.5t-28 -82.5q0 -71 68 -71q36 0 70.5 32t46.5 76zM145 647q0 15 18 28.5t34 13.5q15 0 28.5 -15.5t43.5 -61.5l54 -84l-31 -18l-74 57l-13.5 10.5l-12.5 9.5l-11 8.5l-10 8t-7.5 7t-6.5 7.5t-5 7t-4 7t-2 7t-1 8z" />
    <glyph glyph-name="aacute" unicode="&#xe1;" horiz-adv-x="524" 
d="M439 42q24 0 44 69l29 -12q-28 -109 -108 -109t-80 88v16q-22 -40 -66.5 -72t-98.5 -32q-56 0 -88.5 29t-32.5 84q0 153 245 153h41v91q0 99 -83 99q-46 0 -88 -24v-91q-24 -6 -48 -6q-26 0 -35.5 12.5t-9.5 39.5q0 16 3 37q24 21 76 42t106 21q74 0 122.5 -32t48.5 -102
v-266q0 -35 23 -35zM324 152v74h-57q-72 0 -100 -28.5t-28 -82.5q0 -71 68 -71q36 0 70.5 32t46.5 76zM347 651q0 -13 -10 -26.5t-22 -24t-42 -33.5l-74 -57l-31 18l54 84q29 48 42 62.5t30 14.5t35 -12t18 -26z" />
    <glyph glyph-name="acircumflex" unicode="&#xe2;" horiz-adv-x="524" 
d="M439 42q24 0 44 69l29 -12q-28 -109 -108 -109t-80 88v16q-22 -40 -66.5 -72t-98.5 -32q-56 0 -88.5 29t-32.5 84q0 153 245 153h41v91q0 99 -83 99q-46 0 -88 -24v-91q-24 -6 -48 -6q-26 0 -35.5 12.5t-9.5 39.5q0 16 3 37q24 21 76 42t106 21q74 0 122.5 -32t48.5 -102
v-266q0 -35 23 -35zM324 152v74h-57q-72 0 -100 -28.5t-28 -82.5q0 -71 68 -71q36 0 70.5 32t46.5 76zM143 529l-25 26q63 61 106 118h45q32 -44 109 -119l-32 -25l-101 71z" />
    <glyph glyph-name="atilde" unicode="&#xe3;" horiz-adv-x="524" 
d="M439 42q24 0 44 69l29 -12q-28 -109 -108 -109t-80 88v16q-22 -40 -66.5 -72t-98.5 -32q-56 0 -88.5 29t-32.5 84q0 153 245 153h41v91q0 99 -83 99q-46 0 -88 -24v-91q-24 -6 -48 -6q-26 0 -35.5 12.5t-9.5 39.5q0 16 3 37q24 21 76 42t106 21q74 0 122.5 -32t48.5 -102
v-266q0 -35 23 -35zM324 152v74h-57q-72 0 -100 -28.5t-28 -82.5q0 -71 68 -71q36 0 70.5 32t46.5 76zM396 619l25 -21q-61 -69 -121 -69q-23 0 -69 27q-40 25 -57 25q-24 0 -56 -39l-25 24q57 70 121 70q30 0 66 -26q38 -24 60 -24q21 0 56 33z" />
    <glyph glyph-name="adieresis" unicode="&#xe4;" horiz-adv-x="524" 
d="M439 42q24 0 44 69l29 -12q-28 -109 -108 -109t-80 88v16q-22 -40 -66.5 -72t-98.5 -32q-56 0 -88.5 29t-32.5 84q0 153 245 153h41v91q0 99 -83 99q-46 0 -88 -24v-91q-24 -6 -48 -6q-26 0 -35.5 12.5t-9.5 39.5q0 16 3 37q24 21 76 42t106 21q74 0 122.5 -32t48.5 -102
v-266q0 -35 23 -35zM324 152v74h-57q-72 0 -100 -28.5t-28 -82.5q0 -71 68 -71q36 0 70.5 32t46.5 76zM160 625q20 0 33 -12.5t13 -34.5q0 -23 -14.5 -35.5t-31.5 -12.5q-55 0 -55 48q0 47 55 47zM341 625q21 0 33.5 -12t12.5 -35t-14.5 -35.5t-31.5 -12.5q-55 0 -55 48
q0 47 55 47z" />
    <glyph glyph-name="aring" unicode="&#xe5;" horiz-adv-x="524" 
d="M439 42q24 0 44 69l29 -12q-28 -109 -108 -109t-80 88v16q-22 -40 -66.5 -72t-98.5 -32q-56 0 -88.5 29t-32.5 84q0 153 245 153h41v91q0 99 -83 99q-46 0 -88 -24v-91q-24 -6 -48 -6q-26 0 -35.5 12.5t-9.5 39.5q0 16 3 37q24 21 76 42t106 21q74 0 122.5 -32t48.5 -102
v-266q0 -35 23 -35zM324 152v74h-57q-72 0 -100 -28.5t-28 -82.5q0 -71 68 -71q36 0 70.5 32t46.5 76zM217 604q0 -20 10.5 -31t26.5 -11t26.5 11.5t10.5 30.5q0 20 -10.5 31t-26.5 11t-26.5 -11t-10.5 -31zM180 604q0 31 21.5 52.5t52.5 21.5t52.5 -21.5t21.5 -52.5
t-21.5 -52.5t-52.5 -21.5t-52.5 21.5t-21.5 52.5z" />
    <glyph glyph-name="ae" unicode="&#xe6;" horiz-adv-x="727" 
d="M679 269h-272l-1 -7q0 -7 -0.5 -17t-0.5 -17q0 -89 34 -139t98 -50q51 0 84 32.5t46 68.5l25 -9q-4 -18 -15 -38.5t-31 -45.5t-56 -41t-80 -16q-65 0 -115 32.5t-69 91.5q-22 -51 -65.5 -87.5t-101.5 -36.5q-57 0 -89 30.5t-32 87.5q0 148 225 148h51v94q0 96 -79 96
q-40 0 -82 -24v-91q-24 -6 -48 -6q-26 0 -35.5 12.5t-9.5 39.5q0 16 3 37q25 22 72 42.5t100 20.5q101 0 145 -52q54 51 136 51q74 0 121.5 -37t47.5 -106q0 -29 -6 -64zM314 152v74h-57q-118 0 -118 -102q0 -80 65 -80q33 0 65.5 32t44.5 76zM516 441q-91 0 -106 -136h176
q5 33 5 53q0 83 -75 83z" />
    <glyph glyph-name="ccedilla" unicode="&#xe7;" horiz-adv-x="475" 
d="M431 421q9 -22 9 -54q0 -51 -49 -51q-19 0 -47 8v94q-27 23 -77 23q-58 0 -93.5 -54t-35.5 -149t38.5 -146.5t104.5 -51.5q88 0 133 98l26 -14q-20 -58 -61.5 -92.5t-100.5 -40.5l-12 -28q84 1 84 -69q0 -48 -29.5 -75t-71.5 -27q-35 0 -64 13l10 29q23 -7 44 -7t32 16
t11 38q0 47 -57 35l-4 20l24 54q-38 2 -71.5 14t-65.5 37t-51 72.5t-19 112.5q0 70 20.5 121.5t54.5 78t70.5 38.5t76.5 12q92 0 171 -55z" />
    <glyph glyph-name="egrave" unicode="&#xe8;" horiz-adv-x="475" 
d="M432 269h-292v-7q-1 -7 -1.5 -17t-0.5 -17q0 -89 37.5 -139t105.5 -50q51 0 86 33t48 68l25 -9q-4 -18 -15.5 -39t-32.5 -45.5t-57.5 -40.5t-80.5 -16q-94 0 -155 60t-61 176q0 118 62.5 184t158.5 66q76 0 127.5 -37.5t51.5 -105.5q0 -29 -6 -64zM259 441q-46 0 -77 -33
t-39 -103h196q5 33 5 53q0 38 -22.5 60.5t-62.5 22.5zM139 647q0 15 18 28.5t34 13.5q15 0 28.5 -15.5t43.5 -61.5l54 -84l-31 -18l-74 57l-13.5 10.5l-12.5 9.5l-11 8.5l-10 8t-7.5 7t-6.5 7.5t-5 7t-4 7t-2 7t-1 8z" />
    <glyph glyph-name="eacute" unicode="&#xe9;" horiz-adv-x="475" 
d="M432 269h-292v-7q-1 -7 -1.5 -17t-0.5 -17q0 -89 37.5 -139t105.5 -50q51 0 86 33t48 68l25 -9q-4 -18 -15.5 -39t-32.5 -45.5t-57.5 -40.5t-80.5 -16q-94 0 -155 60t-61 176q0 118 62.5 184t158.5 66q76 0 127.5 -37.5t51.5 -105.5q0 -29 -6 -64zM259 441q-46 0 -77 -33
t-39 -103h196q5 33 5 53q0 38 -22.5 60.5t-62.5 22.5zM356 651q0 -13 -10 -26.5t-22 -24t-42 -33.5l-74 -57l-31 18l54 84q29 48 42 62.5t30 14.5t35 -12t18 -26z" />
    <glyph glyph-name="ecircumflex" unicode="&#xea;" horiz-adv-x="475" 
d="M432 269h-292v-7q-1 -7 -1.5 -17t-0.5 -17q0 -89 37.5 -139t105.5 -50q51 0 86 33t48 68l25 -9q-4 -18 -15.5 -39t-32.5 -45.5t-57.5 -40.5t-80.5 -16q-94 0 -155 60t-61 176q0 118 62.5 184t158.5 66q76 0 127.5 -37.5t51.5 -105.5q0 -29 -6 -64zM259 441q-46 0 -77 -33
t-39 -103h196q5 33 5 53q0 38 -22.5 60.5t-62.5 22.5zM153 530l-25 26q63 61 106 118h45q32 -44 109 -119l-32 -25l-101 71z" />
    <glyph glyph-name="edieresis" unicode="&#xeb;" horiz-adv-x="475" 
d="M432 269h-292v-7q-1 -7 -1.5 -17t-0.5 -17q0 -89 37.5 -139t105.5 -50q51 0 86 33t48 68l25 -9q-4 -18 -15.5 -39t-32.5 -45.5t-57.5 -40.5t-80.5 -16q-94 0 -155 60t-61 176q0 118 62.5 184t158.5 66q76 0 127.5 -37.5t51.5 -105.5q0 -29 -6 -64zM259 441q-46 0 -77 -33
t-39 -103h196q5 33 5 53q0 38 -22.5 60.5t-62.5 22.5zM170 625q20 0 33 -12.5t13 -34.5q0 -23 -14.5 -35.5t-31.5 -12.5q-55 0 -55 48q0 47 55 47zM351 625q21 0 33.5 -12t12.5 -35t-14.5 -35.5t-31.5 -12.5q-55 0 -55 48q0 47 55 47z" />
    <glyph glyph-name="igrave" unicode="&#xec;" horiz-adv-x="321" 
d="M35 467h172v-414q0 -13 11 -13l68 -4v-36h-250v36l66 3q13 3 13 13v359q0 15 -12 17l-68 3v36zM34 647q0 15 18 28.5t34 13.5q15 0 28.5 -15.5t43.5 -61.5l54 -84l-31 -18l-74 57l-13.5 10.5l-12.5 9.5l-11 8.5l-10 8t-7.5 7t-6.5 7.5t-5 7t-4 7t-2 7t-1 8z" />
    <glyph glyph-name="iacute" unicode="&#xed;" horiz-adv-x="321" 
d="M35 467h172v-414q0 -13 11 -13l68 -4v-36h-250v36l66 3q13 3 13 13v359q0 15 -12 17l-68 3v36zM250 651q0 -13 -10 -26.5t-22 -24t-42 -33.5l-74 -57l-31 18l54 84q29 48 42 62.5t30 14.5t35 -12t18 -26z" />
    <glyph glyph-name="icircumflex" unicode="&#xee;" horiz-adv-x="321" 
d="M35 467h172v-414q0 -13 11 -13l68 -4v-36h-250v36l66 3q13 3 13 13v359q0 15 -12 17l-68 3v36zM50 530l-25 26q63 61 106 118h45q32 -44 109 -119l-32 -25l-101 71z" />
    <glyph glyph-name="idieresis" unicode="&#xef;" horiz-adv-x="321" 
d="M35 467h172v-414q0 -13 11 -13l68 -4v-36h-250v36l66 3q13 3 13 13v359q0 15 -12 17l-68 3v36zM61 625q20 0 33 -12.5t13 -34.5q0 -23 -14.5 -35.5t-31.5 -12.5q-55 0 -55 48q0 47 55 47zM242 625q21 0 33.5 -12t12.5 -35t-14.5 -35.5t-31.5 -12.5q-55 0 -55 48
q0 47 55 47z" />
    <glyph glyph-name="ntilde" unicode="&#xf1;" horiz-adv-x="640" 
d="M206 467v-80q76 89 171 89q61 0 105.5 -33.5t44.5 -104.5v-287q0 -12 12 -12l66 -3v-36h-248v36l66 3q12 2 12 13v272q0 56 -19 84.5t-64 28.5q-40 0 -83 -30.5t-63 -62.5v-291q0 -13 13 -13l64 -4v-36h-248v36l66 6q13 1 13 13v358q0 11 -12 13l-67 6v35h171zM465 620
l25 -21q-61 -69 -121 -69q-23 0 -69 27q-40 25 -57 25q-24 0 -56 -39l-25 24q57 70 121 70q30 0 66 -26q38 -24 60 -24q21 0 56 33z" />
    <glyph glyph-name="ograve" unicode="&#xf2;" horiz-adv-x="539" 
d="M501 231q0 -115 -65 -178t-165 -63q-102 0 -167.5 60.5t-65.5 178.5q0 120 63.5 183.5t168.5 63.5t168 -62.5t63 -182.5zM271 25q130 0 130 202q0 106 -33.5 160t-97.5 54t-98 -54t-34 -159q0 -102 35.5 -152.5t97.5 -50.5zM171 647q0 15 18 28.5t34 13.5
q15 0 28.5 -15.5t43.5 -61.5l54 -84l-31 -18l-74 57l-13.5 10.5l-12.5 9.5l-11 8.5l-10 8t-7.5 7t-6.5 7.5t-5 7t-4 7t-2 7t-1 8z" />
    <glyph glyph-name="oacute" unicode="&#xf3;" horiz-adv-x="539" 
d="M501 231q0 -115 -65 -178t-165 -63q-102 0 -167.5 60.5t-65.5 178.5q0 120 63.5 183.5t168.5 63.5t168 -62.5t63 -182.5zM271 25q130 0 130 202q0 106 -33.5 160t-97.5 54t-98 -54t-34 -159q0 -102 35.5 -152.5t97.5 -50.5zM375 651q0 -13 -10 -26.5t-22 -24t-42 -33.5
l-74 -57l-31 18l54 84q29 48 42 62.5t30 14.5t35 -12t18 -26z" />
    <glyph glyph-name="ocircumflex" unicode="&#xf4;" horiz-adv-x="539" 
d="M501 231q0 -115 -65 -178t-165 -63q-102 0 -167.5 60.5t-65.5 178.5q0 120 63.5 183.5t168.5 63.5t168 -62.5t63 -182.5zM271 25q130 0 130 202q0 106 -33.5 160t-97.5 54t-98 -54t-34 -159q0 -102 35.5 -152.5t97.5 -50.5zM164 531l-25 26q63 61 106 118h45
q32 -44 109 -119l-32 -25l-101 71z" />
    <glyph glyph-name="otilde" unicode="&#xf5;" horiz-adv-x="539" 
d="M501 231q0 -115 -65 -178t-165 -63q-102 0 -167.5 60.5t-65.5 178.5q0 120 63.5 183.5t168.5 63.5t168 -62.5t63 -182.5zM271 25q130 0 130 202q0 106 -33.5 160t-97.5 54t-98 -54t-34 -159q0 -102 35.5 -152.5t97.5 -50.5zM420 620l25 -21q-61 -69 -121 -69
q-23 0 -69 27q-40 25 -57 25q-24 0 -56 -39l-25 24q57 70 121 70q30 0 66 -26q38 -24 60 -24q21 0 56 33z" />
    <glyph glyph-name="odieresis" unicode="&#xf6;" horiz-adv-x="539" 
d="M501 231q0 -115 -65 -178t-165 -63q-102 0 -167.5 60.5t-65.5 178.5q0 120 63.5 183.5t168.5 63.5t168 -62.5t63 -182.5zM271 25q130 0 130 202q0 106 -33.5 160t-97.5 54t-98 -54t-34 -159q0 -102 35.5 -152.5t97.5 -50.5zM188 625q20 0 33 -12.5t13 -34.5
q0 -23 -14.5 -35.5t-31.5 -12.5q-55 0 -55 48q0 47 55 47zM369 625q21 0 33.5 -12t12.5 -35t-14.5 -35.5t-31.5 -12.5q-55 0 -55 48q0 47 55 47z" />
    <glyph glyph-name="divide" unicode="&#xf7;" 
d="M50 269v54h478v-54h-478zM289 185q29 0 46.5 -15t17.5 -44q0 -30 -17.5 -45t-46.5 -15q-28 0 -45 15t-17 45q0 27 17.5 43t44.5 16zM289 526q29 0 46.5 -15t17.5 -44q0 -30 -17.5 -45t-46.5 -15q-28 0 -45 15t-17 45q0 27 17.5 43t44.5 16z" />
    <glyph glyph-name="ugrave" unicode="&#xf9;" horiz-adv-x="624" 
d="M341 467h170v-415q0 -13 12 -13l66 -3v-36h-170v100q-23 -45 -65.5 -77.5t-101.5 -32.5q-154 0 -154 143v281q0 10 -11 12l-67 5v36h170v-304q0 -70 17 -103.5t65 -33.5q47 0 88.5 40.5t58.5 95.5v252q0 11 -11 13l-67 4v36zM174 647q0 15 18 28.5t34 13.5
q15 0 28.5 -15.5t43.5 -61.5l54 -84l-31 -18l-74 57l-13.5 10.5l-12.5 9.5l-11 8.5l-10 8t-7.5 7t-6.5 7.5t-5 7t-4 7t-2 7t-1 8z" />
    <glyph glyph-name="uacute" unicode="&#xfa;" horiz-adv-x="624" 
d="M341 467h170v-415q0 -13 12 -13l66 -3v-36h-170v100q-23 -45 -65.5 -77.5t-101.5 -32.5q-154 0 -154 143v281q0 10 -11 12l-67 5v36h170v-304q0 -70 17 -103.5t65 -33.5q47 0 88.5 40.5t58.5 95.5v252q0 11 -11 13l-67 4v36zM411 651q0 -13 -10 -26.5t-22 -24t-42 -33.5
l-74 -57l-31 18l54 84q29 48 42 62.5t30 14.5t35 -12t18 -26z" />
    <glyph glyph-name="ucircumflex" unicode="&#xfb;" horiz-adv-x="624" 
d="M341 467h170v-415q0 -13 12 -13l66 -3v-36h-170v100q-23 -45 -65.5 -77.5t-101.5 -32.5q-154 0 -154 143v281q0 10 -11 12l-67 5v36h170v-304q0 -70 17 -103.5t65 -33.5q47 0 88.5 40.5t58.5 95.5v252q0 11 -11 13l-67 4v36zM201 531l-25 26q63 61 106 118h45
q32 -44 109 -119l-32 -25l-101 71z" />
    <glyph glyph-name="udieresis" unicode="&#xfc;" horiz-adv-x="624" 
d="M341 467h170v-415q0 -13 12 -13l66 -3v-36h-170v100q-23 -45 -65.5 -77.5t-101.5 -32.5q-154 0 -154 143v281q0 10 -11 12l-67 5v36h170v-304q0 -70 17 -103.5t65 -33.5q47 0 88.5 40.5t58.5 95.5v252q0 11 -11 13l-67 4v36zM206 626q20 0 33 -12.5t13 -34.5
q0 -23 -14.5 -35.5t-31.5 -12.5q-55 0 -55 48q0 47 55 47zM387 626q21 0 33.5 -12t12.5 -35t-14.5 -35.5t-31.5 -12.5q-55 0 -55 48q0 47 55 47z" />
    <glyph glyph-name="yacute" unicode="&#xfd;" horiz-adv-x="584" 
d="M480 400l-200 -566q-30 -85 -59.5 -120t-84.5 -35q-45 0 -72 20.5t-27 60.5q0 28 20 48t53 20q19 0 33 -4v-95q9 -3 24 -3q32 0 55 65l51 143l-174 479q-4 11 -16 12l-68 6v36h256v-36l-69 -4q-9 0 -9 -8q0 -7 8 -26l116 -334l120 341q5 13 5 18q0 9 -8 10l-64 3v36h199
v-36l-67 -3q-11 0 -16 -12zM447 651q0 -13 -10 -26.5t-22 -24t-42 -33.5l-74 -57l-31 18l54 84q29 48 42 62.5t30 14.5t35 -12t18 -26z" />
    <glyph glyph-name="ydieresis" unicode="&#xff;" horiz-adv-x="467" 
 />
    <glyph glyph-name="Amacron" unicode="&#x100;" horiz-adv-x="717" 
d="M702 0h-271v37l70 5q10 0 10 9q0 4 -5 17l-53 159h-238l-53 -149q-8 -19 -8 -27q0 -10 16 -10l63 -4v-37h-217v37l74 5q17 1 25 25l240 662h21l233 -674q4 -10 15 -11l78 -7v-37zM339 571l-111 -306h213zM229 751v46h278v-46h-278z" />
    <glyph glyph-name="amacron" unicode="&#x101;" horiz-adv-x="524" 
d="M439 42q24 0 44 69l29 -12q-28 -109 -108 -109t-80 88v16q-22 -40 -66.5 -72t-98.5 -32q-56 0 -88.5 29t-32.5 84q0 153 245 153h41v91q0 99 -83 99q-46 0 -88 -24v-91q-24 -6 -48 -6q-26 0 -35.5 12.5t-9.5 39.5q0 16 3 37q24 21 76 42t106 21q74 0 122.5 -32t48.5 -102
v-266q0 -35 23 -35zM324 152v74h-57q-72 0 -100 -28.5t-28 -82.5q0 -71 68 -71q36 0 70.5 32t46.5 76zM113 530v46h278v-46h-278z" />
    <glyph glyph-name="Aogonek" unicode="&#x104;" horiz-adv-x="717" 
d="M702 0h-102q-24 0 -51 -36.5t-27 -83.5q0 -19 10.5 -30.5t29.5 -11.5q33 0 68 52l18 -23q-52 -84 -120 -84q-35 0 -62 22.5t-27 63.5q0 70 103 131h-111v37l70 5q10 0 10 9q0 4 -5 17l-53 159h-238l-53 -149q-8 -19 -8 -27q0 -10 16 -10l63 -4v-37h-217v37l74 5
q17 1 25 25l240 662h21l233 -674q4 -10 15 -11l78 -7v-37zM339 571l-111 -306h213z" />
    <glyph glyph-name="aogonek" unicode="&#x105;" horiz-adv-x="524" 
d="M439 42q24 0 44 69l29 -12q-8 -31 -23 -57h1l-3 -4q-8 -13 -18 -23q-11 -12 -31.5 -31.5t-30.5 -30.5t-19 -30t-9 -41q0 -19 10.5 -31.5t29.5 -12.5q33 0 68 52l18 -23q-52 -83 -120 -84q-35 -1 -62 20.5t-27 61.5q0 9 2 17.5t4.5 15.5t8 14.5l9 12.5t12 12.5l12.5 11
t15 11t15 10l16 10.5l15 10h-1q-80 0 -80 88v16q-22 -40 -66.5 -72t-98.5 -32q-56 0 -88.5 29t-32.5 84q0 153 245 153h41v91q0 99 -83 99q-46 0 -88 -24v-91q-24 -6 -48 -6q-26 0 -35.5 12.5t-9.5 39.5q0 16 3 37q24 21 76 42t106 21q74 0 122.5 -32t48.5 -102v-266
q0 -35 23 -35zM324 152v74h-57q-72 0 -100 -28.5t-28 -82.5q0 -71 68 -71q36 0 70.5 32t46.5 76z" />
    <glyph glyph-name="Cacute" unicode="&#x106;" horiz-adv-x="646" 
d="M531 650q12 20 15 46h38v-201h-38q-8 65 -31 102q-45 75 -142 75q-99 0 -160 -79.5t-61 -243.5q0 -83 19.5 -144t53.5 -94.5t72.5 -49.5t81.5 -16q66 0 115.5 34.5t78.5 76.5l28 -23q-14 -23 -32 -44t-47.5 -45t-72.5 -38.5t-92 -14.5q-55 0 -106 17.5t-97 55.5
t-73.5 107.5t-27.5 163.5q0 181 88 278t213 97q107 0 177 -60zM473 806q0 -13 -17.5 -21t-67.5 -22l-79 -23l-29 21l70 49q59 42 80 42q14 0 28.5 -15t14.5 -31z" />
    <glyph glyph-name="cacute" unicode="&#x107;" horiz-adv-x="475" 
d="M431 421q9 -22 9 -54q0 -51 -49 -51q-19 0 -47 8v94q-27 23 -77 23q-58 0 -93.5 -54t-35.5 -149t38.5 -146.5t104.5 -51.5q88 0 133 98l26 -14q-21 -63 -68.5 -98.5t-115.5 -35.5q-38 0 -73.5 11t-69.5 36t-54.5 73.5t-20.5 115.5q0 70 20.5 121.5t54.5 78t70.5 38.5
t76.5 12q92 0 171 -55zM375 651q0 -13 -10 -26.5t-22 -24t-42 -33.5l-74 -57l-31 18l54 84q29 48 42 62.5t30 14.5t35 -12t18 -26z" />
    <glyph glyph-name="Ccaron" unicode="&#x10c;" horiz-adv-x="646" 
d="M531 650q12 20 15 46h38v-201h-38q-8 65 -31 102q-45 75 -142 75q-99 0 -160 -79.5t-61 -243.5q0 -83 19.5 -144t53.5 -94.5t72.5 -49.5t81.5 -16q66 0 115.5 34.5t78.5 76.5l28 -23q-14 -23 -32 -44t-47.5 -45t-72.5 -38.5t-92 -14.5q-55 0 -106 17.5t-97 55.5
t-73.5 107.5t-27.5 163.5q0 181 88 278t213 97q107 0 177 -60zM231 843l25 27l108 -52l102 49l22 -26q-65 -48 -106 -91h-45q-46 48 -106 93z" />
    <glyph glyph-name="ccaron" unicode="&#x10d;" horiz-adv-x="475" 
d="M431 421q9 -22 9 -54q0 -51 -49 -51q-19 0 -47 8v94q-27 23 -77 23q-58 0 -93.5 -54t-35.5 -149t38.5 -146.5t104.5 -51.5q88 0 133 98l26 -14q-21 -63 -68.5 -98.5t-115.5 -35.5q-38 0 -73.5 11t-69.5 36t-54.5 73.5t-20.5 115.5q0 70 20.5 121.5t54.5 78t70.5 38.5
t76.5 12q92 0 171 -55zM132 649l25 26l106 -71l104 69l25 -23q-77 -75 -109 -119h-45q-43 57 -106 118z" />
    <glyph glyph-name="Dcaron" unicode="&#x10e;" horiz-adv-x="722" 
d="M669 358q0 -68 -13.5 -123.5t-35.5 -92t-53 -64.5t-61 -43t-65 -24.5t-60.5 -12t-51.5 -2.5q-21 0 -66 2t-71 2h-137v37l70 6q12 1 12 12v590q0 12 -13 12l-69 6v38h286q172 0 250 -85.5t78 -257.5zM340 36q43 0 81.5 15.5t73 50t54.5 98.5t20 151q0 173 -59 243t-170 70
q-45 0 -111 -8v-609q48 -11 111 -11zM212 843l25 27l108 -52l102 49l22 -26q-65 -48 -106 -91h-45q-46 48 -106 93z" />
    <glyph glyph-name="dcaron" unicode="&#x10f;" horiz-adv-x="602" 
d="M268 26q51 0 86 36t48 79v170q-15 57 -51.5 93t-84.5 36q-62 0 -95 -54.5t-33 -154.5q0 -94 34.5 -149.5t95.5 -55.5zM38 229q0 67 20 117t52.5 77t68 40t73.5 13q103 0 150 -87v306q0 11 -16 13l-62 6v36h170v-695q0 -11 12 -13l66 -6v-36h-171v75q-54 -89 -165 -89
q-34 0 -67 13t-63.5 40t-49 76t-18.5 114zM613 754q28 0 46 -19t18 -48q0 -64 -64 -162l-32 15q38 53 38 79q0 12 -18 14q-54 2 -54 57q0 30 18.5 47t47.5 17z" />
    <glyph glyph-name="Emacron" unicode="&#x112;" horiz-adv-x="623" 
d="M547 506h-37v148q0 11 -10 11l-271 -9v-277h99q60 0 60 124h38v-284h-36q0 124 -63 124h-98v-296l245 -10q19 0 22 17l27 161h38v-215h-506v37l71 3q11 0 11 12v594q0 12 -12 12l-70 5v38h533zM200 750v46h278v-46h-278z" />
    <glyph glyph-name="emacron" unicode="&#x113;" horiz-adv-x="475" 
d="M432 269h-292v-7q-1 -7 -1.5 -17t-0.5 -17q0 -89 37.5 -139t105.5 -50q51 0 86 33t48 68l25 -9q-4 -18 -15.5 -39t-32.5 -45.5t-57.5 -40.5t-80.5 -16q-94 0 -155 60t-61 176q0 118 62.5 184t158.5 66q76 0 127.5 -37.5t51.5 -105.5q0 -29 -6 -64zM259 441q-46 0 -77 -33
t-39 -103h196q5 33 5 53q0 38 -22.5 60.5t-62.5 22.5zM109 530v46h278v-46h-278z" />
    <glyph glyph-name="Edotaccent" unicode="&#x116;" horiz-adv-x="623" 
d="M547 506h-37v148q0 11 -10 11l-271 -9v-277h99q60 0 60 124h38v-284h-36q0 124 -63 124h-98v-296l245 -10q19 0 22 17l27 161h38v-215h-506v37l71 3q11 0 11 12v594q0 12 -12 12l-70 5v38h533zM337 835q20 0 33 -12.5t13 -34.5q0 -23 -14.5 -35.5t-31.5 -12.5
q-55 0 -55 48q0 47 55 47z" />
    <glyph glyph-name="edotaccent" unicode="&#x117;" horiz-adv-x="475" 
d="M432 269h-292v-7q-1 -7 -1.5 -17t-0.5 -17q0 -89 37.5 -139t105.5 -50q51 0 86 33t48 68l25 -9q-4 -18 -15.5 -39t-32.5 -45.5t-57.5 -40.5t-80.5 -16q-94 0 -155 60t-61 176q0 118 62.5 184t158.5 66q76 0 127.5 -37.5t51.5 -105.5q0 -29 -6 -64zM259 441q-46 0 -77 -33
t-39 -103h196q5 33 5 53q0 38 -22.5 60.5t-62.5 22.5zM254 625q20 0 33 -12.5t13 -34.5q0 -23 -14.5 -35.5t-31.5 -12.5q-55 0 -55 48q0 47 55 47z" />
    <glyph glyph-name="Eogonek" unicode="&#x118;" horiz-adv-x="623" 
d="M547 506h-37v148q0 11 -10 11l-271 -9v-277h99q60 0 60 124h38v-284h-36q0 124 -63 124h-98v-296l245 -10q19 0 22 17l27 161h38v-215q-35 0 -69 -36t-34 -84q0 -19 10.5 -30.5t29.5 -11.5q33 0 68 52l18 -23q-52 -84 -120 -84q-33 0 -61 23t-28 63q0 41 29.5 71t81.5 60
h-431v37l71 3q11 0 11 12v594q0 12 -12 12l-70 5v38h533z" />
    <glyph glyph-name="eogonek" unicode="&#x119;" horiz-adv-x="475" 
d="M432 269h-292v-7q-1 -7 -1.5 -17t-0.5 -17q0 -89 37.5 -139t105.5 -50q51 0 86 33t48 68l25 -9q-14 -55 -69 -103q-32 -27 -55 -67t-23 -81q0 -19 10.5 -30.5t29.5 -11.5q33 0 68 52l18 -23q-53 -84 -120 -84q-34 0 -61.5 23t-27.5 63q0 39 25 68t69 59q-22 -6 -50 -6
q-94 0 -155 60t-61 176q0 118 62.5 184t158.5 66q76 0 127.5 -37.5t51.5 -105.5q0 -29 -6 -64zM259 441q-46 0 -77 -33t-39 -103h196q5 33 5 53q0 38 -22.5 60.5t-62.5 22.5z" />
    <glyph glyph-name="Ecaron" unicode="&#x11a;" horiz-adv-x="623" 
d="M547 506h-37v148q0 11 -10 11l-271 -9v-277h99q60 0 60 124h38v-284h-36q0 124 -63 124h-98v-296l245 -10q19 0 22 17l27 161h38v-215h-506v37l71 3q11 0 11 12v594q0 12 -12 12l-70 5v38h533zM190 843l25 27l108 -52l102 49l22 -26q-65 -48 -106 -91h-45q-46 48 -106 93
z" />
    <glyph glyph-name="ecaron" unicode="&#x11b;" horiz-adv-x="475" 
d="M432 269h-292v-7q-1 -7 -1.5 -17t-0.5 -17q0 -89 37.5 -139t105.5 -50q51 0 86 33t48 68l25 -9q-4 -18 -15.5 -39t-32.5 -45.5t-57.5 -40.5t-80.5 -16q-94 0 -155 60t-61 176q0 118 62.5 184t158.5 66q76 0 127.5 -37.5t51.5 -105.5q0 -29 -6 -64zM259 441q-46 0 -77 -33
t-39 -103h196q5 33 5 53q0 38 -22.5 60.5t-62.5 22.5zM125 649l25 26l106 -71l104 69l25 -23q-77 -75 -109 -119h-45q-43 57 -106 118z" />
    <glyph glyph-name="Gcommaaccent" unicode="&#x122;" horiz-adv-x="696" 
d="M548 696h38v-201h-39q0 68 -27 110q-44 70 -149 70q-103 0 -160.5 -91t-57.5 -248q0 -83 17.5 -144.5t46.5 -93.5t61 -47t67 -15q87 0 151 69v137q0 12 -12 14l-68 3v36h250v-36l-67 -3q-11 0 -11 -14v-242h-32q-18 42 -39 75q-25 -23 -43.5 -37.5t-60.5 -31t-89 -16.5
q-35 0 -69 8.5t-71.5 32t-65.5 60.5t-46.5 100t-18.5 144q0 84 21.5 151.5t54.5 108t76 67.5t83 37.5t78 10.5q96 0 162 -51q12 16 20 37zM348 -66q23 0 36.5 -14.5t13.5 -40.5q0 -48 -50 -129l-25 13q32 51 32 67q0 13 -16 13q-42 2 -42 39q0 24 13.5 38t37.5 14z" />
    <glyph glyph-name="gcommaaccent" unicode="&#x123;" horiz-adv-x="537" 
d="M239 565q-23 0 -36.5 14.5t-13.5 40.5q0 43 50 129l25 -13q-32 -51 -32 -67q0 -13 16 -13q42 -2 42 -39q0 -25 -14 -38.5t-37 -13.5zM446 298q0 -87 -57 -134.5t-146 -47.5q-50 0 -92 18q-26 -8 -41 -33.5t-15 -53.5q0 -55 38 -55q37 0 113.5 3t117.5 3q110 0 110 -112
q0 -94 -64.5 -148t-163.5 -54q-104 0 -151 41t-47 101q0 55 35 91q-40 27 -40 95q0 48 20.5 85t54.5 55q-83 51 -83 145q0 73 55.5 126t152.5 53q62 0 115 -27q56 32 110 32q38 0 67 -12q2 -4 2 -28q0 -60 -45 -60q-22 0 -41 7v54q-35 0 -63 -15q58 -58 58 -129zM243 151
q103 0 103 147q0 67 -26.5 104.5t-76.5 37.5t-79 -38t-29 -103q0 -67 27 -107.5t81 -40.5zM138 -98q-8 0 -22 2q-25 -22 -25 -70q0 -53 42.5 -77.5t112.5 -24.5q80 0 127 37t47 92q0 48 -65 48q-27 0 -102 -3.5t-115 -3.5z" />
    <glyph glyph-name="imacron" unicode="&#x12b;" horiz-adv-x="321" 
d="M35 467h172v-414q0 -13 11 -13l68 -4v-36h-250v36l66 3q13 3 13 13v359q0 15 -12 17l-68 3v36zM1 530v46h278v-46h-278z" />
    <glyph glyph-name="Iogonek" unicode="&#x12e;" horiz-adv-x="376" 
d="M60 701h256v-38l-70 -4q-12 0 -12 -13v-592q0 -12 12 -12l70 -5v-37h-83q-22 0 -46 -32.5t-24 -76.5q0 -53 42 -53q33 0 68 52l18 -23q-53 -84 -120 -84q-35 0 -62 22.5t-27 63.5q0 69 85 131h-107v37l70 4q12 0 12 13v592q0 13 -11 13l-71 4v38z" />
    <glyph glyph-name="iogonek" unicode="&#x12f;" horiz-adv-x="319" 
d="M35 467h170v-414q0 -13 12 -13l67 -4v-36h-107q-42 -65 -42 -120q0 -19 10.5 -30.5t29.5 -11.5q33 0 68 52l18 -23q-53 -84 -120 -84q-34 0 -61.5 22.5t-27.5 63.5q0 26 14.5 51.5t30 40.5t42.5 39h-104v36l66 3q12 2 12 13v365q0 11 -10 12l-68 3v35zM215 655
q0 -30 -12.5 -42t-43.5 -12t-43.5 12t-12.5 42q0 29 12.5 41t43.5 12t43.5 -12t12.5 -41z" />
    <glyph glyph-name="dotlessi" unicode="&#x131;" horiz-adv-x="321" 
d="M35 467h172v-414q0 -13 11 -13l68 -4v-36h-250v36l66 3q13 3 13 13v359q0 15 -12 17l-68 3v36z" />
    <glyph glyph-name="Kcommaaccent" unicode="&#x136;" horiz-adv-x="753" 
d="M723 0h-289v37l83 7q8 1 8 8q0 4 -3 9l-207 310l-86 -99v-219q0 -13 13 -13l69 -4v-36h-256v36l69 4q5 0 9 4t4 9v594q0 12 -13 12l-69 5v37h256v-37l-72 -5q-10 -3 -10 -12v-312l265 309q3 3 3 7q0 5 -9 7l-61 6v37h229v-37l-87 -8q-11 0 -20 -11l-176 -206l257 -383
q7 -11 17 -11l76 -8v-37zM357 -65q23 0 36.5 -14.5t13.5 -40.5q0 -48 -50 -129l-25 13q32 51 32 67q0 13 -16 13q-42 2 -42 39q0 25 14 38.5t37 13.5z" />
    <glyph glyph-name="kcommaaccent" unicode="&#x137;" horiz-adv-x="592" 
d="M525 467v-36q-63 -2 -94 -32l-104 -98l159 -248q9 -11 17 -11l71 -6v-36h-252v36l51 5q5 0 5 8q0 3 -2 7l-118 183l-52 -50v-137q0 -12 13 -13l43 -3v-36h-227v36l67 3q12 0 12 12v647q0 12 -13 12l-66 4v35h171v-506l176 164q8 8 8 13q0 7 -7 7l-64 4v36h206zM291 -66
q23 0 36.5 -14.5t13.5 -40.5q0 -48 -50 -129l-25 13q32 51 32 67q0 13 -16 13q-42 2 -42 39q0 24 14 38t37 14z" />
    <glyph glyph-name="Lacute" unicode="&#x139;" horiz-adv-x="591" 
d="M55 701h255v-37l-69 -4q-13 0 -13 -12v-592q0 -5 4 -8.5t9 -3.5l188 -10h10q10 -1 11 -1q20 0 21 15l32 209h38v-257h-482v36l65 6q12 1 12 13v592q0 13 -11 13l-70 4v37zM290 806q0 -13 -17.5 -21t-67.5 -22l-79 -23l-29 21l70 49q59 42 80 42q14 0 28.5 -15t14.5 -31z
" />
    <glyph glyph-name="lacute" unicode="&#x13a;" horiz-adv-x="311" 
d="M35 750h167v-693q0 -15 14 -16l60 -5v-36h-241v36l61 5q14 2 14 16v638q0 15 -15 15l-60 4v36zM226 833q0 -13 -17.5 -21t-67.5 -22l-79 -23l-29 21l70 49q59 42 80 42q14 0 28.5 -15t14.5 -31z" />
    <glyph glyph-name="Lcommaaccent" unicode="&#x13b;" horiz-adv-x="591" 
d="M55 701h255v-37l-69 -4q-13 0 -13 -12v-592q0 -5 4 -8.5t9 -3.5l188 -10h10q10 -1 11 -1q20 0 21 15l32 209h38v-257h-482v36l65 6q12 1 12 13v592q0 13 -11 13l-70 4v37zM296 -66q23 0 36.5 -14.5t13.5 -40.5q0 -48 -50 -129l-25 13q32 51 32 67q0 13 -16 13
q-42 2 -42 39q0 24 13.5 38t37.5 14z" />
    <glyph glyph-name="lcommaaccent" unicode="&#x13c;" horiz-adv-x="311" 
d="M35 750h167v-693q0 -15 14 -16l60 -5v-36h-241v36l61 5q14 2 14 16v638q0 15 -15 15l-60 4v36zM156 -66q23 0 36.5 -14.5t13.5 -40.5q0 -48 -50 -129l-25 13q32 51 32 67q0 13 -16 13q-42 2 -42 39q0 24 13.5 38t37.5 14z" />
    <glyph glyph-name="Lcaron" unicode="&#x13d;" horiz-adv-x="591" 
d="M55 701h255v-37l-69 -4q-13 0 -13 -12v-592q0 -5 4 -8.5t9 -3.5l188 -10h10q10 -1 11 -1q20 0 21 15l32 209h38v-257h-482v36l65 6q12 1 12 13v592q0 13 -11 13l-70 4v37zM430 708q28 0 46 -19t18 -48q0 -64 -64 -162l-32 15q38 53 38 79q0 12 -18 14q-54 2 -54 57
q0 30 18.5 47t47.5 17z" />
    <glyph glyph-name="lcaron" unicode="&#x13e;" horiz-adv-x="311" 
d="M35 750h167v-693q0 -15 14 -16l60 -5v-36h-241v36l61 5q14 2 14 16v638q0 15 -15 15l-60 4v36zM318 754q28 0 46 -19t18 -48q0 -64 -64 -162l-32 15q38 53 38 79q0 12 -18 14q-54 2 -54 57q0 30 18.5 47t47.5 17z" />
    <glyph glyph-name="Lslash" unicode="&#x141;" horiz-adv-x="591" 
d="M55 701h255v-37l-69 -4q-13 0 -13 -12v-281l183 94l17 -33l-200 -102v-270q0 -5 4 -8.5t9 -3.5l188 -10h10q10 -1 11 -1q20 0 21 15l32 209h38v-257h-482v36l65 6q12 1 12 13v224l-76 -38l-17 32l93 47v327q0 13 -11 13l-70 4v37z" />
    <glyph glyph-name="lslash" unicode="&#x142;" horiz-adv-x="311" 
d="M35 750h167v-336l75 39l17 -33l-92 -47v-316q0 -15 14 -16l60 -5v-36h-241v36l61 5q14 2 14 16v269l-75 -38l-17 32l92 47v328q0 15 -15 15l-60 4v36z" />
    <glyph glyph-name="Nacute" unicode="&#x143;" horiz-adv-x="763" 
d="M626 -12h-32l-417 648v-582q0 -13 12 -13l70 -4v-37h-204v37l65 4q13 0 13 13v593q0 12 -12 12l-66 5v37h196l332 -528v473q0 12 -11 13l-71 5v37h207v-37l-69 -5q-13 -2 -13 -12v-659zM509 813q0 -14 -19.5 -23t-74.5 -25l-88 -25l-32 23l78 54q64 47 88 47q16 0 32 -17
t16 -34z" />
    <glyph glyph-name="nacute" unicode="&#x144;" horiz-adv-x="640" 
d="M206 467v-80q76 89 171 89q61 0 105.5 -33.5t44.5 -104.5v-287q0 -12 12 -12l66 -3v-36h-248v36l66 3q12 2 12 13v272q0 56 -19 84.5t-64 28.5q-40 0 -83 -30.5t-63 -62.5v-291q0 -13 13 -13l64 -4v-36h-248v36l66 6q13 1 13 13v358q0 11 -12 13l-67 6v35h171zM428 651
q0 -13 -10 -26.5t-22 -24t-42 -33.5l-74 -57l-31 18l54 84q29 48 42 62.5t30 14.5t35 -12t18 -26z" />
    <glyph glyph-name="Ncommaaccent" unicode="&#x145;" horiz-adv-x="763" 
d="M626 -12h-32l-417 648v-582q0 -13 12 -13l70 -4v-37h-204v37l65 4q13 0 13 13v593q0 12 -12 12l-66 5v37h196l332 -528v473q0 12 -11 13l-71 5v37h207v-37l-69 -5q-13 -2 -13 -12v-659zM372 -66q23 0 36.5 -14.5t13.5 -40.5q0 -48 -50 -129l-25 13q32 51 32 67
q0 13 -16 13q-42 2 -42 39q0 24 13.5 38t37.5 14z" />
    <glyph glyph-name="ncommaaccent" unicode="&#x146;" horiz-adv-x="640" 
d="M206 467v-80q76 89 171 89q61 0 105.5 -33.5t44.5 -104.5v-287q0 -12 12 -12l66 -3v-36h-248v36l66 3q12 2 12 13v272q0 56 -19 84.5t-64 28.5q-40 0 -83 -30.5t-63 -62.5v-291q0 -13 13 -13l64 -4v-36h-248v36l66 6q13 1 13 13v358q0 11 -12 13l-67 6v35h171zM322 -66
q23 0 36.5 -14.5t13.5 -40.5q0 -48 -50 -129l-25 13q32 51 32 67q0 13 -16 13q-42 2 -42 39q0 24 13.5 38t37.5 14z" />
    <glyph glyph-name="Ncaron" unicode="&#x147;" horiz-adv-x="763" 
d="M626 -12h-32l-417 648v-582q0 -13 12 -13l70 -4v-37h-204v37l65 4q13 0 13 13v593q0 12 -12 12l-66 5v37h196l332 -528v473q0 12 -11 13l-71 5v37h207v-37l-69 -5q-13 -2 -13 -12v-659zM253 843l25 27l108 -52l102 49l22 -26q-65 -48 -106 -91h-45q-46 48 -106 93z" />
    <glyph glyph-name="ncaron" unicode="&#x148;" horiz-adv-x="640" 
d="M206 467v-80q76 89 171 89q61 0 105.5 -33.5t44.5 -104.5v-287q0 -12 12 -12l66 -3v-36h-248v36l66 3q12 2 12 13v272q0 56 -19 84.5t-64 28.5q-40 0 -83 -30.5t-63 -62.5v-291q0 -13 13 -13l64 -4v-36h-248v36l66 6q13 1 13 13v358q0 11 -12 13l-67 6v35h171zM190 649
l25 26l106 -71l104 69l25 -23q-77 -75 -109 -119h-45q-43 57 -106 118z" />
    <glyph glyph-name="Omacron" unicode="&#x14c;" horiz-adv-x="738" 
d="M685 343q0 -91 -25.5 -161t-69.5 -111t-99 -61.5t-118 -20.5q-69 0 -125.5 19.5t-101 60.5t-69 110.5t-24.5 163.5q0 185 88 276t232 91q143 0 227.5 -91t84.5 -276zM373 25q97 0 154.5 79.5t57.5 246.5q0 326 -212 326q-101 0 -160.5 -78t-59.5 -249q0 -325 220 -325z
M230 751v46h278v-46h-278z" />
    <glyph glyph-name="omacron" unicode="&#x14d;" horiz-adv-x="539" 
d="M501 231q0 -115 -65 -178t-165 -63q-102 0 -167.5 60.5t-65.5 178.5q0 120 63.5 183.5t168.5 63.5t168 -62.5t63 -182.5zM271 25q130 0 130 202q0 106 -33.5 160t-97.5 54t-98 -54t-34 -159q0 -102 35.5 -152.5t97.5 -50.5zM136 530v46h278v-46h-278z" />
    <glyph glyph-name="Racute" unicode="&#x154;" horiz-adv-x="692" 
d="M586 547q0 -85 -63 -128t-149 -45v-6q35 0 62 -4.5t52.5 -15.5t41 -33.5t19.5 -54.5l19 -180q4 -46 44 -46q23 0 41 11l14 -31q-33 -24 -92 -24q-61 0 -83 28q-17 21 -20 54l-18 178q-5 44 -33 73q-25 26 -95 26h-96v-294q0 -12 13 -12l70 -6v-37h-258v37l69 5
q14 0 14 13v594q0 12 -13 12l-70 4v36h231q155 0 227.5 -32.5t72.5 -121.5zM230 660v-274h81q72 0 123.5 37.5t51.5 112.5q0 133 -159 133q-52 0 -97 -9zM441 806q0 -13 -17.5 -21t-67.5 -22l-79 -23l-29 21l70 49q59 42 80 42q14 0 28.5 -15t14.5 -31z" />
    <glyph glyph-name="racute" unicode="&#x155;" horiz-adv-x="453" 
d="M445 450q3 -21 3 -37q0 -62 -56 -62q-15 0 -36 3v76q-9 6 -30 6q-54 0 -120 -116v-267q0 -13 12 -13l66 -4v-36h-249v36l67 6q12 2 12 13v358q0 13 -12 13l-67 5v36h171v-96q67 110 148 110q57 0 91 -31zM363 652q0 -13 -10 -26.5t-22 -24t-42 -33.5l-74 -57l-31 18
l54 84q29 48 42 62.5t30 14.5t35 -12t18 -26z" />
    <glyph glyph-name="Rcommaaccent" unicode="&#x156;" horiz-adv-x="692" 
d="M586 547q0 -85 -63 -128t-149 -45v-6q35 0 62 -4.5t52.5 -15.5t41 -33.5t19.5 -54.5l19 -180q4 -46 44 -46q23 0 41 11l14 -31q-33 -24 -92 -24q-61 0 -83 28q-17 21 -20 54l-18 178q-5 44 -33 73q-25 26 -95 26h-96v-294q0 -12 13 -12l70 -6v-37h-258v37l69 5
q14 0 14 13v594q0 12 -13 12l-70 4v36h231q155 0 227.5 -32.5t72.5 -121.5zM230 660v-274h81q72 0 123.5 37.5t51.5 112.5q0 133 -159 133q-52 0 -97 -9zM346 -66q23 0 36.5 -14.5t13.5 -40.5q0 -48 -50 -129l-25 13q32 51 32 67q0 13 -16 13q-42 2 -42 39q0 24 13.5 38
t37.5 14z" />
    <glyph glyph-name="rcommaaccent" unicode="&#x157;" horiz-adv-x="453" 
d="M445 450q3 -21 3 -37q0 -62 -56 -62q-15 0 -36 3v76q-9 6 -30 6q-54 0 -120 -116v-267q0 -13 12 -13l66 -4v-36h-249v36l67 6q12 2 12 13v358q0 13 -12 13l-67 5v36h171v-96q67 110 148 110q57 0 91 -31zM158 -66q23 0 36.5 -14.5t13.5 -40.5q0 -48 -50 -129l-25 13
q32 51 32 67q0 13 -16 13q-42 2 -42 39q0 24 13.5 38t37.5 14z" />
    <glyph glyph-name="Rcaron" unicode="&#x158;" horiz-adv-x="692" 
d="M586 547q0 -85 -63 -128t-149 -45v-6q35 0 62 -4.5t52.5 -15.5t41 -33.5t19.5 -54.5l19 -180q4 -46 44 -46q23 0 41 11l14 -31q-33 -24 -92 -24q-61 0 -83 28q-17 21 -20 54l-18 178q-5 44 -33 73q-25 26 -95 26h-96v-294q0 -12 13 -12l70 -6v-37h-258v37l69 5
q14 0 14 13v594q0 12 -13 12l-70 4v36h231q155 0 227.5 -32.5t72.5 -121.5zM230 660v-274h81q72 0 123.5 37.5t51.5 112.5q0 133 -159 133q-52 0 -97 -9zM210 843l25 27l108 -52l102 49l22 -26q-65 -48 -106 -91h-45q-46 48 -106 93z" />
    <glyph glyph-name="rcaron" unicode="&#x159;" horiz-adv-x="453" 
d="M445 450q3 -21 3 -37q0 -62 -56 -62q-15 0 -36 3v76q-9 6 -30 6q-54 0 -120 -116v-267q0 -13 12 -13l66 -4v-36h-249v36l67 6q12 2 12 13v358q0 13 -12 13l-67 5v36h171v-96q67 110 148 110q57 0 91 -31zM115 649l25 26l106 -71l104 69l25 -23q-77 -75 -109 -119h-45
q-43 57 -106 118z" />
    <glyph glyph-name="Sacute" unicode="&#x15a;" horiz-adv-x="562" 
d="M478 486h-38q0 80 -25 122q-16 29 -52 48.5t-88 19.5q-59 0 -93 -31.5t-34 -83.5q0 -53 35.5 -88.5t130.5 -76.5q40 -17 61.5 -27.5t51.5 -30t45 -39t26 -49.5t11 -67q0 -91 -67.5 -142t-148.5 -51q-107 0 -181 81q-17 -21 -19 -74h-38v252h38q1 -103 58.5 -163
t132.5 -60q128 0 128 132q0 59 -36 94t-107 65q-51 22 -83.5 39t-66 42.5t-50 57.5t-16.5 72q0 84 59 133t147 49t158 -43q18 24 23 59h38v-240zM377 816q0 -13 -17.5 -21t-67.5 -22l-79 -23l-29 21l70 49q59 42 80 42q14 0 28.5 -15t14.5 -31z" />
    <glyph glyph-name="sacute" unicode="&#x15b;" horiz-adv-x="423" 
d="M368 482v-154h-36q0 7 -4 31q-18 82 -112 82q-37 0 -59.5 -20t-22.5 -54q0 -32 25 -55t90 -49q68 -27 103.5 -57.5t35.5 -83.5q0 -64 -50 -98t-116 -34q-38 0 -71.5 12t-48 22.5t-18.5 16.5q-8 -16 -15 -51h-34v175h35q2 -73 43 -106.5t93 -33.5q40 0 62 19.5t22 54.5
q0 34 -18.5 52t-66.5 39q-81 35 -123.5 70.5t-42.5 90.5q0 59 43 92t115 33t125 -35q8 16 10 41h36zM309 651q0 -13 -10 -26.5t-22 -24t-42 -33.5l-74 -57l-31 18l54 84q29 48 42 62.5t30 14.5t35 -12t18 -26z" />
    <glyph glyph-name="Scaron" unicode="&#x160;" horiz-adv-x="562" 
d="M478 486h-38q0 80 -25 122q-16 29 -52 48.5t-88 19.5q-59 0 -93 -31.5t-34 -83.5q0 -53 35.5 -88.5t130.5 -76.5q40 -17 61.5 -27.5t51.5 -30t45 -39t26 -49.5t11 -67q0 -91 -67.5 -142t-148.5 -51q-107 0 -181 81q-17 -21 -19 -74h-38v252h38q1 -103 58.5 -163
t132.5 -60q128 0 128 132q0 59 -36 94t-107 65q-51 22 -83.5 39t-66 42.5t-50 57.5t-16.5 72q0 84 59 133t147 49t158 -43q18 24 23 59h38v-240zM140 843l25 27l108 -52l102 49l22 -26q-65 -48 -106 -91h-45q-46 48 -106 93z" />
    <glyph glyph-name="scaron" unicode="&#x161;" horiz-adv-x="423" 
d="M368 482v-154h-36q0 7 -4 31q-18 82 -112 82q-37 0 -59.5 -20t-22.5 -54q0 -32 25 -55t90 -49q68 -27 103.5 -57.5t35.5 -83.5q0 -64 -50 -98t-116 -34q-38 0 -71.5 12t-48 22.5t-18.5 16.5q-8 -16 -15 -51h-34v175h35q2 -73 43 -106.5t93 -33.5q40 0 62 19.5t22 54.5
q0 34 -18.5 52t-66.5 39q-81 35 -123.5 70.5t-42.5 90.5q0 59 43 92t115 33t125 -35q8 16 10 41h36zM82 649l25 26l106 -71l104 69l25 -23q-77 -75 -109 -119h-45q-43 57 -106 118z" />
    <glyph glyph-name="Tcaron" unicode="&#x164;" horiz-adv-x="652" 
d="M456 36v-36h-259v36l70 5q6 0 9.5 4t3.5 8v607l-170 6q-9 0 -12 -13l-40 -171h-38l9 219h595l8 -219h-38l-36 173q-1 13 -13 13l-173 -8v-607q0 -12 12 -12zM198 843l25 27l108 -52l102 49l22 -26q-65 -48 -106 -91h-45q-46 48 -106 93z" />
    <glyph glyph-name="tcaron" unicode="&#x165;" horiz-adv-x="393" 
d="M179 559v-92h156v-37h-156v-307q0 -48 16.5 -68.5t50.5 -20.5q31 0 56 21.5t35.5 42.5t16.5 43l29 -12q-15 -60 -54.5 -99.5t-103.5 -39.5q-67 0 -102.5 32.5t-35.5 84.5v323l-67 7v25l67 5l30 92h62zM366 756q28 0 46 -19t18 -48q0 -64 -64 -162l-32 15q38 53 38 79
q0 12 -18 14q-54 2 -54 57q0 30 18.5 47t47.5 17z" />
    <glyph glyph-name="Umacron" unicode="&#x16a;" horiz-adv-x="768" 
d="M713 665l-71 -5q-12 -2 -12 -13v-452q0 -48 -15 -84.5t-38 -58.5t-55.5 -36t-64 -19t-66.5 -5q-47 0 -89.5 10.5t-80 33t-60 62.5t-22.5 94v456q0 13 -13 13l-71 4v36h259v-36l-70 -4q-13 0 -13 -13v-452q0 -81 45 -124t123 -43q83 0 136.5 41t53.5 121v456q0 11 -12 13
l-70 5v36h206v-36zM271 751v46h278v-46h-278z" />
    <glyph glyph-name="umacron" unicode="&#x16b;" horiz-adv-x="624" 
d="M341 467h170v-415q0 -13 12 -13l66 -3v-36h-170v100q-23 -45 -65.5 -77.5t-101.5 -32.5q-154 0 -154 143v281q0 10 -11 12l-67 5v36h170v-304q0 -70 17 -103.5t65 -33.5q47 0 88.5 40.5t58.5 95.5v252q0 11 -11 13l-67 4v36zM163 530v46h278v-46h-278z" />
    <glyph glyph-name="Uring" unicode="&#x16e;" horiz-adv-x="768" 
d="M713 665l-71 -5q-12 -2 -12 -13v-452q0 -48 -15 -84.5t-38 -58.5t-55.5 -36t-64 -19t-66.5 -5q-47 0 -89.5 10.5t-80 33t-60 62.5t-22.5 94v456q0 13 -13 13l-71 4v36h259v-36l-70 -4q-13 0 -13 -13v-452q0 -81 45 -124t123 -43q83 0 136.5 41t53.5 121v456q0 11 -12 13
l-70 5v36h206v-36zM372 815q0 -20 10.5 -31t26.5 -11t26.5 11.5t10.5 30.5q0 20 -10.5 31t-26.5 11t-26.5 -11t-10.5 -31zM335 815q0 31 21.5 52.5t52.5 21.5t52.5 -21.5t21.5 -52.5t-21.5 -52.5t-52.5 -21.5t-52.5 21.5t-21.5 52.5z" />
    <glyph glyph-name="uring" unicode="&#x16f;" horiz-adv-x="624" 
d="M341 467h170v-415q0 -13 12 -13l66 -3v-36h-170v100q-23 -45 -65.5 -77.5t-101.5 -32.5q-154 0 -154 143v281q0 10 -11 12l-67 5v36h170v-304q0 -70 17 -103.5t65 -33.5q47 0 88.5 40.5t58.5 95.5v252q0 11 -11 13l-67 4v36zM257 585q0 -20 10.5 -31t26.5 -11t26.5 11.5
t10.5 30.5q0 20 -10.5 31t-26.5 11t-26.5 -11t-10.5 -31zM220 585q0 31 21.5 52.5t52.5 21.5t52.5 -21.5t21.5 -52.5t-21.5 -52.5t-52.5 -21.5t-52.5 21.5t-21.5 52.5z" />
    <glyph glyph-name="Uogonek" unicode="&#x172;" horiz-adv-x="768" 
d="M713 665l-71 -5q-12 -2 -12 -13v-452q0 -99 -56 -145.5t-141 -55.5q-49 -58 -49 -114q0 -19 10.5 -30.5t29.5 -11.5q33 0 68 52l18 -23q-52 -84 -120 -84q-36 0 -62.5 22.5t-26.5 63.5q0 68 91 123q-47 0 -90 10.5t-80.5 33t-60 62.5t-22.5 94v456q0 13 -13 13l-71 4v36
h259v-36l-70 -4q-13 0 -13 -13v-452q0 -81 45 -124t123 -43q83 0 136.5 41t53.5 121v456q0 11 -12 13l-70 5v36h206v-36z" />
    <glyph glyph-name="uogonek" unicode="&#x173;" horiz-adv-x="624" 
d="M341 467h170v-415q0 -13 12 -13l66 -3v-36h-79q-50 -6 -80 -39t-30 -77q0 -20 10.5 -33t29.5 -13q33 0 68 52l18 -23q-52 -84 -120 -84q-35 0 -62 22.5t-27 63.5q0 28 17 54.5t35 41.5t50 36v99q-23 -45 -65.5 -77.5t-101.5 -32.5q-154 0 -154 143v281q0 10 -11 12l-67 5
v36h170v-304q0 -70 17 -103.5t65 -33.5q47 0 88.5 40.5t58.5 95.5v252q0 11 -11 13l-67 4v36z" />
    <glyph glyph-name="Ydieresis" unicode="&#x178;" horiz-adv-x="706" 
d="M676 701v-36l-77 -6q-13 -2 -17 -11l-174 -371v-220q0 -12 13 -13l88 -8v-36h-289v36l84 8q12 1 12 13v217l-193 376q-6 11 -17 11l-76 4v36h291v-36l-82 -4q-8 -1 -8 -10q2 -8 4 -12l156 -309l146 315q2 4 2 9q0 6 -11 6l-73 5v36h221zM310 836q20 0 33 -12.5t13 -34.5
q0 -23 -14.5 -35.5t-31.5 -12.5q-55 0 -55 48q0 47 55 47zM491 836q21 0 33.5 -12t12.5 -35t-14.5 -35.5t-31.5 -12.5q-55 0 -55 48q0 47 55 47z" />
    <glyph glyph-name="Zacute" unicode="&#x179;" horiz-adv-x="555" 
d="M510 666l-371 -632l281 12q12 0 15 15l42 180h38l-20 -241h-454v35l365 631l-277 -10q-15 0 -15 -15v-158h-38l-36 218h470v-35zM403 806q0 -13 -17.5 -21t-67.5 -22l-79 -23l-29 21l70 49q59 42 80 42q14 0 28.5 -15t14.5 -31z" />
    <glyph glyph-name="zacute" unicode="&#x17a;" horiz-adv-x="441" 
d="M398 441l-258 -407l178 10q15 0 19 14l31 137h38l-14 -195h-357v24l252 405l-172 -7q-13 0 -13 -16l-7 -124h-38l-20 185h361v-26zM333 651q0 -13 -10 -26.5t-22 -24t-42 -33.5l-74 -57l-31 18l54 84q29 48 42 62.5t30 14.5t35 -12t18 -26z" />
    <glyph glyph-name="Zdotaccent" unicode="&#x17b;" horiz-adv-x="555" 
d="M510 666l-371 -632l281 12q12 0 15 15l42 180h38l-20 -241h-454v35l365 631l-277 -10q-15 0 -15 -15v-158h-38l-36 218h470v-35zM287 835q20 0 33 -12.5t13 -34.5q0 -23 -14.5 -35.5t-31.5 -12.5q-55 0 -55 48q0 47 55 47z" />
    <glyph glyph-name="zdotaccent" unicode="&#x17c;" horiz-adv-x="441" 
d="M398 441l-258 -407l178 10q15 0 19 14l31 137h38l-14 -195h-357v24l252 405l-172 -7q-13 0 -13 -16l-7 -124h-38l-20 185h361v-26zM228 625q20 0 33 -12.5t13 -34.5q0 -23 -14.5 -35.5t-31.5 -12.5q-55 0 -55 48q0 47 55 47z" />
    <glyph glyph-name="Zcaron" unicode="&#x17d;" horiz-adv-x="555" 
d="M510 666l-371 -632l281 12q12 0 15 15l42 180h38l-20 -241h-454v35l365 631l-277 -10q-15 0 -15 -15v-158h-38l-36 218h470v-35zM146 843l25 27l108 -52l102 49l22 -26q-65 -48 -106 -91h-45q-46 48 -106 93z" />
    <glyph glyph-name="zcaron" unicode="&#x17e;" horiz-adv-x="441" 
d="M398 441l-258 -407l178 10q15 0 19 14l31 137h38l-14 -195h-357v24l252 405l-172 -7q-13 0 -13 -16l-7 -124h-38l-20 185h361v-26zM98 649l25 26l106 -71l104 69l25 -23q-77 -75 -109 -119h-45q-43 57 -106 118z" />
    <glyph glyph-name="circumflex" unicode="&#x2c6;" horiz-adv-x="260" 
d="M25 531l-25 26q63 61 106 118h45q32 -44 109 -119l-32 -25l-101 71z" />
    <glyph glyph-name="caron" unicode="&#x2c7;" horiz-adv-x="260" 
d="M0 649l25 26l106 -71l104 69l25 -23q-77 -75 -109 -119h-45q-43 57 -106 118z" />
    <glyph glyph-name="dotaccent" unicode="&#x2d9;" horiz-adv-x="101" 
d="M55 637q20 0 33 -12.5t13 -34.5q0 -23 -14.5 -35.5t-31.5 -12.5q-55 0 -55 48q0 47 55 47z" />
    <glyph glyph-name="ring" unicode="&#x2da;" horiz-adv-x="112" 
d="M30 601q0 -20 10.5 -31t26.5 -11t26.5 11.5t10.5 30.5q0 20 -10.5 31t-26.5 11t-26.5 -11t-10.5 -31zM-7 601q0 31 21.5 52.5t52.5 21.5t52.5 -21.5t21.5 -52.5t-21.5 -52.5t-52.5 -21.5t-52.5 21.5t-21.5 52.5z" />
    <glyph glyph-name="ogonek" unicode="&#x2db;" horiz-adv-x="203" 
d="M105 35l28 7q-93 -85 -93 -162q0 -19 10.5 -30.5t29.5 -11.5q33 0 68 52l18 -23q-52 -84 -120 -84q-34 0 -61.5 22.5t-27.5 63.5q0 29 17 55t36.5 41.5t51 37t43.5 32.5z" />
    <glyph glyph-name="tilde" unicode="&#x2dc;" horiz-adv-x="328" 
d="M303 632l25 -21q-61 -69 -121 -69q-23 0 -69 27q-40 25 -57 25q-24 0 -56 -39l-25 24q57 70 121 70q30 0 66 -26q38 -24 60 -24q21 0 56 33z" />
    <glyph glyph-name="afii10023" unicode="&#x401;" horiz-adv-x="624" 
d="M234 835q20 0 33 -12.5t13 -34.5q0 -23 -14.5 -35.5t-31.5 -12.5q-55 0 -55 48q0 47 55 47zM415 835q21 0 33.5 -12t12.5 -35t-14.5 -35.5t-31.5 -12.5q-55 0 -55 48q0 47 55 47zM531 506h-37v148q0 11 -10 11l-271 -9v-277h99q60 0 60 124h38v-284h-36q0 124 -63 124
h-98v-296l245 -10q19 0 22 17l27 161h38v-215h-506v37l71 3q11 0 11 12v594q0 12 -12 12l-70 5v38h533z" />
    <glyph glyph-name="afii10052" unicode="&#x403;" horiz-adv-x="563" 
d="M503 506h-37v146q0 16 -23 16q-1 0 -7 -0.5t-8 -0.5l-200 -13v-596q0 -11 11 -13l80 -9v-36h-264v36l70 9q11 1 11 13v587q0 13 -12 13l-69 5v38h489zM427 806q0 -13 -17.5 -21t-67.5 -22l-79 -23l-29 21l70 49q59 42 80 42q14 0 28.5 -15t14.5 -31z" />
    <glyph glyph-name="afii10053" unicode="&#x404;" horiz-adv-x="659" 
d="M546 707h40v-221h-40q0 83 -50 131.5t-135 48.5q-37 0 -70.5 -14t-65.5 -46t-51 -94.5t-19 -149.5h160q25 0 38 18t16.5 42.5t3.5 65.5h38v-289h-38q0 62 -13 93t-46 31h-159q1 -141 60.5 -215t157.5 -74q43 0 81 16t64 42t41.5 47.5t27.5 44.5l32 -19q-11 -25 -30 -52
t-50.5 -57.5t-80 -50t-103.5 -19.5q-61 0 -113 19t-95.5 59t-68.5 110.5t-25 165.5t27.5 168t72 114t94 61t100.5 20q59 0 101.5 -14t87.5 -49q10 26 10 67z" />
    <glyph glyph-name="afii10054" unicode="&#x405;" horiz-adv-x="562" 
d="M478 486h-38q0 80 -25 122q-16 29 -52 48.5t-88 19.5q-59 0 -93 -31.5t-34 -83.5q0 -53 35.5 -88.5t130.5 -76.5q40 -17 61.5 -27.5t51.5 -30t45 -39t26 -49.5t11 -67q0 -91 -67.5 -142t-148.5 -51q-107 0 -181 81q-17 -21 -19 -74h-38v252h38q1 -103 58.5 -163
t132.5 -60q128 0 128 132q0 59 -36 94t-107 65q-51 22 -83.5 39t-66 42.5t-50 57.5t-16.5 72q0 84 59 133t147 49t158 -43q18 24 23 59h38v-240z" />
    <glyph glyph-name="afii10055" unicode="&#x406;" horiz-adv-x="376" 
d="M60 701h256v-38l-70 -4q-12 0 -12 -13v-592q0 -12 12 -12l70 -5v-37h-256v37l70 4q12 0 12 13v592q0 13 -11 13l-71 4v38z" />
    <glyph glyph-name="afii10056" unicode="&#x407;" horiz-adv-x="376" 
d="M60 701h256v-38l-70 -4q-12 0 -12 -13v-592q0 -12 12 -12l70 -5v-37h-256v37l70 4q12 0 12 13v592q0 13 -11 13l-71 4v38zM106 835q20 0 33 -12.5t13 -34.5q0 -23 -14.5 -35.5t-31.5 -12.5q-55 0 -55 48q0 47 55 47zM287 835q21 0 33.5 -12t12.5 -35t-14.5 -35.5
t-31.5 -12.5q-55 0 -55 48q0 47 55 47z" />
    <glyph glyph-name="afii10057" unicode="&#x408;" horiz-adv-x="434" 
d="M384 662l-69 -5q-13 -2 -13 -16v-482q0 -87 -51.5 -130t-119.5 -43q-32 0 -58 6.5t-46.5 26.5t-20.5 52q0 58 50 58q22 0 39 -7v-90q15 -11 43 -11q39 0 55.5 27.5t16.5 91.5v502q0 13 -13 15l-79 5v39h266v-39z" />
    <glyph glyph-name="afii10058" unicode="&#x409;" horiz-adv-x="1008" 
d="M438 0v36l69 5q12 0 12 12v608h-187l-22 -310q-7 -92 -21.5 -160.5t-32 -106t-41 -60t-42.5 -28.5t-41 -6q-45 0 -73.5 23.5t-28.5 65.5q0 31 18.5 52.5t49.5 21.5q16 0 40 -3v-95q10 -2 19 -2q33 0 60.5 78t40.5 210q18 180 18 277q0 47 -104 47v36h522v-36l-70 -4
q-13 0 -13 -11v-266q95 27 168 27q34 0 66.5 -9.5t63.5 -30.5t50 -60t19 -91q0 -109 -70 -164.5t-188 -55.5h-282zM733 373q-47 0 -122 -24v-304q53 -11 110 -11q67 0 112 45.5t45 129.5q0 164 -145 164z" />
    <glyph glyph-name="afii10059" unicode="&#x40a;" horiz-adv-x="1037" 
d="M313 663l-69 -2q-14 0 -14 -12v-270h318v270q0 10 -13 11l-70 5v36h258v-36l-72 -5q-11 0 -11 -8v-268q94 27 168 27q34 0 66.5 -9.5t63.5 -30.5t50 -60t19 -91q0 -109 -74 -164.5t-198 -55.5h-269v37l70 3q4 0 8 3.5t4 8.5v290h-318v-289q0 -12 12 -13l71 -3v-37h-258
v37l72 4q11 0 11 12v593q0 14 -12 14l-71 3v38h258v-38zM762 373q-47 0 -122 -24v-304q63 -11 100 -11q73 0 120 45t47 130q0 164 -145 164z" />
    <glyph glyph-name="afii10060" unicode="&#x40b;" horiz-adv-x="0" 
 />
    <glyph glyph-name="afii10061" unicode="&#x40c;" horiz-adv-x="745" 
d="M144 60v582q0 12 -12 13l-70 10v36h255v-36l-69 -10q-12 -2 -12 -13v-246h81q59 0 83 59l74 183q16 39 43 55.5t69 16.5q26 0 51.5 -10.5t38.5 -26.5q5 -16 5 -43q0 -32 -18 -52.5t-50 -20.5q-18 0 -38 4v96q-9 4 -21 4q-25 0 -41 -39l-73 -180q-15 -38 -42 -51v-4
q33 0 56 -3.5t48 -12.5t39.5 -29.5t17.5 -51.5l22 -204q5 -43 46 -43q29 0 48 15l15 -33q-14 -13 -44.5 -24t-61.5 -11q-87 0 -95 69l-24 228q-8 70 -109 70h-120v-297q0 -13 12 -14l69 -10v-36h-256v36l70 10q13 1 13 14zM503 806q0 -13 -17.5 -21t-67.5 -22l-79 -23
l-29 21l70 49q59 42 80 42q14 0 28.5 -15t14.5 -31z" />
    <glyph glyph-name="afii10062" unicode="&#x40e;" horiz-adv-x="686" 
d="M378 773q42 0 65 10v93q22 7 40 7q56 0 56 -45q0 -49 -48.5 -73t-112.5 -24q-65 0 -114 23.5t-49 73.5q0 21 15 33t42 12q17 0 41 -7v-93q23 -10 65 -10zM300 666l-76 -5q-12 -1 -12 -8q0 -9 8 -25l156 -413l142 405l3.5 10.5t4.5 12.5t2 6q0 10 -11 10l-74 7v36h218v-36
l-72 -5q-12 -1 -15 -12l-205 -578q-48 -138 -149 -138q-48 0 -80 23.5t-32 69.5q0 28 14.5 46.5t45.5 18.5q29 0 44 -5v-100q11 -5 28 -5q51 0 90 110l-217 556q-4 10 -18 12l-70 7v36h275v-36z" />
    <glyph glyph-name="afii10017" unicode="&#x410;" horiz-adv-x="717" 
d="M702 0h-271v37l70 5q10 0 10 9q0 4 -5 17l-53 159h-238l-53 -149q-8 -19 -8 -27q0 -10 16 -10l63 -4v-37h-217v37l74 5q17 1 25 25l240 662h21l233 -674q4 -10 15 -11l78 -7v-37zM339 571l-111 -306h213z" />
    <glyph glyph-name="afii10018" unicode="&#x411;" horiz-adv-x="633" 
d="M536 505h-37v146q0 16 -18 16q-3 0 -14 -0.5t-14 -0.5l-222 -11v-282q93 27 170 27q35 0 68 -9t64.5 -29t50.5 -58t19 -89q0 -103 -72.5 -159t-177.5 -56h-298v36l71 8q13 1 13 15v585q0 15 -14 15l-70 5v36h522zM231 44q60 -8 122 -8q150 0 150 174q0 154 -137 154
q-71 0 -135 -24v-296z" />
    <glyph glyph-name="afii10019" unicode="&#x412;" horiz-adv-x="649" 
d="M567 555q0 -74 -58.5 -121.5t-142.5 -53.5v-4q109 -8 169.5 -49t60.5 -130q0 -95 -74 -146t-182 -51h-285v36l71 7q11 2 11 13v591q0 13 -12 14l-70 4v36h300q212 0 212 -146zM229 662v-269h87q63 0 106.5 42.5t43.5 109.5q0 65 -38.5 95.5t-103.5 30.5q-36 0 -95 -9z
M229 356v-313q72 -8 112 -8q74 0 114.5 42.5t40.5 121.5q0 82 -49.5 119.5t-130.5 37.5h-87z" />
    <glyph glyph-name="afii10020" unicode="&#x413;" horiz-adv-x="563" 
d="M503 506h-37v146q0 16 -23 16q-1 0 -7 -0.5t-8 -0.5l-200 -13v-596q0 -11 11 -13l80 -9v-36h-264v36l70 9q11 1 11 13v587q0 13 -12 13l-69 5v38h489z" />
    <glyph glyph-name="afii10021" unicode="&#x414;" horiz-adv-x="725" 
d="M670 663l-66 -7q-7 0 -12 -4.5t-5 -8.5v-603l79 -5l-16 -243h-38l-19 179q-1 13 -8.5 21t-16.5 8h-435q-23 0 -31 -33l-44 -175h-38l12 243l74 7q65 67 100 218.5t35 272.5q0 74 -19.5 101.5t-86.5 28.5v38h535v-38zM178 40h317v613h-203q0 -187 -22 -335t-92 -278z" />
    <glyph glyph-name="afii10022" unicode="&#x415;" horiz-adv-x="623" 
d="M547 506h-37v148q0 11 -10 11l-271 -9v-277h99q60 0 60 124h38v-284h-36q0 124 -63 124h-98v-296l245 -10q19 0 22 17l27 161h38v-215h-506v37l71 3q11 0 11 12v594q0 12 -12 12l-70 5v38h533z" />
    <glyph glyph-name="afii10024" unicode="&#x416;" horiz-adv-x="1065" 
d="M496 60v297h-52q-40 0 -61 -1.5t-48 -7.5t-40.5 -21t-16.5 -39l-30 -218q-6 -48 -31 -64t-68 -16q-61 0 -102 35l16 33q17 -15 42 -15q42 0 49 50l25 175q18 121 165 121v5q-24 12 -36 38l-89 197q-18 40 -38 40q-10 0 -18 -4v-97q-18 -3 -38 -3q-68 0 -68 62q0 26 6 50
q34 33 90 33q42 0 65.5 -16t41.5 -56l85 -183q27 -59 84 -59h67v243q0 11 -13 13l-70 11v38h257v-38l-70 -11q-12 -2 -12 -13v-243h72q57 0 84 59l84 183q17 40 41 56t66 16q55 0 90 -33q6 -24 6 -50q0 -62 -68 -62q-20 0 -38 3v97q-8 4 -18 4q-20 0 -38 -40l-88 -197
q-12 -26 -36 -38v-5q151 0 164 -121l19 -175q6 -50 49 -50q25 0 42 15l16 -33q-41 -35 -102 -35q-44 0 -69 16.5t-30 63.5l-23 218q-3 24 -16 39t-40 21t-48.5 7.5t-61.5 1.5h-57v-297q0 -12 12 -13l70 -10v-37h-257v37l71 10q12 1 12 13z" />
    <glyph glyph-name="afii10025" unicode="&#x417;" horiz-adv-x="566" 
d="M67 716h40q2 -46 9 -65q80 59 182 59q85 0 142.5 -42t57.5 -121q0 -144 -200 -170v-7q104 -6 159.5 -45t55.5 -125q0 -46 -16.5 -83.5t-42.5 -60.5t-59 -38.5t-64 -21.5t-60 -6q-164 0 -246 129l29 24q70 -105 197 -105q69 0 115.5 40.5t46.5 117.5q0 86 -46.5 120.5
t-146.5 34.5h-47v36h48q75 0 126 41t51 116q0 127 -125 127q-86 0 -125.5 -55t-39.5 -126h-41v226z" />
    <glyph glyph-name="afii10026" unicode="&#x418;" horiz-adv-x="792" 
d="M737 701v-36l-67 -9q-15 -1 -15 -13v-589q0 -11 13 -12l69 -6v-36h-255v36l69 5q12 2 12 13v476l-333 -427v-49q0 -13 14 -13l68 -5v-36h-257v36l72 5q11 2 11 13v590q0 10 -13 14l-70 7v36h257v-36l-69 -8q-13 0 -13 -13v-473l333 433v41q0 13 -12 13l-69 7v36h255z" />
    <glyph glyph-name="afii10027" unicode="&#x419;" horiz-adv-x="792" 
d="M737 701v-36l-67 -9q-15 -1 -15 -13v-589q0 -11 13 -12l69 -6v-36h-255v36l69 5q12 2 12 13v476l-333 -427v-49q0 -13 14 -13l68 -5v-36h-257v36l72 5q11 2 11 13v590q0 10 -13 14l-70 7v36h257v-36l-69 -8q-13 0 -13 -13v-473l333 433v41q0 13 -12 13l-69 7v36h255z
M404 774q45 0 67 11v96q24 7 42 7q28 0 43 -12.5t15 -34.5q0 -51 -50.5 -75.5t-116.5 -24.5q-67 0 -117.5 24.5t-50.5 75.5q0 22 15 34.5t43 12.5q18 0 43 -7v-96q22 -11 67 -11z" />
    <glyph glyph-name="afii10028" unicode="&#x41a;" horiz-adv-x="735" 
d="M138 60v582q0 12 -12 13l-70 10v36h255v-36l-69 -10q-12 -2 -12 -13v-246h81q59 0 83 59l74 183q16 39 43 55.5t69 16.5q26 0 51.5 -10.5t38.5 -26.5q5 -16 5 -43q0 -32 -18 -52.5t-50 -20.5q-18 0 -38 4v96q-9 4 -21 4q-25 0 -41 -39l-73 -180q-15 -38 -42 -51v-4
q33 0 56 -3.5t48 -12.5t39.5 -29.5t17.5 -51.5l22 -204q5 -43 46 -43q29 0 48 15l15 -33q-14 -13 -44.5 -24t-61.5 -11q-87 0 -95 69l-24 228q-8 70 -109 70h-120v-297q0 -13 12 -14l69 -10v-36h-256v36l70 10q13 1 13 14z" />
    <glyph glyph-name="afii10029" unicode="&#x41b;" horiz-adv-x="759" 
d="M704 701v-36l-70 -4q-13 0 -13 -13v-595q0 -10 14 -12l69 -5v-36h-256v36l69 5q12 0 12 12v608h-197l-22 -315q-7 -92 -21.5 -160t-31.5 -105t-40 -58.5t-41 -27t-41 -5.5q-46 0 -75.5 25t-29.5 72q0 30 18.5 48t49.5 18q16 0 40 -3v-95q10 -2 19 -2q33 0 60.5 77.5
t40.5 210.5q18 196 18 277q0 47 -104 47v36h532z" />
    <glyph glyph-name="afii10030" unicode="&#x41c;" horiz-adv-x="941" 
d="M886 0h-257v36l70 5q13 0 13 12v550l-4 1l-241 -613h-43l-235 624l-3 -1v-560q0 -12 12 -12l69 -6v-36h-212v36l70 5q12 0 12 12v595q0 11 -13 12l-68 4v37h204l211 -574l224 574h191v-37l-70 -4q-12 0 -12 -12v-595q0 -12 12 -12l70 -5v-36z" />
    <glyph glyph-name="afii10031" unicode="&#x41d;" horiz-adv-x="788" 
d="M313 663l-69 -2q-14 0 -14 -12v-270h328v268q0 13 -13 13l-70 3v38h258v-38l-71 -3q-12 0 -12 -13v-594q0 -12 12 -12l70 -4v-37h-256v37l70 3q4 0 8 4t4 9v289h-328v-289q0 -12 12 -13l71 -3v-37h-258v37l72 4q11 0 11 12v593q0 14 -12 14l-71 3v38h258v-38z" />
    <glyph glyph-name="afii10032" unicode="&#x41e;" horiz-adv-x="738" 
d="M685 343q0 -91 -25.5 -161t-69.5 -111t-99 -61.5t-118 -20.5q-69 0 -125.5 19.5t-101 60.5t-69 110.5t-24.5 163.5q0 185 88 276t232 91q143 0 227.5 -91t84.5 -276zM373 25q97 0 154.5 79.5t57.5 246.5q0 326 -212 326q-101 0 -160.5 -78t-59.5 -249q0 -325 220 -325z
" />
    <glyph glyph-name="afii10033" unicode="&#x41f;" horiz-adv-x="811" 
d="M756 663l-88 -4q-13 0 -13 -13v-592q0 -4 3.5 -8.5t9.5 -4.5l77 -4v-37h-271v37l76 5q5 0 9 3.5t4 8.5v604h-328v-604q0 -12 12 -13l77 -4v-37h-269v37l75 5q13 1 13 13v591q0 12 -13 12l-75 5v38h701v-38z" />
    <glyph glyph-name="afii10034" unicode="&#x420;" horiz-adv-x="651" 
d="M55 701h303q248 0 248 -200q0 -53 -24 -95t-62 -66t-79.5 -36.5t-81.5 -12.5q-66 0 -130 18v-251q0 -12 12 -14l78 -7v-37h-264v38l68 7q14 2 14 14v587q0 11 -13 13l-69 5v37zM229 658v-309q51 -20 120 -20q62 0 109.5 43.5t47.5 125.5q0 88 -44 130t-137 42
q-20 0 -44 -3t-38 -6z" />
    <glyph glyph-name="afii10035" unicode="&#x421;" horiz-adv-x="646" 
d="M531 650q12 20 15 46h38v-201h-38q-8 65 -31 102q-45 75 -142 75q-99 0 -160 -79.5t-61 -243.5q0 -83 19.5 -144t53.5 -94.5t72.5 -49.5t81.5 -16q66 0 115.5 34.5t78.5 76.5l28 -23q-14 -23 -32 -44t-47.5 -45t-72.5 -38.5t-92 -14.5q-55 0 -106 17.5t-97 55.5
t-73.5 107.5t-27.5 163.5q0 181 88 278t213 97q107 0 177 -60z" />
    <glyph glyph-name="afii10036" unicode="&#x422;" horiz-adv-x="652" 
d="M456 36v-36h-259v36l70 5q6 0 9.5 4t3.5 8v607l-170 6q-9 0 -12 -13l-40 -171h-38l9 219h595l8 -219h-38l-36 173q-1 13 -13 13l-173 -8v-607q0 -12 12 -12z" />
    <glyph glyph-name="afii10037" unicode="&#x423;" horiz-adv-x="686" 
d="M300 665l-76 -5q-12 -2 -12 -8q0 -9 8 -25l156 -413l142 405l3.5 10.5t4.5 12.5t2 6q0 10 -11 10l-74 7v36h218v-36l-72 -5q-12 -2 -15 -12l-205 -578q-48 -138 -149 -138q-48 0 -80 23.5t-32 69.5q0 28 14.5 46.5t45.5 18.5q29 0 44 -5v-100q11 -5 28 -5q51 0 90 110
l-217 556q-4 10 -18 12l-70 7v36h275v-36z" />
    <glyph glyph-name="afii10038" unicode="&#x424;" horiz-adv-x="850" 
d="M797 393q0 -62 -14.5 -110t-36.5 -76t-50.5 -46t-52.5 -24t-47 -6q-73 0 -125 47v-126q0 -5 4 -8.5t9 -3.5l69 -4v-36h-256v36l70 4q12 0 12 12v127q-57 -48 -127 -48q-36 0 -69 13t-63.5 41t-48.5 81.5t-18 126.5q0 72 21 125t55 80t68 39t68 12q69 0 114 -46v80
q0 13 -12 13l-70 5v37h256v-37l-69 -4q-5 0 -9 -4.5t-4 -9.5v-84q58 50 137 50q32 0 62 -11.5t60 -38.5t48.5 -80t18.5 -126zM283 173q29 0 56 14.5t40 30.5v334q-11 22 -37.5 40.5t-54.5 18.5q-59 0 -96.5 -51.5t-37.5 -166.5t36 -167.5t94 -52.5zM574 171q50 0 86.5 58.5
t36.5 163.5q0 119 -29.5 169.5t-88.5 50.5q-33 0 -62 -17.5t-46 -37.5v-340q43 -47 103 -47z" />
    <glyph glyph-name="afii10039" unicode="&#x425;" horiz-adv-x="685" 
d="M638 665l-68 -5q-14 -2 -21 -13l-165 -278l179 -314q7 -13 18 -13l74 -5v-37h-267v36l63 4q10 0 10 9q0 3 -3 8l-138 243l-142 -235q-7 -12 -7 -18q0 -8 10 -8l70 -3v-36h-219v36l74 3q11 0 18 12l174 286l-180 312q-7 12 -19 12l-69 4v36h279v-36l-74 -3q-12 0 -12 -8
q0 -2 13 -26l129 -222l137 238q3 4 3 9q0 8 -11 8l-76 4v36h220v-36z" />
    <glyph glyph-name="afii10040" unicode="&#x426;" horiz-adv-x="792" 
d="M737 37l-18 -244h-38l-20 177q-1 11 -2.5 16.5t-7.5 9.5t-17 4h-579v37l70 4q12 0 12 12v596q0 12 -13 12l-69 3v37h256v-37l-71 -4q-11 -2 -11 -12v-607h328v608q0 12 -13 12l-68 3v37h255v-37l-70 -3q-12 0 -12 -12v-607z" />
    <glyph glyph-name="afii10041" unicode="&#x427;" horiz-adv-x="773" 
d="M718 0h-256v37l70 4q12 0 12 12v286q-105 -59 -197 -59q-111 0 -165 46t-54 130v192q0 12 -13 12l-70 3v38h257v-38l-69 -3q-13 0 -13 -12v-185q0 -147 133 -147q112 0 191 65v267q0 10 -12 12l-70 3v38h256v-38l-69 -3q-13 0 -13 -12v-595q0 -12 13 -12l69 -4v-37z" />
    <glyph glyph-name="afii10042" unicode="&#x428;" horiz-adv-x="1081" 
d="M1017 0h-952v37l69 4q5 0 9 3.5t4 8.5v594q0 13 -12 13l-70 3v38h255v-38l-69 -4q-12 0 -12 -12v-606h256v606q0 13 -12 13l-69 3v38h255v-38l-69 -4q-13 0 -13 -12v-606h256v606q0 13 -12 13l-69 3v38h255v-38l-70 -3q-12 0 -12 -13v-594q0 -12 12 -13l70 -3v-37z" />
    <glyph glyph-name="afii10043" unicode="&#x429;" horiz-adv-x="1080" 
d="M925 0h-860v35l70 4q5 0 8.5 3.5t3.5 8.5v596q0 12 -12 12l-70 4v38h256v-38l-67 -4q-15 0 -15 -12v-608h256v608q0 12 -12 12l-70 4v38h256v-38l-70 -4q-12 0 -12 -12v-608h255v608q0 12 -12 12l-70 4v38h258v-38l-72 -4q-12 0 -12 -12v-608l87 -4l-19 -243h-38l-17 188
q-2 20 -22 20z" />
    <glyph glyph-name="afii10044" unicode="&#x42a;" horiz-adv-x="735" 
d="M317 654v-274q91 29 183 29q34 0 67.5 -9.5t65.5 -30t52 -59.5t20 -91q0 -107 -73 -163t-187 -56h-305v36l70 9q15 0 15 15v604l-116 4q-22 0 -28 -22l-38 -162h-38l10 217h387v-36l-78 -3q-7 0 -7 -8zM317 46q47 -13 127 -13q70 0 115.5 43.5t45.5 131.5t-42.5 126.5
t-112.5 38.5q-66 0 -133 -26v-301z" />
    <glyph glyph-name="afii10045" unicode="&#x42b;" horiz-adv-x="975" 
d="M55 0v36l69 8q14 2 14 13v591q0 12 -14 12l-69 5v36h258v-36l-71 -5q-12 0 -12 -12v-267q95 29 176 29q35 0 67.5 -8.5t64 -27.5t50.5 -57t19 -91q0 -108 -72 -167t-187 -59h-293zM920 665l-71 -4q-11 -2 -11 -14v-589q0 -13 11 -14l71 -8v-36h-256v36l69 7q13 0 13 14
v590q0 12 -12 14l-71 4v36h257v-36zM361 374q-65 0 -131 -26v-303q62 -11 119 -11q67 0 112.5 47.5t45.5 135.5q0 86 -37.5 121.5t-108.5 35.5z" />
    <glyph glyph-name="afii10046" unicode="&#x42c;" horiz-adv-x="637" 
d="M55 0v36l70 8q13 1 13 13v591q0 12 -13 12l-70 5v36h258v-36l-71 -5q-12 -2 -12 -12v-264q95 27 178 27q34 0 66.5 -9.5t63.5 -30.5t50 -60t19 -91q0 -109 -70 -164.5t-188 -55.5h-294zM362 373q-57 0 -132 -24v-304q53 -11 120 -11t112 45.5t45 129.5q0 164 -145 164z
" />
    <glyph glyph-name="afii10047" unicode="&#x42d;" horiz-adv-x="656" 
d="M72 713h41q0 -41 9 -70q88 66 197 66q38 0 75.5 -10.5t76 -36.5t67.5 -64.5t47 -99.5t18 -136q0 -95 -25.5 -168.5t-69.5 -117t-97.5 -65t-114.5 -21.5q-45 0 -85 13.5t-67 33t-49.5 45.5t-34.5 46.5t-20 40.5l32 22q11 -24 26.5 -47t41 -49t63.5 -41.5t82 -15.5
q99 0 158.5 73.5t59.5 216.5h-159q-33 0 -45.5 -31t-12.5 -93h-41v289h41q0 -42 3 -65.5t16 -42t38 -18.5h160q0 89 -19 152t-51 94.5t-65 44.5t-70 13q-108 0 -160 -74q-12 -18 -18.5 -53t-6.5 -54h-41v223z" />
    <glyph glyph-name="afii10048" unicode="&#x42e;" horiz-adv-x="996" 
d="M943 356q0 -178 -80 -272t-210 -94q-134 0 -212.5 88t-78.5 265h-132v-290q0 -12 12 -12l69 -4v-37h-255v37l70 4q5 0 8.5 4t3.5 8v594q0 12 -12 12l-71 4v38h256v-38l-69 -4q-12 0 -12 -12v-266h132q10 166 85 247.5t206 81.5q134 0 212 -88t78 -266zM653 25
q85 0 137.5 79t52.5 253q0 89 -16.5 154t-45 100t-60 50.5t-68.5 15.5t-69.5 -15.5t-62 -50.5t-47 -100.5t-17.5 -155.5q0 -175 54.5 -252.5t141.5 -77.5z" />
    <glyph glyph-name="afii10049" unicode="&#x42f;" horiz-adv-x="688" 
d="M300 341v7q-34 2 -64 9.5t-61.5 25t-50 52t-18.5 82.5q0 52 25.5 90.5t66 57.5t81 27.5t81.5 8.5h273v-37l-70 -4q-12 0 -12 -12v-596q0 -12 12 -12l70 -4v-36h-256v36l68 5q14 0 14 11v271h-76q-64 0 -96 -20.5t-40 -81.5l-18 -142q-6 -43 -30 -66t-81 -23q-55 0 -84 27
l19 34q17 -16 39 -16q23 0 32 13.5t13 47.5l16 127q15 115 147 118zM459 360v302q-35 7 -95 7q-62 0 -110 -38t-48 -115q0 -79 51.5 -117.5t128.5 -38.5h73z" />
    <glyph glyph-name="afii10065" unicode="&#x430;" horiz-adv-x="524" 
d="M439 42q24 0 44 69l29 -12q-28 -109 -108 -109t-80 88v16q-22 -40 -66.5 -72t-98.5 -32q-56 0 -88.5 29t-32.5 84q0 153 245 153h41v91q0 99 -83 99q-46 0 -88 -24v-91q-24 -6 -48 -6q-26 0 -35.5 12.5t-9.5 39.5q0 16 3 37q24 21 76 42t106 21q74 0 122.5 -32t48.5 -102
v-266q0 -35 23 -35zM324 152v74h-57q-72 0 -100 -28.5t-28 -82.5q0 -71 68 -71q36 0 70.5 32t46.5 76z" />
    <glyph glyph-name="afii10066" unicode="&#x431;" horiz-adv-x="545" 
d="M507 231q0 -109 -66 -175t-164 -66q-119 0 -179 73t-60 205q0 197 118 322q37 39 90.5 59t103.5 20q23 0 47.5 -3t36.5 -6l13 -3l4 79h44l2 -44q0 -1 0.5 -13t0.5 -13q0 -43 -30.5 -68t-83.5 -25q-26 0 -61 2.5t-46 2.5q-65 0 -90 -25q-21 -21 -34.5 -90.5t-14.5 -111.5
h4q62 107 175 107q85 0 137.5 -59.5t52.5 -167.5zM279 22q58 0 93 54.5t35 143.5q0 88 -34 141.5t-90 53.5q-57 0 -98.5 -55t-41.5 -124q0 -99 37 -156.5t99 -57.5z" />
    <glyph glyph-name="afii10067" unicode="&#x432;" horiz-adv-x="534" 
d="M486 361q0 -104 -155 -110v-4q83 -6 124 -32t41 -84q0 -65 -54 -98t-138 -33h-269v36l68 4q4 0 8 3.5t4 8.5v364q0 12 -12 12l-68 3v36h261q98 0 144 -23t46 -83zM207 229v-189q31 -9 79 -9q110 0 110 101q0 50 -29.5 73.5t-99.5 23.5h-60zM207 429v-165h59q120 0 120 93
q0 81 -104 81z" />
    <glyph glyph-name="afii10068" unicode="&#x433;" horiz-adv-x="444" 
d="M35 467h399l-23 -197h-36l-20 148q-2 15 -18 15l-132 -5v-376q0 -13 12 -13l71 -3v-36h-253v36l68 3q11 0 11 13v358q0 19 -21 19l-58 2v36z" />
    <glyph glyph-name="afii10069" unicode="&#x434;" horiz-adv-x="579" 
d="M538 431l-66 -3q-13 0 -13 -12v-380h85l-31 -243h-40l-7 193q0 14 -14 14h-335q-13 0 -16 -15l-52 -194h-39l16 245h49q43 27 73.5 115.5t30.5 179.5q0 59 -22 79.5t-86 20.5v36h467v-36zM367 36v392h-146q0 -145 -15 -221q-23 -112 -72 -171h233z" />
    <glyph glyph-name="afii10070" unicode="&#x435;" horiz-adv-x="475" 
d="M432 269h-292v-7q-1 -7 -1.5 -17t-0.5 -17q0 -89 37.5 -139t105.5 -50q51 0 86 33t48 68l25 -9q-4 -18 -15.5 -39t-32.5 -45.5t-57.5 -40.5t-80.5 -16q-94 0 -155 60t-61 176q0 118 62.5 184t158.5 66q76 0 127.5 -37.5t51.5 -105.5q0 -29 -6 -64zM259 441q-46 0 -77 -33
t-39 -103h196q5 33 5 53q0 38 -22.5 60.5t-62.5 22.5z" />
    <glyph glyph-name="afii10072" unicode="&#x436;" horiz-adv-x="863" 
d="M386 52v186h-106q-24 0 -36 -14.5t-18 -44.5l-24 -138q-5 -25 -22.5 -38t-54.5 -13q-53 0 -94 32l14 25q17 -11 38 -11q11 0 16 6.5t8 24.5l21 116q14 82 115 83v4q-13 12 -21 30l-42 100q-20 45 -47 45q-5 0 -8 -1v-65q-14 -2 -37 -2q-25 0 -33 11.5t-8 35.5l5 38
q37 14 73 14q59 0 76 -41l55 -132q13 -30 64 -30h66v142q0 11 -12 13l-66 3v36h249v-36l-66 -3q-13 -4 -13 -13v-142h70q51 0 64 30l54 132q17 41 76 41q36 0 73 -14q5 -20 5 -38q0 -24 -8 -35.5t-33 -11.5q-23 0 -37 2v65q-3 1 -8 1q-27 0 -47 -45l-41 -100q-8 -18 -21 -30
v-4q110 -2 119 -80l13 -119q2 -18 8 -24.5t18 -6.5q18 0 37 11l13 -25q-37 -32 -97 -32q-68 0 -74 51l-15 138q-7 59 -59 59h-110v-186q0 -13 12 -13l67 -3v-36h-249v36l65 3q13 1 13 13z" />
    <glyph glyph-name="afii10073" unicode="&#x437;" horiz-adv-x="425" 
d="M87 483q5 -24 11 -39q52 33 122 33q154 0 154 -107q0 -54 -40 -84t-96 -33v-5q27 -3 43.5 -6t39 -10.5t35 -18.5t22 -30.5t9.5 -45.5q0 -70 -54 -108.5t-132 -38.5q-131 0 -176 106l24 17q15 -32 48 -57.5t84 -25.5q50 0 78 29t28 81q0 49 -33.5 69.5t-95.5 20.5
q-29 0 -49 -3v38q19 -1 48 -1q51 0 84 27t33 73q0 78 -82 78q-56 0 -80.5 -31t-24.5 -68h-34v140h34z" />
    <glyph glyph-name="afii10074" unicode="&#x438;" horiz-adv-x="646" 
d="M282 431l-64 -1q-13 0 -13 -13v-290l235 273v16q0 12 -13 12l-64 3v36h248v-36l-67 -3q-12 0 -12 -12v-365q0 -12 12 -12l67 -3v-36h-248v36l64 3q13 0 13 12v295l-235 -271v-24q0 -12 13 -12l64 -3v-36h-247v36l67 3q4 0 7.5 4t3.5 8v365q0 10 -12 12l-66 3v36h247v-36z
" />
    <glyph glyph-name="afii10075" unicode="&#x439;" horiz-adv-x="646" 
d="M282 431l-64 -1q-13 0 -13 -13v-290l235 273v16q0 12 -13 12l-64 3v36h248v-36l-67 -3q-12 0 -12 -12v-365q0 -12 12 -12l67 -3v-36h-248v36l64 3q13 0 13 12v295l-235 -271v-24q0 -12 13 -12l64 -3v-36h-247v36l67 3q4 0 7.5 4t3.5 8v365q0 10 -12 12l-66 3v36h247v-36z
M328 563q45 0 67 11v90q24 7 42 7q53 0 53 -45t-49.5 -70.5t-112.5 -25.5q-71 0 -118 21.5t-47 67.5q0 23 14 37.5t41 14.5q17 0 40 -7v-90q22 -11 70 -11z" />
    <glyph glyph-name="afii10076" unicode="&#x43a;" horiz-adv-x="590" 
d="M114 52v363q0 11 -12 13l-69 3v36h250v-36l-65 -3q-12 0 -12 -13v-139h74q43 0 61 38l53 118q20 44 76 44q41 0 77 -18q2 -23 2 -40q0 -50 -41 -50q-21 0 -39 4v64q-10 2 -15 2q-21 0 -37 -39l-36 -85q-3 -8 -7 -14.5t-6.5 -10t-6 -7t-5.5 -5t-6 -4t-5 -3.5
q58 -5 87 -24.5t34 -62.5l13 -112q3 -22 11 -28.5t22 -6.5q17 0 34 12l14 -27q-37 -31 -97 -31q-40 0 -56 13.5t-20 45.5l-15 121q-5 43 -14.5 57t-45.5 14h-106v-189q0 -12 12 -12l65 -4v-36h-248v36l67 4q12 0 12 12z" />
    <glyph glyph-name="afii10077" unicode="&#x43b;" horiz-adv-x="596" 
d="M561 467v-36l-64 -4q-13 0 -13 -12v-364q0 -12 13 -12l64 -3v-36h-248v36l66 3q13 0 13 12v376h-129q0 -32 -2 -76q-10 -176 -44 -268.5t-108 -92.5q-38 0 -61 18t-23 49q0 64 60 64q7 0 27 -4v-83q5 -1 17 -1q40 0 66.5 108.5t26.5 211.5q0 49 -21 63.5t-67 14.5v36h427
z" />
    <glyph glyph-name="afii10078" unicode="&#x43c;" horiz-adv-x="718" 
d="M683 0h-249v36l66 3q6 0 9.5 4t3.5 8v333l-4 1l-171 -394h-18l-160 403h-4v-343q0 -12 13 -12l65 -3v-36h-199v36l66 3q14 0 14 12v364q0 13 -10 13l-69 3v36h186l134 -339l146 339h181v-36l-66 -3q-4 0 -8 -3.5t-4 -8.5v-365q0 -12 13 -12l65 -3v-36z" />
    <glyph glyph-name="afii10079" unicode="&#x43d;" horiz-adv-x="639" 
d="M282 431l-66 -1q-11 0 -11 -13v-160h229v159q0 12 -13 12l-65 3v36h248v-36l-66 -3q-12 0 -12 -12v-365q0 -12 12 -12l66 -3v-36h-249v36l67 3q12 0 12 12v170h-229v-170q0 -12 12 -12l65 -3v-36h-247v36l66 3q12 0 12 12v365q0 10 -12 12l-66 3v36h247v-36z" />
    <glyph glyph-name="afii10080" unicode="&#x43e;" horiz-adv-x="539" 
d="M501 231q0 -115 -65 -178t-165 -63q-102 0 -167.5 60.5t-65.5 178.5q0 120 63.5 183.5t168.5 63.5t168 -62.5t63 -182.5zM271 25q130 0 130 202q0 106 -33.5 160t-97.5 54t-98 -54t-34 -159q0 -102 35.5 -152.5t97.5 -50.5z" />
    <glyph glyph-name="afii10081" unicode="&#x43f;" horiz-adv-x="641" 
d="M606 0h-248v36l66 3q12 0 12 12v376h-230v-376q0 -12 13 -12l64 -3v-36h-248v36l66 3q13 0 13 12v364q0 13 -13 13l-66 3v36h571v-36l-66 -3q-4 0 -8 -3.5t-4 -8.5v-365q0 -10 12 -12l66 -3v-36z" />
    <glyph glyph-name="afii10082" unicode="&#x440;" horiz-adv-x="604" 
d="M566 235q0 -123 -64 -184t-148 -61q-50 0 -91.5 24.5t-61.5 66.5v-351q0 -12 11 -12l67 -6v-36h-249v36l68 7q11 0 11 12v683q0 12 -12 13l-67 4v36h171v-93q65 102 168 102q83 0 140 -58.5t57 -182.5zM335 28q58 0 94.5 53.5t36.5 154.5q0 199 -124 199q-47 0 -85.5 -38
t-55.5 -80v-164q5 -42 43 -83.5t91 -41.5z" />
    <glyph glyph-name="afii10083" unicode="&#x441;" horiz-adv-x="475" 
d="M416 421q9 -22 9 -54q0 -51 -49 -51q-19 0 -47 8v94q-27 23 -77 23q-58 0 -93.5 -54t-35.5 -149t38.5 -146.5t104.5 -51.5q88 0 133 98l26 -14q-21 -63 -68.5 -98.5t-115.5 -35.5q-38 0 -73.5 11t-69.5 36t-54.5 73.5t-20.5 115.5q0 70 20.5 121.5t54.5 78t70.5 38.5
t76.5 12q92 0 171 -55z" />
    <glyph glyph-name="afii10084" unicode="&#x442;" horiz-adv-x="551" 
d="M399 36v-36h-249v36l66 4q13 0 13 12v374l-106 4q-15 0 -17 -12l-30 -148h-36l-13 197h500l-23 -197h-36l-20 148q-2 12 -13 12l-114 -4v-374q0 -12 12 -12z" />
    <glyph glyph-name="afii10085" unicode="&#x443;" horiz-adv-x="584" 
d="M480 400l-200 -566q-30 -85 -59.5 -120t-84.5 -35q-45 0 -72 20.5t-27 60.5q0 28 20 48t53 20q19 0 33 -4v-95q9 -3 24 -3q32 0 55 65l51 143l-174 479q-4 11 -16 12l-68 6v36h256v-36l-69 -4q-9 0 -9 -8q0 -7 8 -26l116 -334l120 341q5 13 5 18q0 9 -8 10l-64 3v36h199
v-36l-67 -3q-11 0 -16 -12z" />
    <glyph glyph-name="afii10086" unicode="&#x444;" horiz-adv-x="797" 
d="M352 -272v333q-49 -71 -126 -71q-22 0 -45 6t-49 22.5t-46.5 41.5t-34 67.5t-13.5 95.5q0 129 56 191.5t132 62.5q82 0 126 -73v294q0 13 -12 13l-67 4v36h171v-348q50 73 130 73q76 0 130 -60t54 -189q0 -65 -20.5 -114.5t-51.5 -74.5t-60.5 -36.5t-55.5 -11.5
q-84 0 -126 67v-329q0 -13 12 -13l66 -3v-36h-248v36l66 3q12 0 12 13zM548 33q45 0 77.5 49t32.5 148q0 205 -107 205q-33 0 -62 -23.5t-45 -57.5v-231q12 -37 42 -63.5t62 -26.5zM248 33q32 0 60.5 24t43.5 68v214q-10 38 -37 66.5t-62 28.5q-54 0 -84.5 -52.5
t-30.5 -156.5q0 -98 32.5 -145t77.5 -47z" />
    <glyph glyph-name="afii10087" unicode="&#x445;" horiz-adv-x="565" 
d="M538 431l-73 -3q-9 0 -14 -9l-125 -160l145 -212q5 -9 17 -9l57 -2v-36h-262v36l66 4q9 0 9 6q0 1 -8 13l-90 133l-100 -131q-9 -11 -9 -14q0 -4 7 -4l73 -7v-36h-211v36l66 7q12 1 19 10l132 174l-131 192q-7 9 -14 9l-66 3v36h266v-35l-73 -3q-4 0 -4 -5q0 -4 6 -12
l83 -121l89 114q12 15 12 18q0 5 -6 5l-72 3v36h211v-36z" />
    <glyph glyph-name="afii10088" unicode="&#x446;" horiz-adv-x="642" 
d="M607 36l-19 -245h-38l-22 188q-3 21 -16 21h-477v36l67 3q12 3 12 13v364q0 4 -4.5 8t-8.5 4l-66 3v36h249v-36l-65 -3q-13 0 -13 -12v-377h229v377q0 12 -12 12l-66 3v36h248v-36l-66 -3q-12 0 -12 -12v-377z" />
    <glyph glyph-name="afii10089" unicode="&#x447;" horiz-adv-x="619" 
d="M584 0h-251v36l68 5q12 1 12 13v166q-74 -63 -160 -63q-75 0 -114.5 32.5t-39.5 88.5v138q0 12 -13 12l-66 3v36h249v-36l-65 -3q-13 0 -13 -12v-97q0 -65 19 -94t72 -29q74 0 131 63v157q-1 12 -12 12l-66 3v36h249v-36l-66 -3q-5 0 -9 -4t-4 -8v-365q0 -12 13 -12
l66 -3v-36z" />
    <glyph glyph-name="afii10090" unicode="&#x448;" horiz-adv-x="885" 
d="M850 0h-815v36l66 3q13 0 13 13v364q0 10 -11 12l-68 3v36h247v-36l-64 -3q-12 -2 -12 -13v-376h190v376q0 11 -13 13l-63 3v36h245v-36l-65 -3q-12 0 -12 -12v-377h191v377q0 10 -12 12l-64 3v36h247v-36l-67 -3q-12 0 -12 -12v-365q0 -12 13 -12l66 -3v-36z" />
    <glyph glyph-name="afii10091" unicode="&#x449;" horiz-adv-x="887" 
d="M761 0h-726v36l67 3q12 0 12 12v365q0 12 -12 12l-67 3v36h246v-36l-63 -3q-12 0 -12 -12v-378h190v378q0 12 -12 12l-64 3v36h245v-36l-65 -3q-12 0 -12 -12v-378h191v378q0 10 -12 12l-65 3v36h248v-36l-67 -3q-12 0 -12 -12v-377l81 -4l-19 -244h-38l-14 190
q-2 19 -20 19z" />
    <glyph glyph-name="afii10092" unicode="&#x44a;" horiz-adv-x="603" 
d="M573 153q0 -40 -16 -69.5t-38 -45t-52.5 -24.5t-52.5 -11.5t-45 -2.5h-246v36l65 3q13 0 13 12v377l-67 4q-2 0 -9.5 0.5t-8.5 0.5q-18 0 -22 -19l-36 -172h-38l15 225h337v-36l-66 -3q-13 0 -13 -11v-154q2 0 15 3.5t26.5 6t33.5 5t37 2.5q168 0 168 -127zM293 36
q14 0 41.5 -0.5t40.5 -0.5q98 0 98 109q0 100 -85 100q-19 0 -42.5 -4t-37.5 -8l-15 -4v-192z" />
    <glyph glyph-name="afii10093" unicode="&#x44b;" horiz-adv-x="779" 
d="M272 0h-237v36l67 3q12 0 12 12v365q0 12 -12 12l-67 3v36h250v-36l-65 -3q-14 0 -14 -12v-153q75 16 111 16q34 0 58.5 -4.5t49.5 -17t38 -40t13 -68.5q0 -44 -19.5 -75t-52.5 -46t-65 -21.5t-67 -6.5zM744 431l-66 -2q-4 0 -8.5 -4t-4.5 -8v-365q0 -13 13 -13l66 -4
v-35h-250v35l66 3q13 2 13 13v365q0 12 -14 12l-65 3v36h250v-36zM301 244q-57 0 -95 -15v-191q43 -2 63 -2q52 1 79.5 30.5t27.5 82.5q0 48 -20.5 71.5t-54.5 23.5z" />
    <glyph glyph-name="afii10094" unicode="&#x44c;" horiz-adv-x="514" 
d="M283 0h-248v36l67 3q12 0 12 13v364q0 5 -4 8.5t-8 3.5l-67 3v36h249v-36l-66 -3q-12 0 -12 -12v-153q70 15 110 15q168 0 168 -133q0 -43 -21.5 -73.5t-55 -45t-64 -20.5t-60.5 -6zM303 244q-46 0 -97 -14v-192q40 -3 67 -3q52 0 81.5 28.5t29.5 83.5q0 51 -24 74
t-57 23z" />
    <glyph glyph-name="afii10095" unicode="&#x44d;" horiz-adv-x="474" 
d="M47 484h35q7 -33 19 -49q55 42 129 42q206 0 206 -242q0 -120 -62 -182.5t-160 -62.5q-69 0 -115 35.5t-69 90.5l27 17q46 -96 140 -96q60 0 99.5 46t40.5 137h-177v35h177q-1 103 -38.5 145t-92.5 42q-53 0 -87 -38q-31 -35 -37 -80h-35v160z" />
    <glyph glyph-name="afii10096" unicode="&#x44e;" horiz-adv-x="788" 
d="M750 233q0 -118 -66.5 -180.5t-156.5 -62.5q-96 0 -155.5 59.5t-66.5 168.5h-98v-166q0 -12 14 -12l66 -4v-36h-252v36l67 3q13 0 13 12v365q0 10 -13 12l-67 3v36h252v-36l-66 -3q-14 0 -14 -12v-163h98q11 112 73 167.5t148 55.5q95 0 159.5 -62t64.5 -181zM527 25
q123 0 123 211q0 90 -30.5 147t-94.5 57q-63 0 -92 -58t-29 -150q0 -207 123 -207z" />
    <glyph glyph-name="afii10097" unicode="&#x44f;" horiz-adv-x="562" 
d="M240 231v4q-74 4 -114.5 28t-40.5 81q0 63 48 93t120 30h274v-36l-66 -3q-12 0 -12 -12v-365q0 -12 12 -12l66 -3v-36h-249v36l68 3q11 0 11 12v165h-71q-31 0 -46 -12.5t-20 -38.5l-20 -111q-2 -14 -4.5 -21t-10.5 -19t-25.5 -18t-44.5 -6q-55 0 -92 24l13 32
q20 -13 41 -13q14 0 20.5 7t9.5 24l17 89q8 44 37 59.5t79 18.5zM357 250v182q-46 1 -94 1q-33 0 -55.5 -19.5t-22.5 -65.5q0 -52 23.5 -75t77.5 -23h71z" />
    <glyph glyph-name="afii10071" unicode="&#x451;" horiz-adv-x="475" 
d="M432 264h-292v-7q-1 -7 -1.5 -17t-0.5 -17q0 -89 37.5 -139t105.5 -50q51 0 86 33t48 68l25 -9q-4 -18 -15.5 -39t-32.5 -45.5t-57.5 -40.5t-80.5 -16q-94 0 -155 60t-61 176q0 118 62.5 184t158.5 66q76 0 127.5 -37.5t51.5 -105.5q0 -30 -6 -64zM259 436q-46 0 -77 -33
t-39 -103h196q5 32 5 53q0 38 -22.5 60.5t-62.5 22.5zM169 625q20 0 33 -12.5t13 -34.5q0 -23 -14.5 -35.5t-31.5 -12.5q-55 0 -55 48q0 47 55 47zM350 625q21 0 33.5 -12t12.5 -35t-14.5 -35.5t-31.5 -12.5q-55 0 -55 48q0 47 55 47z" />
    <glyph glyph-name="afii10100" unicode="&#x453;" horiz-adv-x="444" 
d="M358 650q0 -18 -15.5 -34.5t-56.5 -47.5l-73 -56l-30 18l53 82q28 46 41 60.5t29 14.5q17 0 34.5 -11.5t17.5 -25.5zM35 467h399l-23 -197h-36l-20 148q-2 15 -18 15l-132 -5v-376q0 -13 12 -13l71 -3v-36h-253v36l68 3q11 0 11 13v358q0 19 -21 19l-58 2v36z" />
    <glyph glyph-name="afii10101" unicode="&#x454;" horiz-adv-x="477" 
d="M138 250h177v-36h-177q1 -96 40.5 -138.5t95.5 -42.5q93 0 135 95l35 -16q-52 -126 -184 -126q-37 0 -72.5 12t-71 37.5t-57 75.5t-21.5 118t20 119.5t53 79.5t70 41.5t78 13.5q76 0 132 -30t56 -77q0 -42 -51 -42q-15 0 -38 7v77q-33 28 -90 28q-20 0 -39 -6.5t-41 -25
t-36 -60.5t-14 -104z" />
    <glyph glyph-name="afii10102" unicode="&#x455;" horiz-adv-x="423" 
d="M368 482v-154h-36q0 7 -4 31q-18 82 -112 82q-37 0 -59.5 -20t-22.5 -54q0 -32 25 -55t90 -49q68 -27 103.5 -57.5t35.5 -83.5q0 -64 -50 -98t-116 -34q-38 0 -71.5 12t-48 22.5t-18.5 16.5q-8 -16 -15 -51h-34v175h35q2 -73 43 -106.5t93 -33.5q40 0 62 19.5t22 54.5
q0 34 -18.5 52t-66.5 39q-81 35 -123.5 70.5t-42.5 90.5q0 59 43 92t115 33t125 -35q8 16 10 41h36z" />
    <glyph glyph-name="afii10103" unicode="&#x456;" horiz-adv-x="319" 
d="M215 655q0 -30 -12.5 -42t-43.5 -12t-43.5 12t-12.5 42q0 29 12.5 41t43.5 12t43.5 -12t12.5 -41zM35 467h170v-414q0 -13 12 -13l67 -4v-36h-249v36l66 3q12 2 12 13v365q0 11 -10 12l-68 3v35z" />
    <glyph glyph-name="afii10104" unicode="&#x457;" horiz-adv-x="321" 
d="M35 467h172v-414q0 -13 11 -13l68 -4v-36h-250v36l66 3q13 3 13 13v359q0 15 -12 17l-68 3v36zM66 626q20 0 33 -12.5t13 -34.5q0 -23 -14.5 -35.5t-31.5 -12.5q-55 0 -55 48q0 47 55 47zM247 626q21 0 33.5 -12t12.5 -35t-14.5 -35.5t-31.5 -12.5q-55 0 -55 48
q0 47 55 47z" />
    <glyph glyph-name="afii10105" unicode="&#x458;" horiz-adv-x="306" 
d="M-90 -293q-10 20 -10 52q0 50 48 50q12 0 40 -4v-88q19 -9 53 -9q74 0 74 117v588q0 11 -13 12l-66 6v36h171v-603q0 -94 -46 -142t-121 -48q-88 0 -130 33zM216 654q0 -30 -12.5 -42t-43.5 -12t-43.5 12t-12.5 42q0 29 12.5 41t43.5 12t43.5 -12t12.5 -41z" />
    <glyph glyph-name="afii10106" unicode="&#x459;" horiz-adv-x="772" 
d="M531 0h-228v36l68 3q11 0 11 11v377h-119q0 -32 -2 -76q-10 -176 -44 -268.5t-108 -92.5q-38 0 -61 18t-23 49q0 64 60 64q7 0 27 -4v-83q5 -1 17 -1q40 0 66.5 108.5t26.5 211.5q0 49 -21 63.5t-67 14.5v36h417v-36l-65 -3q-12 0 -12 -10v-155q70 15 100 15
q168 0 168 -133q0 -43 -20 -73.5t-53.5 -45t-67 -20.5t-70.5 -6zM561 244q-39 0 -87 -13v-193q30 -3 57 -3q52 0 81.5 28.5t29.5 83.5q0 51 -24 74t-57 23z" />
    <glyph glyph-name="afii10107" unicode="&#x45a;" horiz-adv-x="794" 
d="M282 431l-66 -1q-11 0 -11 -13v-160h209v159q0 12 -13 12l-65 3v36h248v-36l-66 -3q-12 0 -12 -9v-156q70 15 90 15q168 0 168 -133q0 -43 -21 -73.5t-55 -45t-64 -20.5t-60 -6h-229v36l70 3q9 0 9 12v170h-209v-170q0 -12 12 -12l65 -3v-36h-247v36l66 3q12 0 12 12v365
q0 4 -3.5 8t-8.5 4l-66 3v36h247v-36zM583 244q-29 0 -77 -13v-193q20 -3 47 -3q52 0 81.5 28.5t29.5 83.5q0 51 -24 74t-57 23z" />
    <glyph glyph-name="afii10109" unicode="&#x45c;" horiz-adv-x="590" 
d="M114 52v363q0 11 -12 13l-69 3v36h250v-36l-65 -3q-12 0 -12 -13v-139h74q43 0 61 38l53 118q20 44 76 44q41 0 77 -18q2 -23 2 -40q0 -50 -41 -50q-21 0 -39 4v64q-10 2 -15 2q-21 0 -37 -39l-36 -85q-3 -8 -7 -14.5t-6.5 -10t-6 -7t-5.5 -5t-6 -4t-5 -3.5
q58 -5 87 -24.5t34 -62.5l13 -112q3 -22 11 -28.5t22 -6.5q17 0 34 12l14 -27q-37 -31 -97 -31q-40 0 -56 13.5t-20 45.5l-15 121q-5 43 -14.5 57t-45.5 14h-106v-189q0 -12 12 -12l65 -4v-36h-248v36l67 4q12 0 12 12zM448 652q0 -13 -10 -26.5t-22 -24t-42 -33.5l-74 -57
l-31 18l54 84q29 48 42 62.5t30 14.5t35 -12t18 -26z" />
    <glyph glyph-name="afii10110" unicode="&#x45e;" horiz-adv-x="584" 
d="M317 563q45 0 67 11v90q24 7 42 7q53 0 53 -45t-49.5 -70.5t-112.5 -25.5q-71 0 -118 21.5t-47 67.5q0 23 14 37.5t41 14.5q17 0 40 -7v-90q22 -11 70 -11zM480 400l-200 -566q-30 -85 -59.5 -120t-84.5 -35q-45 0 -72 20.5t-27 60.5q0 28 20 48t53 20q19 0 33 -4v-95
q9 -3 24 -3q32 0 55 65l51 143l-174 479q-4 11 -16 12l-68 6v36h256v-36l-69 -4q-9 0 -9 -8q0 -7 8 -26l116 -334l120 341q5 13 5 18q0 9 -8 10l-64 3v36h199v-36l-67 -3q-11 0 -16 -12z" />
    <glyph glyph-name="afii10193" unicode="&#x45f;" horiz-adv-x="833" 
 />
    <glyph glyph-name="afii10050" unicode="&#x490;" horiz-adv-x="533" 
d="M55 663v38h382q7 0 14 5t8 12l17 81h38v-134l-286 -11v-596q0 -11 11 -13l80 -9v-36h-264v36l70 9q11 1 11 13v587q0 13 -12 13z" />
    <glyph glyph-name="afii10098" unicode="&#x491;" horiz-adv-x="422" 
d="M35 467h305q14 2 17 13l21 87h34v-136l-207 -13v-366q0 -13 12 -13l71 -3v-36h-253v36l68 3q11 0 11 13v358q0 19 -21 19l-58 2v36z" />
    <glyph glyph-name="endash" unicode="&#x2013;" horiz-adv-x="604" 
d="M95 268v55h414v-55h-414z" />
    <glyph glyph-name="emdash" unicode="&#x2014;" horiz-adv-x="907" 
d="M95 268v55h717v-55h-717z" />
    <glyph glyph-name="quoteleft" unicode="&#x2018;" horiz-adv-x="244" 
d="M108 522q-27 0 -45 19t-18 48q0 60 63 162l32 -15q-37 -51 -37 -80q0 -13 18 -13q53 -3 53 -58q0 -30 -18.5 -46.5t-47.5 -16.5z" />
    <glyph glyph-name="quoteright" unicode="&#x2019;" horiz-adv-x="225" 
d="M116 709q28 0 46 -19t18 -48q0 -64 -64 -162l-32 15q38 53 38 79q0 12 -18 14q-54 2 -54 57q0 30 18.5 47t47.5 17z" />
    <glyph glyph-name="quotedblleft" unicode="&#x201c;" horiz-adv-x="429" 
d="M103 521q-27 0 -45 18.5t-18 48.5q0 64 64 162l31 -15q-37 -51 -37 -80q0 -13 18 -14q53 -2 53 -57q0 -30 -18.5 -46.5t-47.5 -16.5zM293 521q-29 0 -46.5 18.5t-17.5 48.5q0 64 64 162l32 -15q-38 -53 -38 -80q0 -13 18 -14q54 -2 54 -57q0 -30 -18.5 -46.5t-47.5 -16.5
z" />
    <glyph glyph-name="quotedblright" unicode="&#x201d;" horiz-adv-x="428" 
d="M325 705q28 0 45.5 -19t17.5 -48q0 -66 -63 -162l-31 15q36 54 36 80q0 11 -18 13q-53 2 -53 57q0 30 18.5 47t47.5 17zM136 705q28 0 46 -19t18 -48q0 -68 -65 -162l-31 15q38 53 38 80q0 12 -12 12q-60 0 -60 58q0 30 18.5 47t47.5 17z" />
    <glyph glyph-name="quotedblbase" unicode="&#x201e;" horiz-adv-x="429" 
d="M325 103q28 0 46 -19t18 -48q0 -64 -64 -162l-31 15q37 55 37 79q0 13 -19 13q-52 3 -52 58q0 30 18 47t47 17zM136 103q28 0 46 -19t18 -48q0 -64 -64 -162l-32 15q38 53 38 79q0 13 -19 13q-53 3 -53 58q0 30 18.5 47t47.5 17z" />
    <glyph glyph-name="dagger" unicode="&#x2020;" horiz-adv-x="517" 
d="M274 604l10 -63q-23 -23 -23 -47q0 -58 62 -58q22 0 49 20l65 -5v-65l-64 -3q-23 18 -50 18q-60 0 -60 -53q0 -35 16 -83l-20 -465h-33l-24 465q19 61 19 83q0 53 -57 53q-25 0 -49 -18l-65 3v65l64 5q22 -20 50 -20q62 0 62 58q0 21 -27 46l10 64h65z" />
    <glyph glyph-name="bullet" unicode="&#x2022;" horiz-adv-x="318" 
d="M125 382q42 0 67.5 -22t25.5 -64q0 -43 -25.5 -65.5t-67.5 -22.5q-40 0 -65 22.5t-25 65.5q0 42 25 64t65 22z" />
    <glyph glyph-name="ellipsis" unicode="&#x2026;" horiz-adv-x="967" 
d="M154 109q28 0 46 -15t18 -44t-18 -44.5t-46 -15.5t-46 15.5t-18 44.5t18 44t46 15zM504 109q28 0 45.5 -15t17.5 -44q0 -30 -17.5 -45t-45.5 -15t-45.5 15t-17.5 45q0 29 17.5 44t45.5 15zM854 109q28 0 45.5 -15t17.5 -44t-17.5 -44.5t-45.5 -15.5t-45.5 15t-17.5 45
q0 29 17.5 44t45.5 15z" />
    <glyph glyph-name="Euro" unicode="&#x20ac;" horiz-adv-x="772" 
d="M100 361v39h55q9 79 40 139.5t74 94.5t87.5 50.5t88.5 16.5q60 0 105 -14.5t90 -48.5q9 27 9 67h40v-221h-40q0 85 -54 130t-131 45q-34 0 -65 -12t-61.5 -39t-51.5 -80.5t-26 -127.5h380v-39h-381v-46h381v-38h-380q26 -233 217 -233q80 0 133 45.5t81 98.5l31 -19
q-11 -26 -30 -52.5t-50.5 -57t-79.5 -50t-104 -19.5q-119 0 -205 70.5t-99 216.5h-54v38h53v46h-53z" />
    <glyph glyph-name="uni20B4" unicode="&#x20b4;" horiz-adv-x="579" 
d="M80 372v37h234q114 70 114 162q0 51 -29.5 78t-84.5 27q-52 0 -90 -20t-54 -48q-25 -42 -25 -122h-38v240h38q6 -39 23 -62q80 46 174 46q82 0 133 -35.5t51 -103.5q0 -94 -83 -162h59v-37h-110q-32 -20 -72 -39h182v-37h-241q-94 -63 -94 -154q0 -51 34 -82t94 -31
q75 0 132.5 58.5t58.5 161.5h38v-252h-38q-2 47 -19 74q-29 -31 -85.5 -56t-119.5 -25q-78 0 -135 44t-57 120q0 84 63 142h-53v37h97q36 23 71 39h-168z" />
    <glyph glyph-name="afii61352" unicode="&#x2116;" horiz-adv-x="1191" 
d="M943 580q71 0 119.5 -44.5t48.5 -114.5q0 -71 -48 -116t-119 -45q-72 0 -120 42.5t-48 115.5t48 117.5t119 44.5zM944 290q36 0 55.5 36t19.5 93q0 128 -74 128q-38 0 -57 -35.5t-19 -93.5q0 -56 19.5 -92t55.5 -36zM776 153v55h335v-55h-335zM630 -12h-32l-417 648v-582
q0 -13 12 -13l70 -4v-37h-204v37l65 4q13 0 13 13v593q0 12 -12 12l-66 5v37h196l332 -528v473q0 12 -11 13l-71 5v37h207v-37l-69 -5q-13 -2 -13 -12v-659z" />
    <glyph glyph-name="trademark" unicode="&#x2122;" horiz-adv-x="1123" 
d="M366 335v-22h-189v22l49 3q6 0 6 7v378h-91q-12 0 -15 -14l-25 -96h-26l7 138h381v-138h-26l-19 93q-3 17 -12 17h-96v-378q0 -7 6 -7zM1090 313h-179v21l38 3q13 2 13 15v306h-4l-158 -351h-25l-150 349h-4v-305q0 -12 13 -14l42 -2v-22h-145v21l45 3q12 0 12 14v360
q0 12 -11 13l-46 4v23h138l142 -337l152 337h127v-23l-38 -4q-12 0 -12 -13v-360q0 -13 12 -15l38 -2v-21z" />
    <glyph glyph-name="Delta" unicode="&#x2206;" 
d="M556 0h-536v39l252 540h32l252 -539v-40zM68 37h381l-188 413z" />
    <glyph glyph-name="minus" unicode="&#x2212;" 
d="M41 270v51h495v-51h-495z" />
    <glyph glyph-name="radical" unicode="&#x221a;" 
d="M310 0h-109l-119 324h-67v53h151l99 -277l102 713h185v-55h-132z" />
    <glyph glyph-name="approxequal" unicode="&#x2248;" 
d="M61 201l-23 37l21.5 15.5t51 25.5t69.5 16q29 0 90 -23q65 -25 110 -25q69 0 139 48l20 -39q-9 -7 -25 -17.5t-58.5 -28.5t-75.5 -18q-44 0 -113 27q-51 20 -86 20q-61 0 -120 -38zM57 306l-19 36l21 15.5t51 25t71 15.5q40 0 100 -23q60 -24 101 -24q71 0 137 45l20 -39
q-10 -7 -26.5 -17.5t-58.5 -27.5t-74 -17q-54 0 -116 28q-53 20 -84 20q-70 0 -123 -37z" />
    <glyph glyph-name="notequal" unicode="&#x2260;" 
d="M41 321v52h278l99 161l37 -22l-85 -139h165v-52h-197l-31 -51h228v-51h-259l-95 -156l-36 23l80 133h-184v51h216l31 51h-247z" />
    <glyph glyph-name="lessequal" unicode="&#x2264;" 
d="M75 289v64l420 -302v-62zM495 640l-329 -233l329 -236v-62l-421 302l421 298v-69z" />
    <glyph glyph-name="greaterequal" unicode="&#x2265;" 
d="M83 -16v62l421 302v-65zM412 403l-329 233v69l421 -298l-421 -302v62z" />
    <glyph glyph-name="lozenge" unicode="&#x25ca;" horiz-adv-x="474" 
d="M424 290l-187 -291l-187 291l187 295zM237 86l126 204l-126 204l-126 -204z" />
    <glyph glyph-name="myrtle_leaf" unicode="&#xe000;" horiz-adv-x="1140" 
d="M978 347l48.5 -21.5t43.5 -23.5t37.5 -31t12.5 -34q0 -5 -26.5 -23t-67 -42.5t-49.5 -30.5q-129 -86 -275 -97q-115 -8 -169 -8q-71 0 -123 13q-30 8 -97 38t-91 38q-20 -4 -41 -10q-68 -16 -100 -21q-27 -3 -40 -3h-18l-3 42h12q12 0 34 2q76 6 153 23q79 115 133 154
q56 41 109.5 57.5t142.5 23.5q11 1 31 1q17 0 50.5 -1t40.5 -1q143 0 252 -45zM966 321q-9 4 -21 8q-40 -40 -59 -54q-11 -8 -21 -14.5t-23 -14t-22 -13.5l33 5q33 5 62 8q34 25 50 41l24 25q-2 1 -5.5 2t-8 3t-9.5 4zM909 342q-20 7 -34 10q-9 -6 -29 -25.5t-38 -33.5
q-71 -53 -107 -74q85 11 89 12q29 18 67 56q39 39 52 55zM786 366q-48 -46 -95 -84q-63 -52 -99 -71l38.5 3.5t39.5 3.5q15 10 30.5 22l25.5 20t30.5 26.5l32.5 28.5q11 10 27 27.5t17 18.5q-20 4 -32 4q-3 0 -7 0.5t-8 0.5zM667 368q-37 -50 -81 -91q-15 -14 -38.5 -32.5
l-39.5 -30.5l-16 -11q36 4 66 6l21 15q21 15 39.5 30.5t37.5 33.5q61 58 75 80q-5 0 -21 1t-25 1q-12 0 -18 -2zM549 281l74 87q-39 0 -75 -6q-24 -45 -61 -87q-45 -55 -78 -84q6 1 55 10q48 40 85 80zM382 119q25 -20 48 -46q22 -5 45 -6q-4 9 -10 17t-12.5 14.5l-8.5 8.5
q-33 37 -52 51q-28 -5 -50 -8q28 -20 40 -31zM447 335q-33 -57 -63 -99q-7 -10 -16 -21t-19.5 -22t-13.5 -15q2 0 20.5 3.5l28.5 5.5q40 45 60 75q48 70 55 90q-31 -7 -52 -17zM396 303q-33 -24 -71 -68.5t-54 -69.5q1 0 7.5 1t14.5 2.5t16 3.5q7 8 49 67q18 27 38 64z
M320 145q-42 -6 -43 -6q9 -2 44 -20.5t60 -28.5q-1 1 -11.5 12.5t-14.5 14.5l-14.5 12l-12 9.5zM521 64q9 -1 29 -1q25 0 32 1q-87 93 -113 106q-33 -4 -53 -8q6 -4 12 -8.5t11.5 -9.5t8.5 -7l16 -15.5l17 -16.5q2 -2 10 -11l16 -17.5t14 -12.5zM629 67q32 2 51 2
q-24 30 -59.5 63.5t-54.5 48.5q-14 0 -42.5 -3t-30.5 -3q63 -44 67 -47l21.5 -17.5l29.5 -25t18 -18.5zM751 76q26 6 32 6q-21 28 -51 58q-12 12 -22.5 20.5t-21.5 16t-16 11.5q-20 -2 -32 -2q-6 0 -23 -1t-27 -1q58 -37 75 -53q60 -56 62 -58q11 0 24 3zM821 93q33 8 73 29
q-20 23 -49 41q-34 22 -65 32q-31 -4 -76 -6q27 -11 64 -42q41 -35 53 -54zM926 143q15 6 34.5 18.5t26.5 16.5q-25 19 -67 33q-15 -2 -36.5 -4t-36.5 -4q-21 -3 -36 -3q56 -22 68 -28zM1014 197q16 8 44 25q-10 -1 -45 -3t-51 -4q20 -6 32 -10zM947 248q22 3 67 6.5t52 4.5
q-6 7 -10 10q-16 15 -43 27q-12 -11 -28 -22z" />
    <glyph glyph-name="uniF639" unicode="&#xf639;" horiz-adv-x="604" 
d="M305 717q69 0 119.5 -30.5t77.5 -84.5t39.5 -117.5t12.5 -139.5q0 -71 -13.5 -134t-41.5 -116.5t-77.5 -85t-116.5 -31.5q-68 0 -118.5 29.5t-79.5 82t-43 116t-14 138.5q0 76 13.5 140t42 118t79.5 84.5t120 30.5zM150 345q0 -93 15.5 -166t51 -120.5t88.5 -47.5
t87.5 48.5t48 120.5t13.5 166t-13 166.5t-48 122t-88 49.5t-89 -49.5t-51 -123t-15 -166.5z" />
    <glyph glyph-name="uniF63A" unicode="&#xf63a;" 
d="M514 0h-452v64q34 19 71.5 45.5t88.5 73t90 97t66.5 119.5t27.5 139q0 72 -34.5 109t-93.5 37q-57 0 -104 -35v-108q-27 -9 -48 -9q-31 0 -44 14q-11 12 -11 33q0 51 59 95.5t158 44.5q100 0 159 -48.5t59 -141.5q0 -49 -16.5 -98t-47.5 -91.5t-62.5 -77.5t-76 -70
t-71.5 -54.5t-64.5 -44t-41.5 -27.5l328 20q18 2 19 18l5 86h36v-190z" />
    <glyph glyph-name="uniF63B" unicode="&#xf63b;" 
d="M280 710q52 0 95 -12.5t75.5 -47.5t32.5 -88q0 -37 -14.5 -67t-37 -49.5t-53.5 -33.5t-59.5 -21t-58.5 -10v-4q249 -3 249 -172q0 -57 -23.5 -100.5t-61.5 -67.5t-79.5 -35.5t-83.5 -11.5q-81 0 -136.5 29t-55.5 75q0 21 13.5 38t43.5 17q22 0 38 -7v-95q33 -22 93 -22
q66 0 106 43.5t40 136.5q0 73 -43 111t-109 38q-19 0 -44.5 -3l-41.5 -5l-16 -3l-5 44q128 5 182.5 47.5t54.5 123.5q0 58 -32 88t-91 30q-53 0 -93 -22v-88q-24 -8 -46 -8q-23 0 -36.5 12.5t-13.5 34.5q0 41 59 73t152 32z" />
    <glyph glyph-name="uniF63C" unicode="&#xf63c;" horiz-adv-x="594" 
d="M429 713v-455l56 3q12 0 14 15l10 72h35v-144h-115v-143q0 -20 21 -21l73 -4v-36h-299v36l93 4q7 0 13.5 6.5t6.5 14.5v143h-307v19l376 490h23zM337 563l-242 -323l242 12v311z" />
    <glyph glyph-name="uniF63D" unicode="&#xf63d;" horiz-adv-x="541" 
d="M444 794v-183h-324v-175q59 7 88 7q51 0 89.5 -4t77.5 -17t64 -34t40.5 -57t15.5 -85q0 -123 -74.5 -191t-175.5 -68q-102 0 -153.5 33t-51.5 75q0 31 17.5 52.5t45.5 21.5q18 0 40 -6v-117q30 -24 92 -24q73 0 114 55t41 155q0 177 -194 177q-42 0 -116 -12v291l302 15
q19 2 21 25l6 66h35z" />
    <glyph glyph-name="uniF63E" unicode="&#xf63e;" 
d="M488 650l-25 -29q-33 26 -59.5 36.5t-67.5 10.5q-77 0 -128.5 -80.5t-56.5 -247.5q65 82 171 82q103 0 156 -50t53 -141q0 -98 -65.5 -169.5t-167.5 -71.5q-50 0 -91.5 16t-78 51t-57 100.5t-20.5 155.5q0 184 84 290.5t203 106.5q92 0 150 -60zM303 385
q-48 0 -87.5 -25.5t-63.5 -67.5q0 -267 141 -267q62 0 100 55t38 141q0 84 -35 124t-93 40z" />
    <glyph glyph-name="uniF63F" unicode="&#xf63f;" 
d="M514 703v-31q-78 -70 -148.5 -189t-110.5 -288q-17 -70 -17 -143q0 -11 1 -29t1 -23h-122q0 79 37 191q42 126 134 263t156 197q-165 -8 -223 -15.5t-88 -20.5q-16 -7 -25.5 -27.5t-11 -33.5t-1.5 -21h-34v218h35q7 -29 18 -48h399z" />
    <glyph glyph-name="uniF640" unicode="&#xf640;" horiz-adv-x="569" 
d="M296 716q82 0 130.5 -36.5t48.5 -109.5q0 -34 -10.5 -61.5t-32 -49t-39.5 -34.5t-46 -30q84 -43 128 -88t44 -117q0 -91 -75 -147t-175 -56q-98 0 -158.5 49.5t-60.5 139.5q0 59 41.5 108t99.5 77q-59 36 -91.5 76.5t-32.5 102.5q0 85 69.5 130.5t159.5 45.5zM417 161
q0 32 -15 59.5t-45.5 50t-57 37t-68.5 33.5q-133 -58 -133 -169q0 -66 44 -108.5t118 -42.5q72 0 114.5 37t42.5 103zM173 563q0 -46 33 -79t99 -67l6 -3q46 23 82.5 62.5t36.5 90.5q0 56 -36 85.5t-99 29.5q-58 0 -90 -31.5t-32 -87.5z" />
    <glyph glyph-name="uniF641" unicode="&#xf641;" 
d="M81 85l30 26q56 -79 142 -79q77 0 125 81t52 252q-28 -38 -74.5 -61.5t-101.5 -23.5q-99 0 -153 50.5t-54 141.5q0 99 64.5 168.5t167.5 69.5q53 0 96.5 -16.5t80.5 -52t57.5 -100t20.5 -152.5q0 -185 -79 -292t-195 -107q-109 0 -179 95zM279 319q46 0 87 26.5t64 67.5
q0 132 -38.5 198t-108.5 66q-63 0 -96.5 -54t-33.5 -142q0 -162 126 -162z" />
    <glyph glyph-name="cyrbreve" unicode="&#xf6d4;" horiz-adv-x="335" 
d="M168 563q45 0 67 11v90q24 7 42 7q53 0 53 -45t-49.5 -70.5t-112.5 -25.5q-71 0 -118 21.5t-47 67.5q0 23 14 37.5t41 14.5q17 0 40 -7v-90q22 -11 70 -11z" />
    <glyph glyph-name="uniF6D6" unicode="&#xf6d6;" horiz-adv-x="463" 
d="M433 0h-377v36l122 4q20 2 20 23v543q-67 -29 -139 -44l-9 24q27 13 80 49q40 28 68 68h93v-640q0 -22 22 -23l120 -4v-36z" />
    <glyph glyph-name="zerooldstyle" unicode="&#xf730;" horiz-adv-x="544" 
d="M271 476q106 0 175.5 -67t69.5 -177q0 -111 -69 -178.5t-176 -67.5q-108 0 -176 65t-68 178q0 111 70.5 179t173.5 68zM274 21q69 0 105.5 61t36.5 154q0 89 -37 147t-107 58t-107.5 -60t-37.5 -152q0 -91 38.5 -149.5t108.5 -58.5z" />
    <glyph glyph-name="oneoldstyle" unicode="&#xf731;" horiz-adv-x="396" 
d="M253 477v-424q0 -12 12 -12l102 -5v-36h-329v36l111 5q12 0 12 12v308q0 1 -3 1q-60 -15 -122 -25l-9 26q37 14 95 47q65 37 101 67h30z" />
    <glyph glyph-name="twooldstyle" unicode="&#xf732;" horiz-adv-x="443" 
d="M222 477q78 0 126 -33.5t48 -100.5q0 -73 -57.5 -137.5t-202.5 -146.5l1 -4l214 29q15 1 15 17l5 77h35v-178h-369v23q18 11 30.5 19.5l48.5 34t62.5 52t56 60t45.5 72t16 75.5q0 56 -25 81.5t-62 25.5q-34 0 -62 -13v-83q-20 -10 -47 -10q-22 0 -36 12t-14 36t10 45
q17 14 64 30.5t98 16.5z" />
    <glyph glyph-name="threeoldstyle" unicode="&#xf733;" horiz-adv-x="462" 
d="M198 477q185 0 185 -125q0 -61 -51.5 -104t-114.5 -50v-4q35 -1 65 -7t63.5 -21.5t53.5 -48.5t20 -80q0 -100 -69 -158.5t-166 -58.5q-91 0 -157 36q-9 27 -9 55q0 24 13.5 36t34.5 12q10 0 42 -9v-81q32 -14 72 -14q64 0 101.5 44t37.5 130q0 78 -45 112t-104 34
q-55 0 -77 -2v42q46 -2 78 -2q52 0 82 36t30 90t-23 79t-74 25q-36 0 -65 -13v-76q-18 -9 -45 -9q-22 0 -34 12t-12 33q0 22 11 48q69 39 157 39z" />
    <glyph glyph-name="fouroldstyle" unicode="&#xf734;" horiz-adv-x="549" 
d="M412 477v-422l54 4q13 2 14 15l6 70h34v-144h-108v-180h-92v180h-292v21l348 456h36zM89 37l1 -3l230 14v297z" />
    <glyph glyph-name="fiveoldstyle" unicode="&#xf735;" horiz-adv-x="471" 
d="M390 386h-287v-138q1 0 10.5 0.5t23 1t23.5 0.5q122 0 193.5 -48t71.5 -153q0 -56 -21.5 -101.5t-56.5 -72t-75.5 -40.5t-81.5 -14q-90 0 -155 35q-8 19 -8 48q0 21 15 36.5t40 15.5q20 0 47 -10v-80q27 -10 59 -10q64 0 100 48.5t36 142.5q0 88 -54 129t-130 41
q-47 0 -75 -7v247l278 17q8 0 8 11l3 69h36v-168z" />
    <glyph glyph-name="sixoldstyle" unicode="&#xf736;" horiz-adv-x="539" 
d="M501 210q0 -105 -67 -164.5t-157 -59.5q-102 0 -169 75.5t-67 220.5q0 167 93.5 275.5t234.5 108.5q62 0 106 -14l-11 -34q-36 12 -83 12q-97 0 -163 -85.5t-72 -207.5q76 72 154 72q86 0 143.5 -47.5t57.5 -151.5zM282 367q-71 0 -136 -75q0 -60 4 -92q22 -179 127 -179
q53 0 88.5 47.5t35.5 129.5q0 83 -31.5 126t-87.5 43z" />
    <glyph glyph-name="sevenoldstyle" unicode="&#xf737;" horiz-adv-x="455" 
d="M81 467h366v-23q-261 -316 -261 -558q0 -46 2 -64h-116q0 93 28 167q30 81 79 162t78 119t79 97l31 34q-2 0 -30 -1t-61 -2.5t-70 -3.5t-67 -6.5t-42 -9.5q-11 -8 -19 -48l-7 -54h-36q0 39 0.5 118.5t0.5 119.5h35q3 -22 10 -47z" />
    <glyph glyph-name="eightoldstyle" unicode="&#xf738;" horiz-adv-x="504" 
d="M259 667q71 0 117 -33.5t46 -97.5q0 -53 -35 -92.5t-74 -59.5q155 -73 155 -201q0 -83 -69.5 -133.5t-166.5 -50.5q-92 0 -145 48.5t-53 123.5q0 117 136 181q-57 34 -85 69t-28 91q0 53 33 90t77 51t92 14zM368 176q0 93 -163 157q-49 -20 -89.5 -62t-40.5 -104
q0 -63 44 -98.5t104 -35.5q63 0 104 39.5t41 103.5zM156 527q0 -45 31.5 -73t92.5 -53q40 19 72 56.5t32 80.5q0 45 -30 70t-84 25q-47 0 -80.5 -28t-33.5 -78z" />
    <glyph glyph-name="nineoldstyle" unicode="&#xf739;" horiz-adv-x="551" 
d="M266 477q47 0 87 -13.5t76 -45t56.5 -92t20.5 -146.5q0 -91 -27.5 -163t-71 -113t-91 -62t-94.5 -21q-33 0 -62 7.5t-47 19t-28 19.5t-15 15l22 31q55 -48 127 -48q63 0 121 69t67 207l-4 3l-5.5 -8.5t-17.5 -19t-30 -24t-43.5 -19t-58.5 -8.5q-87 0 -150.5 47.5
t-63.5 142.5q0 101 66.5 161.5t165.5 60.5zM259 99q61 0 100.5 43.5t39.5 116.5q0 81 -32 132.5t-100 51.5q-46 0 -77 -28.5t-43.5 -69t-12.5 -89.5q0 -68 33 -112.5t92 -44.5z" />
    <glyph glyph-name="Acute" horiz-adv-x="193" 
d="M193 783q0 -13 -17.5 -21t-67.5 -22l-79 -23l-29 21l70 49q59 42 80 42q14 0 28.5 -15t14.5 -31z" />
    <glyph glyph-name="Cyrbreve" horiz-adv-x="310" 
d="M156 783q45 0 67 11v96q24 7 42 7q28 0 43 -12.5t15 -34.5q0 -51 -50.5 -75.5t-116.5 -24.5q-67 0 -117.5 24.5t-50.5 75.5q0 22 15 34.5t43 12.5q18 0 43 -7v-96q22 -11 67 -11z" />
    <glyph glyph-name="_0028" horiz-adv-x="0" 
 />
    <glyph glyph-name="commaaccent" horiz-adv-x="280" 
d="M142 -66q23 0 36.5 -14.5t13.5 -40.5q0 -48 -50 -129l-25 13q32 51 32 67q0 13 -16 13q-42 2 -42 39q0 24 13.5 38t37.5 14z" />
    <glyph glyph-name="Grave" horiz-adv-x="193" 
d="M0 783q0 16 14.5 31t28.5 15q21 0 80 -42l70 -49l-29 -21l-79 23q-50 14 -67.5 22t-17.5 21z" />
    <glyph glyph-name="Caron" horiz-adv-x="257" 
d="M0 843l25 27l108 -52l102 49l22 -26q-65 -48 -106 -91h-45q-46 48 -106 93z" />
    <glyph glyph-name="Circumflex" horiz-adv-x="257" 
d="M257 777l-25 -27l-107 52l-103 -49l-22 26q69 53 106 91h45q46 -48 106 -93z" />
    </font>
</defs>
</svg>
