<?xml version="1.0" encoding="utf-8"?>
<!-- Generator: Adobe Illustrator 15.0.0, SVG Export Plug-In  -->
<!DOCTYPE svg PUBLIC "-//W3C//DTD SVG 1.1//EN" "http://www.w3.org/Graphics/SVG/1.1/DTD/svg11.dtd" [
	<!ENTITY ns_flows "http://ns.adobe.com/Flows/1.0/">
]>
<svg version="1.1"
	 xmlns="http://www.w3.org/2000/svg" xmlns:xlink="http://www.w3.org/1999/xlink" xmlns:a="http://ns.adobe.com/AdobeSVGViewerExtensions/3.0/"
	 x="0px" y="0px" width="32px" height="32px" viewBox="0 0 32 32" enable-background="new 0 0 32 32" xml:space="preserve">
<defs>
</defs>
<path fill-rule="evenodd" clip-rule="evenodd" d="M31,6c0-2.76-2.24-5-5-5H6C3.24,1,1,3.24,1,6v20c0,2.76,2.24,5,5,5h9.98v-9.99
	L13,21v-5l2.99,0.01L16,12c0-1.56,1.12-4,4-4h0.38c4.65,0,4.57,0.01,4.57,0.01v5h-3.04c0,0-0.96,0.01-0.96,1v2L24,16v5h-3v10h5
	c2.76,0,5-2.24,5-5V6z M23,20v-3l-2.05,0.01h-0.97v-1v-2c0-1.28,0.99-1.99,1.91-2h2.1V9H20c-1.59,0-3,1.38-3,3v5h-3v3h3l-0.06,11H20
	V20H23z M26,32H6c-3.31,0-6-2.69-6-6V6c0-3.31,2.69-6,6-6h20c3.31,0,6,2.69,6,6v20C32,29.31,29.31,32,26,32z"/>
</svg>
