<?xml version="1.0" encoding="utf-8"?>
<!-- Generator: Adobe Illustrator 15.0.0, SVG Export Plug-In  -->
<!DOCTYPE svg PUBLIC "-//W3C//DTD SVG 1.1//EN" "http://www.w3.org/Graphics/SVG/1.1/DTD/svg11.dtd" [
	<!ENTITY ns_flows "http://ns.adobe.com/Flows/1.0/">
]>
<svg version="1.1"
	 xmlns="http://www.w3.org/2000/svg" xmlns:xlink="http://www.w3.org/1999/xlink" xmlns:a="http://ns.adobe.com/AdobeSVGViewerExtensions/3.0/"
	 x="0px" y="0px" width="32px" height="30px" viewBox="0 0 32 30" enable-background="new 0 0 32 30" xml:space="preserve">
<defs>
</defs>
<path d="M28,1.03h-1h-2h-1v1V5h-3h-1v1v2.03v1h1h3V12v1h1h2h1v-1V9.03h3h1v-1V6V5h-1h-3V2.03V1.03z M9.75,26.03
	c-2.65,0-4.58-1.37-4.58-3.26c0-1.78,2.41-3.39,5.06-3.39h0.07c0.58,0,1.14,0.09,1.67,0.24l0.53,0.37c1.42,0.96,2.11,1.47,2.32,2.28
	c0.04,0.2,0.07,0.41,0.07,0.62C14.89,24.35,14.31,26.03,9.75,26.03z M10.69,11.84h-0.06c-1.67-0.05-3.35-2.08-3.65-4.42
	C6.8,6.12,7.07,4.96,7.7,4.24C8.09,3.8,8.58,3.57,9.15,3.57h0.06c1.54,0.05,3.42,1.8,3.75,4.34c0.17,1.27-0.12,2.48-0.77,3.22
	C11.9,11.45,11.41,11.84,10.69,11.84z M21.06,0H18.74H10.3C5.93,0,1.95,3.52,1.95,7.38c0,3.92,2.9,6.93,6.84,7.2
	C8.75,14.79,8.73,15,8.73,15.22c0,0.47,0.09,0.93,0.27,1.38c-4.92,0.17-9,3.34-9,7.07C0,27.22,4.29,30,9.77,30
	C14.3,30,19,27.21,19,22.55c0-2.89-0.9-4.6-3.31-6.3c-0.85-0.6-1.7-1.52-1.8-1.85c0-0.44,0.03-0.65,1.23-1.59
	c1.899-1.48,2.87-3.19,2.87-5.06c0-1.42-0.41-2.7-1.181-3.75h0.04h0.431l0.29-0.31l1.89-2L21.06,0z M27,2.03V6h4v2.03h-4V12h-2V8.03
	h-4V6h4V2.03H27z M9.75,27.03c4.55,0,6.14-1.67,6.14-4.14c0-0.29-0.04-0.58-0.1-0.87c-0.36-1.39-1.62-2.08-3.38-3.3
	c-0.64-0.21-1.34-0.33-2.1-0.34h-0.08c-3.21,0-6.06,1.99-6.06,4.39C4.17,25.23,6.51,27.03,9.75,27.03z M10.69,12.84
	c2.13,0,3.63-2.24,3.26-5.06c-0.37-2.85-2.53-5.14-4.71-5.21H9.15c-2.13,0-3.54,2.16-3.17,4.98c0.38,2.85,2.45,5.22,4.62,5.29H10.69
	z M18.74,1L16.85,3h-2.68c1.78,1,2.82,2.62,2.82,4.75c0,1.78-1.09,3.18-2.48,4.28c-1.36,1.06-1.62,1.5-1.62,2.41
	c0,0.77,1.46,2.08,2.22,2.62C17.34,18.64,18,20.1,18,22.55C18,25.6,15.11,29,9.77,29C5.08,29,1,26.72,1,23.67
	c0-3.1,3.73-6.08,8.42-6.08c0.51,0,0.98-0.02,1.46-0.02c-0.64-0.63-1.15-1.4-1.15-2.35c0-0.55,0.18-1.12,0.43-1.6l-0.14,0.01
	c-0.21,0-0.42-0.03-0.64-0.03c-3.85,0-6.43-2.83-6.43-6.22C2.95,4.06,6.51,1,10.3,1H18.74z"/>
</svg>
