<?xml version="1.0" encoding="utf-8"?>
<!-- Generator: Adobe Illustrator 15.0.0, SVG Export Plug-In  -->
<!DOCTYPE svg PUBLIC "-//W3C//DTD SVG 1.1//EN" "http://www.w3.org/Graphics/SVG/1.1/DTD/svg11.dtd" [
	<!ENTITY ns_flows "http://ns.adobe.com/Flows/1.0/">
]>
<svg version="1.1"
	 xmlns="http://www.w3.org/2000/svg" xmlns:xlink="http://www.w3.org/1999/xlink" xmlns:a="http://ns.adobe.com/AdobeSVGViewerExtensions/3.0/"
	 x="0px" y="0px" width="29px" height="25px" viewBox="-0.099 0 29 25" enable-background="new -0.099 0 29 25"
	 xml:space="preserve">
<defs>
</defs>
<path d="M19.571,0c-3.58,0-6.5,3.05-6.5,6.81v0.21c-3.67-0.52-7.06-2.51-9.43-5.57c-0.18-0.25-0.47-0.39-0.78-0.39l-0.08,0.01
	c-0.33,0.02-0.63,0.21-0.79,0.51c-0.57,1.03-0.87,2.21-0.87,3.4c0,1.11,0.26,2.18,0.73,3.13c-0.09,0.02-0.18,0.06-0.27,0.11
	c-0.3,0.17-0.5,0.49-0.5,0.85v0.09c0,2,0.84,3.84,2.2,5.11l-0.02,0.01c-0.23,0.26-0.31,0.63-0.21,0.97
	c0.58,1.91,1.92,3.42,3.61,4.18c-1.34,0.69-2.82,1.04-4.35,1.04c-0.4,0-0.8-0.02-1.2-0.07l-0.12-0.01c-0.41,0-0.78,0.26-0.93,0.65
	c-0.16,0.44,0,0.92,0.38,1.18c2.69,1.82,5.8,2.78,8.99,2.78c6.28,0,10.2-3.12,12.39-5.74c2.71-3.24,4.27-7.54,4.27-11.78V7.2
	c1-0.83,1.86-1.82,2.57-2.94c0.24-0.37,0.2-0.86-0.09-1.2c-0.19-0.22-0.47-0.34-0.75-0.34c-0.06,0-0.12,0.01-0.19,0.02
	c0.16-0.33,0.3-0.67,0.4-1.02c0.12-0.4-0.01-0.83-0.34-1.09c-0.18-0.14-0.39-0.21-0.61-0.21c-0.18,0-0.36,0.05-0.52,0.16
	c-0.83,0.52-1.72,0.9-2.66,1.15C22.721,0.62,21.171,0,19.571,0z M19.571,1c1.58,0,3.01,0.71,4.02,1.83
	c1.25-0.26,2.43-0.74,3.49-1.41c-0.41,1.36-1.28,2.5-2.42,3.22c1.12-0.14,2.18-0.46,3.16-0.92c-0.73,1.17-1.67,2.19-2.74,3.01
	c0.01,0.25,0.01,0.5,0.01,0.75c0,7.67-5.53,16.52-15.66,16.52c-3.11,0-6-0.96-8.44-2.61c0.43,0.05,0.87,0.08,1.32,0.08
	c2.57,0,4.95-0.93,6.83-2.48c-2.41-0.05-4.44-1.73-5.14-4.04c0.34,0.07,0.68,0.11,1.04,0.11c0.5,0,0.98-0.07,1.45-0.21
	c-2.52-0.53-4.42-2.88-4.42-5.69V9.09c0.74,0.43,1.59,0.69,2.49,0.72C3.091,8.77,2.111,7,2.111,4.98c0-1.06,0.28-2.06,0.75-2.92
	c2.72,3.52,6.77,5.83,11.35,6.07c-0.1-0.43-0.15-0.87-0.15-1.32C14.062,3.6,16.531,1,19.571,1z"/>
</svg>
