<?xml version="1.0" standalone="no"?>
<!DOCTYPE svg PUBLIC "-//W3C//DTD SVG 1.1//EN" "http://www.w3.org/Graphics/SVG/1.1/DTD/svg11.dtd" >
<svg xmlns="http://www.w3.org/2000/svg">
<metadata>Generated by IcoMoon</metadata>
<defs>
<font id="roobykon_iconfont" horiz-adv-x="1024">
<font-face units-per-em="1024" ascent="960" descent="-64" />
<missing-glyph horiz-adv-x="1024" />
<glyph unicode="&#x20;" horiz-adv-x="512" d="" />
<glyph unicode="&#xe002;" glyph-name="arrow_right_circle" d="M736.225 448q0-8.175-5.256-13.431l-186.855-186.855q-5.256-5.256-13.431-5.256-7.591 0-13.138 5.548t-5.547 13.138v112.111h-205.539q-7.591 0-13.138 5.548t-5.548 13.138v112.111q0 7.591 5.548 13.138t13.138 5.548h205.539v112.111q0 8.175 5.256 13.431t13.431 5.256q7.007 0 14.014-5.839l186.271-186.271q5.256-5.256 5.256-13.431zM829.651 448q0 86.419-42.625 159.41t-115.616 115.616-159.41 42.625-159.41-42.625-115.616-115.616-42.625-159.41 42.625-159.41 115.616-115.616 159.41-42.625 159.41 42.625 115.616 115.616 42.625 159.41zM960.449 448q0-122.039-60.144-225.1t-163.205-163.205-225.1-60.144-225.1 60.144-163.205 163.205-60.144 225.1 60.144 225.1 163.205 163.205 225.1 60.144 225.1-60.144 163.205-163.205 60.144-225.1z" />
<glyph unicode="&#xe003;" glyph-name="basket" horiz-adv-x="1023" d="M874.412 519.274h-730.94c-43.881 0-79.462 35.576-79.462 79.455s35.576 79.45 79.462 79.45h89.658c1.408 5.099 3.475 10.109 6.241 14.906l95.338 165.144c17.549 30.399 56.421 40.816 86.816 23.268 30.4-17.572 40.818-56.429 23.265-86.837l-67.251-116.481h262.774l-67.26 116.481c-17.549 30.411-7.137 69.27 23.265 86.837 30.399 17.551 69.271 7.126 86.826-23.268l95.337-165.144c2.771-4.796 4.842-9.805 6.25-14.906h89.661c43.881 0 79.453-35.556 79.453-79.45 0-43.88-35.566-79.455-79.453-79.455zM860.961 10.796h-704.054l-27.514 476.711h759.072l-27.506-476.711zM350.027 328.603c0 17.551-14.238 31.777-31.784 31.777s-31.777-14.226-31.777-31.777v-190.681c0-17.551 14.226-31.784 31.777-31.784s31.784 14.238 31.784 31.784v190.681zM540.709 328.603c0 17.551-14.226 31.777-31.777 31.777s-31.787-14.226-31.787-31.777v-190.681c0-17.551 14.239-31.784 31.787-31.784s31.777 14.238 31.777 31.784v190.681zM731.396 328.603c0 17.551-14.226 31.777-31.777 31.777-17.559 0-31.784-14.226-31.784-31.777v-190.681c0-17.551 14.226-31.784 31.784-31.784 17.549 0 31.777 14.238 31.777 31.784v190.681z" />
<glyph unicode="&#xe004;" glyph-name="cap" d="M753.313 471.278l6.982-122.596q1.552-26.769-31.813-49.659t-91.172-36.275-125.311-13.385-125.311 13.385-91.172 36.275-31.812 49.659l6.982 122.596 222.69-70.222q8.535-2.716 18.623-2.716t18.623 2.716zM958.932 596.978q0-8.923-8.534-12.027l-434.518-136.563q-1.552-0.388-3.879-0.388t-3.879 0.388l-252.951 79.921q-16.682-13.192-27.545-43.258t-13.192-69.25q24.442-13.967 24.442-42.288 0-26.769-22.502-41.512l22.502-167.988q0.776-5.432-3.103-9.698-3.492-4.268-9.311-4.268h-74.488q-5.819 0-9.311 4.268-3.879 4.268-3.103 9.698l22.502 167.988q-22.502 14.743-22.502 41.512 0 28.322 25.219 43.065 4.268 80.307 38.020 128.027l-129.191 40.348q-8.534 3.103-8.534 12.027t8.534 12.027l434.518 136.563q1.552 0.388 3.879 0.388t3.879-0.388l434.518-136.563q8.535-3.103 8.535-12.027z" />
<glyph unicode="&#xe006;" glyph-name="clock" d="M586.691 653.399v-261.416q0-8.169-5.252-13.421t-13.421-5.252h-186.726q-8.169 0-13.421 5.252t-5.252 13.421v37.345q0 8.169 5.252 13.421t13.421 5.252h130.708v205.399q0 8.169 5.252 13.421t13.421 5.252h37.345q8.169 0 13.421-5.252t5.252-13.421zM829.435 448q0 86.36-42.597 159.301t-115.538 115.538-159.301 42.597-159.301-42.597-115.538-115.538-42.597-159.301 42.597-159.301 115.538-115.538 159.301-42.597 159.301 42.597 115.538 115.538 42.597 159.301zM960.143 448q0-121.957-60.103-224.947t-163.093-163.093-224.947-60.103-224.947 60.103-163.093 163.093-60.103 224.947 60.103 224.947 163.093 163.093 224.947 60.103 224.947-60.103 163.093-163.093 60.103-224.947z" />
<glyph unicode="&#xe007;" glyph-name="cogs" d="M482.191 448q0 49.372-34.933 84.306t-84.307 34.933-84.306-34.933-34.933-84.306 34.933-84.307 84.306-34.933 84.307 34.933 34.933 84.307zM839.91 209.522q0 24.221-17.699 41.921t-41.921 17.699-41.921-17.699-17.699-41.921q0-24.686 17.468-42.153t42.153-17.468 42.153 17.468 17.468 42.153zM839.91 686.478q0 24.221-17.699 41.921t-41.921 17.699-41.921-17.699-17.699-41.921q0-24.686 17.468-42.153t42.153-17.468 42.153 17.468 17.468 42.153zM661.049 490.386v-86.169q0-4.658-3.26-9.083t-7.453-4.889l-72.195-11.179q-5.124-16.302-14.905-35.4 15.837-22.358 41.921-53.565 3.26-4.658 3.26-9.316 0-5.588-3.26-8.85-10.713-13.973-38.427-41.688t-36.563-27.714q-5.124 0-9.782 3.26l-53.565 41.921q-17.235-8.85-35.866-14.439-5.124-50.304-10.713-72.195-3.26-11.179-13.973-11.179h-86.635q-5.124 0-9.316 3.494t-4.658 8.152l-10.713 71.265q-15.837 4.658-34.933 14.439l-54.961-41.454q-3.26-3.26-9.316-3.26-5.124 0-9.782 3.725-67.073 61.949-67.073 74.527 0 4.193 3.26 8.85 4.658 6.521 19.098 24.686t21.891 28.412q-10.713 20.495-16.302 38.193l-70.799 11.179q-4.657 0.466-7.918 4.426t-3.26 9.083v86.169q0 4.658 3.26 9.083t7.453 4.889l72.195 11.179q5.124 16.302 14.905 35.4-15.837 22.358-41.921 53.565-3.26 5.124-3.26 9.316 0 5.588 3.26 9.316 10.246 13.974 38.193 41.454t36.797 27.481q5.124 0 9.782-3.26l53.565-41.921q15.837 8.384 35.866 14.905 5.124 50.304 10.713 71.73 3.26 11.179 13.973 11.179h86.635q5.124 0 9.316-3.494t4.657-8.152l10.713-71.265q15.837-4.657 34.933-14.439l54.961 41.454q3.725 3.26 9.316 3.26 5.124 0 9.782-3.725 67.073-61.949 67.073-74.527 0-4.193-3.26-8.85-5.588-7.453-19.563-25.151t-20.96-27.947q10.713-22.358 15.837-38.193l70.799-10.713q4.658-0.931 7.918-4.889t3.26-9.083zM959.149 242.126v-65.209q0-7.453-69.402-14.439-5.588-12.576-13.973-24.221 23.755-52.633 23.755-64.277 0-1.863-1.863-3.26-56.825-33.069-57.756-33.069-3.725 0-21.426 21.891t-24.221 31.673q-9.316-0.931-13.973-0.931t-13.973 0.931q-6.521-9.782-24.221-31.673t-21.426-21.891q-0.932 0-57.756 33.069-1.863 1.398-1.863 3.26 0 11.645 23.755 64.277-8.384 11.645-13.973 24.221-69.402 6.986-69.402 14.439v65.209q0 7.453 69.402 14.439 6.056 13.507 13.973 24.221-23.755 52.633-23.755 64.277 0 1.863 1.863 3.26 1.863 0.931 16.302 9.316t27.481 15.837 13.973 7.453q3.725 0 21.426-21.657t24.221-31.439q9.316 0.931 13.973 0.931t13.973-0.931q23.755 33.069 42.851 52.167l2.795 0.931q1.863 0 57.756-32.604 1.863-1.398 1.863-3.26 0-11.645-23.755-64.276 7.918-10.713 13.973-24.221 69.402-6.986 69.402-14.439zM959.149 719.083v-65.209q0-7.453-69.402-14.439-5.588-12.576-13.973-24.221 23.755-52.633 23.755-64.277 0-1.863-1.863-3.26-56.825-33.069-57.756-33.069-3.725 0-21.426 21.891t-24.221 31.673q-9.316-0.931-13.973-0.931t-13.973 0.931q-6.521-9.782-24.221-31.673t-21.426-21.891q-0.932 0-57.756 33.069-1.863 1.398-1.863 3.26 0 11.645 23.755 64.277-8.384 11.645-13.973 24.221-69.402 6.986-69.402 14.439v65.209q0 7.453 69.402 14.439 6.056 13.507 13.973 24.221-23.755 52.633-23.755 64.277 0 1.863 1.863 3.26 1.863 0.932 16.302 9.316t27.481 15.837 13.973 7.453q3.725 0 21.426-21.657t24.221-31.439q9.316 0.932 13.973 0.932t13.973-0.932q23.755 33.069 42.851 52.167l2.795 0.932q1.863 0 57.756-32.604 1.863-1.398 1.863-3.26 0-11.645-23.755-64.277 7.918-10.713 13.973-24.221 69.402-6.986 69.402-14.439z" />
<glyph unicode="&#xe008;" glyph-name="face" horiz-adv-x="1023" d="M509.612 897.41c-247.318 0-447.799-200.476-447.799-447.799s200.476-447.799 447.799-447.799 447.799 200.476 447.799 447.799-200.476 447.799-447.799 447.799zM509.612 71.787c-208.678 0-377.829 169.155-377.829 377.829s169.155 377.829 377.829 377.829 377.829-169.155 377.829-377.829-169.155-377.829-377.829-377.829zM615.877 518.165h-77.888v56.851c0 17.439 18.039 21.484 26.458 21.484 8.357 0 50.321 0 50.321 0v76.718l-57.668 0.298c-78.686 0-96.641-57.205-96.641-93.883v-61.473h-57.095v-79.038h57.095c0-101.481 0-213.403 0-213.403h77.537c0 0 0 113.072 0 213.403h65.871l12.028 79.039z" />
<glyph unicode="&#xe009;" glyph-name="google" horiz-adv-x="1023" d="M510.7 897.269c-247.318 0-447.799-200.476-447.799-447.799s200.476-447.799 447.799-447.799 447.799 200.476 447.799 447.799-200.476 447.799-447.799 447.799zM510.7 71.647c-208.678 0-377.829 169.155-377.829 377.829s169.155 377.829 377.829 377.829 377.829-169.155 377.829-377.829-169.155-377.829-377.829-377.829zM549.293 659.481c15.254 8.553 21.918 14.105 21.918 14.105h-145.677c-29.189 0-110.252-33.15-110.252-110.554 0-77.416 84.070-94.032 114.574-92.776-17.106-20.882-2.458-39.959 6.725-49.719 9.125-9.841 7.27-12.902-3.665-12.902-10.986 0-146.278-1.472-146.278-98.336s179.786-103.859 238.872-51.652 46.298 124.193 0.601 156.717c-45.698 32.553-62.754 47.912-33.509 73.714s52.424 46.681 52.424 94.609c0 47.942-39.627 72.454-39.627 72.454s28.642-4.267 43.896 4.348zM526.719 314.21c0-41.792-35.475-62.040-95.716-62.040-60.295 0-92.601 30.088-92.601 74.944 0 44.881 43.896 66.989 126.164 66.989 22.304-17.187 62.155-38.071 62.155-79.894zM439.59 489.322c-72.537 0-105.44 169.491-20.112 169.491 66.411 2.49 116.38-169.491 20.112-169.491zM679.931 617.331v55.127h-28.48v-55.127h-55.756v-28.613h55.756v-55.225h28.48v55.225h54.832v28.613h-54.832z" />
<glyph unicode="&#xe00a;" glyph-name="in" horiz-adv-x="1023" d="M509.611 897.269c-247.318 0-447.799-200.476-447.799-447.799s200.476-447.799 447.799-447.799 447.799 200.476 447.799 447.799-200.476 447.799-447.799 447.799zM509.611 71.647c-208.678 0-377.829 169.155-377.829 377.829s169.155 377.829 377.829 377.829 377.829-169.155 377.829-377.829-169.155-377.829-377.829-377.829zM285.878 225.767h83.966v335.847h-83.966v-335.847zM621.724 561.614c-71.884-1.205-107.243-53.596-111.947-55.97v55.97h-83.966v-335.847h83.966v195.91c0 7.189 17.708 64.725 83.966 55.97 35.588-2.327 54.771-49.388 55.97-55.97v-195.91l83.631-0.38v232.505c-2.955 33.567-19.73 102.523-111.619 103.723zM327.858 673.563c-23.174 0-41.978-18.775-41.978-41.978s18.805-41.978 41.978-41.978 41.978 18.775 41.978 41.978-18.805 41.978-41.978 41.978z" />
<glyph unicode="&#xe00b;" glyph-name="laptop" horiz-adv-x="1023" d="M863.937 76.177h-713.579c-32.848 0-89.209 26.622-89.209 59.462 0 32.847 26.628 59.476 59.466 59.476h773.051c32.848 0 59.466-26.629 59.466-59.476 0-32.831-56.346-59.462-89.2-59.462zM596.356 135.636h-178.394c-16.417 0-29.732-6.65-29.732-14.861 0-8.204 13.307-14.861 29.732-14.861h178.394c16.412 0 29.732 6.659 29.732 14.861 0 8.211-13.323 14.861-29.732 14.861zM391.234 512.717l54.868-55.12 176.86 177.635c11.556 11.63 30.299 11.63 41.868 0l41.868-42.034c11.556-11.618 11.556-30.433 0-42.049l-230.253-231.285c-9.894-9.939-25.052-11.334-36.469-4.253-9.665-2.311-20.26 0.285-27.803 7.868l-104.659 105.12c-11.556 11.602-11.556 30.427 0 42.050l41.863 42.052c11.563 11.602 30.299 11.602 41.868 0zM804.477 730.297h-594.662v-475.732h-89.2v59.466h5.098c-3.288 9.303-5.098 19.303-5.098 29.732v386.534c0 49.255 39.955 89.193 89.2 89.193h594.662c49.259 0 89.197-39.931 89.197-89.193v-386.534c0-10.43-1.806-20.432-5.094-29.732h5.094v-59.466h-89.197v475.732z" />
<glyph unicode="&#xe00c;" glyph-name="like" horiz-adv-x="960" d="M205.715 176q0 13.929-10.178 24.107t-24.107 10.178-24.107-10.178-10.178-24.107 10.178-24.107 24.107-10.178 24.107 10.178 10.178 24.107zM822.857 484.572q0 27.322-20.893 47.947t-47.678 20.625h-188.572q0 31.072 25.715 85.447t25.715 85.982q0 52.5-17.143 77.678t-68.572 25.178q-13.929-13.929-20.357-45.535t-16.34-67.232-31.875-58.66q-11.785-12.322-41.25-48.75-2.143-2.678-12.322-16.071t-16.875-21.965-18.482-22.768-21.428-23.572-20.625-19.018-21.428-14.465-19.018-4.822h-17.143v-342.857h17.143q6.965 0 16.875-1.607t17.678-3.482 20.357-5.893 18.75-6.16 19.018-6.697 15.535-5.625q113.035-39.107 183.215-39.107h64.822q102.857 0 102.857 89.465 0 13.929-2.678 30 16.071 8.572 25.447 28.125t9.375 39.375-9.643 36.965q28.393 26.785 28.393 63.75 0 13.393-5.357 29.732t-13.393 25.447q17.143 0.535 28.66 25.178t11.518 43.393zM891.428 485.107q0-47.678-26.25-87.322 4.822-17.678 4.822-36.965 0-41.25-20.357-77.143 1.607-11.25 1.607-23.035 0-54.107-32.143-95.357 0.535-74.465-45.535-117.59t-121.607-43.125h-69.107q-51.428 0-101.518 12.053t-115.982 35.090q-62.143 21.428-73.929 21.428h-154.285q-28.393 0-48.482 20.090t-20.090 48.482v342.857q0 28.393 20.090 48.482t48.482 20.090h146.785q19.285 12.857 73.393 83.035 31.072 40.178 57.322 68.572 12.857 13.393 19.018 45.803t16.34 67.769 33.215 57.857q20.893 19.822 48.215 19.822 45.001 0 80.893-17.41t54.643-54.375 18.75-99.643q0-49.822-25.715-102.857h94.285q55.715 0 96.428-40.715t40.715-95.893z" />
<glyph unicode="&#xe00d;" glyph-name="lock" horiz-adv-x="1023" d="M759.812 1.236h-500.409c-46.052 0-83.402 37.345-83.402 83.402v305.801c0 46.059 37.353 83.402 83.402 83.402h27.801v222.412c0 107.479 99.578 194.611 222.412 194.611 122.825 0 222.396-87.124 222.396-194.611v-222.412h27.801c46.060 0 83.402-37.332 83.402-83.402v-305.801c0-46.057-37.332-83.402-83.402-83.402zM620.819 696.248c0 46.059-49.794 83.406-111.203 83.406-61.413 0-111.211-37.345-111.211-83.406v-194.593c0-9.76 2.256-19.114 6.358-27.812h209.697c4.103 8.702 6.358 18.057 6.358 27.812v194.593zM509.617 390.44c-61.413 0-111.211-49.789-111.211-111.2 0-41.155 22.378-77.057 55.611-96.29v-42.704c0-30.722 24.89-55.611 55.604-55.611s55.604 24.89 55.604 55.611v42.705c33.226 19.229 55.604 55.131 55.604 96.288 0 61.411-49.794 111.2-111.203 111.2z" />
<glyph unicode="&#xe00e;" glyph-name="mail_1" d="M897.714 142.642v385.714q-16.072-18.080-34.655-33.147-134.599-103.46-213.952-169.755-25.614-21.595-41.686-33.65t-43.444-24.358-51.478-12.305h-1.005q-24.108 0-51.478 12.305t-43.444 24.358-41.686 33.65q-79.353 66.295-213.952 169.755-18.583 15.067-34.655 33.147v-385.714q0-6.53 4.772-11.3t11.3-4.772h739.286q6.53 0 11.3 4.772t4.772 11.3zM897.714 670.489v12.305l-0.251 6.53-1.507 6.278-2.763 4.521-4.521 3.767-7.031 1.256h-739.286q-6.53 0-11.3-4.772t-4.772-11.3q0-84.375 73.828-142.634 96.931-76.339 201.396-159.208 3.014-2.511 17.578-14.815t23.103-18.834 22.35-15.82 25.362-13.811 21.595-4.521h1.005q10.045 0 21.595 4.521t25.362 13.811 22.35 15.82 23.103 18.834 17.578 14.815q104.464 82.868 201.396 159.208 27.12 21.595 50.475 58.008t23.353 66.044zM962 689.072v-546.428q0-33.147-23.604-56.752t-56.752-23.604h-739.286q-33.147 0-56.752 23.604t-23.604 56.752v546.428q0 33.147 23.604 56.752t56.752 23.604h739.286q33.147 0 56.752-23.604t23.604-56.752z" />
<glyph unicode="&#xe00f;" glyph-name="mail_2" d="M962 573.415v-398.772q0-33.147-23.604-56.752t-56.752-23.604h-739.286q-33.147 0-56.752 23.604t-23.604 56.752v398.772q22.099-24.609 50.725-43.694 181.808-123.548 249.609-173.271 28.627-21.094 46.456-32.897t47.461-24.108 55.245-12.305h1.005q25.614 0 55.245 12.305t47.461 24.108 46.456 32.897q85.38 61.775 250.111 173.271 28.627 19.587 50.224 43.694zM962 721.072q0-39.677-24.609-75.837t-61.272-61.775q-188.839-131.083-235.045-163.225-5.022-3.516-21.345-15.319t-27.12-19.085-26.116-16.322-28.878-13.561-25.111-4.521h-1.005q-11.552 0-25.111 4.521t-28.878 13.561-26.116 16.322-27.12 19.085-21.345 15.319q-45.703 32.142-131.585 91.658t-102.958 71.569q-31.139 21.094-58.761 58.008t-27.623 68.555q0 39.173 20.842 65.29t59.514 26.116h739.286q32.646 0 56.501-23.604t23.857-56.752z" />
<glyph unicode="&#xe010;" glyph-name="map_marker" d="M661.536 597.536q0 61.917-43.809 105.727t-105.727 43.809-105.727-43.809-43.809-105.727 43.809-105.727 105.727-43.809 105.727 43.809 43.809 105.727zM811.073 597.536q0-63.67-19.276-104.559l-212.623-452.115q-9.347-19.276-27.747-30.374t-39.428-11.098-39.428 11.098-27.161 30.374l-213.206 452.115q-19.276 40.889-19.276 104.559 0 123.835 87.618 211.453t211.453 87.618 211.453-87.618 87.619-211.453z" />
<glyph unicode="&#xe011;" glyph-name="phone" d="M567.481 92.927q0 22.885-16.298 39.183t-39.183 16.298-39.183-16.298-16.298-39.183 16.298-39.183 39.183-16.298 39.183 16.298 16.298 39.183zM711.728 203.886v488.226q0 9.015-6.589 15.603t-15.603 6.589h-355.073q-9.015 0-15.603-6.589t-6.589-15.603v-488.226q0-9.015 6.589-15.603t15.603-6.589h355.073q9.015 0 15.603 6.589t6.589 15.603zM578.576 791.978q0 11.097-11.097 11.097h-110.961q-11.097 0-11.097-11.097t11.097-11.097h110.961q11.097 0 11.097 11.097zM778.306 803.073v-710.147q0-36.062-26.353-62.416t-62.416-26.353h-355.073q-36.062 0-62.416 26.353t-26.353 62.416v710.147q0 36.062 26.353 62.416t62.416 26.353h355.073q36.062 0 62.416-26.353t26.353-62.416z" />
<glyph unicode="&#xe012;" glyph-name="plane" d="M318.328 387.303q-45.52-26.484-110.906-26.484h-52.97v26.484h-26.484q-5.38 0-9.311 9.725t-3.932 23.38q0 9.932 2.897 20.277-24.002 0.828-39.935 4.344t-15.932 8.484 15.932 8.484 39.935 4.344q-2.897 10.345-2.897 20.277 0 13.656 3.932 23.38t9.311 9.725h26.484v26.484h52.97q65.384 0 110.906-26.484h460.589q17.381-2.897 44.072-7.448t33.313-5.794q36.83-6.207 62.075-16.761t34.554-19.658 9.311-16.552-9.311-16.553-34.554-19.657-62.075-16.761q-6.622-1.242-33.313-5.794t-44.072-7.448h-460.589zM781.401 491.587q21.932-14.898 21.932-38.072t-21.932-38.072l33.519-12.414q28.14 19.864 28.14 50.487t-28.14 50.486zM320.398 380.682h420.035q-89.8-15.726-188.704-33.106-23.588 0-46.762-9.932t-34.348-19.864l-11.588-9.932-119.182-119.182q-10.76-10.76-29.175-18.622t-37.038-7.863h-39.728l-38.486 192.016h12.001q64.971 0 112.974 26.484zM207.425 552.833h-12.001l38.486 192.016h39.728q19.036 0 37.245-7.863t28.968-18.622l119.182-119.182q1.655-1.655 4.553-4.344t12.623-9.518 20.071-12.001 25.45-9.518 30.003-4.344l188.704-33.106h-420.035q-48.004 26.484-112.974 26.484z" />
<glyph unicode="&#xe013;" glyph-name="plane_paper" d="M947.938 892.475q16.573-12.053 13.561-32.142l-128.572-771.428q-2.511-14.564-16.072-22.6-7.031-4.017-15.569-4.017-5.525 0-12.053 2.511l-227.511 92.913-121.54-148.158q-9.040-11.552-24.609-11.552-6.53 0-11.048 2.009-9.542 3.516-15.319 11.803t-5.775 18.331v175.28l433.928 531.864-536.886-464.564-198.382 81.361q-18.583 7.031-20.089 27.623-1.005 20.089 16.072 29.632l835.714 482.142q7.533 4.521 16.072 4.521 10.045 0 18.080-5.525z" />
<glyph unicode="&#xe014;" glyph-name="repeat" d="M950.857 813.714v-256q0-14.857-10.857-25.714t-25.714-10.857h-256q-24 0-33.714 22.857-9.714 22.286 8 39.429l78.857 78.857q-84.571 78.286-199.429 78.286-59.429 0-113.429-23.143t-93.429-62.571-62.571-93.429-23.143-113.429 23.143-113.429 62.571-93.429 93.429-62.571 113.429-23.143q68 0 128.571 29.714t102.286 84q4 5.714 13.143 6.857 8 0 14.286-5.143l78.286-78.857q5.143-4.571 5.429-11.714t-4.286-12.857q-62.286-75.429-150.857-116.857t-186.857-41.429q-89.143 0-170.286 34.857t-140 93.714-93.714 140-34.857 170.286 34.857 170.286 93.714 140 140 93.714 170.286 34.857q84 0 162.571-31.714t139.714-89.429l74.286 73.714q16.571 17.714 40 8 22.286-9.714 22.286-33.714z" />
<glyph unicode="&#xe015;" glyph-name="twitter" horiz-adv-x="1023" d="M509.611 894.2c-247.318 0-447.799-200.476-447.799-447.799s200.476-447.799 447.799-447.799c247.318 0 447.799 200.475 447.799 447.799s-200.475 447.799-447.799 447.799zM509.611 68.577c-208.678 0-377.829 169.151-377.829 377.829s169.155 377.829 377.829 377.829c208.678 0 377.829-169.155 377.829-377.829s-169.151-377.829-377.829-377.829zM733.511 595.223c-7.541-4.481-30.169-13.414-51.273-15.663 13.533 7.854 33.566 33.591 38.512 54.032-13.004-8.936-42.883-21.971-57.635-21.971 0 0 0-0.039 0.029-0.068-16.841 18.955-40.513 30.763-66.806 30.763-50.998 0-92.375-44.54-92.375-99.487 0-7.625 0.841-15.028 2.374-22.167h-0.031c-69.206 1.913-150.102 39.26-195.689 103.205-27.993-52.217-3.771-110.28 28.010-131.439-10.851-0.901-30.911 1.339-40.338 11.203-0.652-34.628 14.84-80.549 71.255-97.193-10.883-6.318-30.073-4.513-38.451-3.116 2.955-29.299 40.998-67.559 82.565-67.559-14.818-18.422-65.377-51.965-127.939-41.274 42.502-27.878 92.051-44.001 144.499-44.001 149.042 0 264.789 130.069 258.559 290.528 0 0.191-0.051 0.38-0.051 0.555 0 0.438 0.051 0.873 0.051 1.255 0 0.491-0.051 0.986-0.051 1.502 13.558 9.947 31.756 27.603 44.799 50.888z" />
<glyph unicode="&#xe600;" glyph-name="check" d="M877.397 771.692l-480.341-480.341-250.449 250.505-83.522-83.522 333.972-334.028 563.863 563.863z" />
<glyph unicode="&#xe601;" glyph-name="arrow_right" d="M990.925 440.525l-307.2 307.2c-9.984 9.984-26.214 9.984-36.198 0s-9.984-26.214 0-36.198l263.475-263.475h-834.202c-14.131 0-25.6-11.469-25.6-25.6s11.469-25.6 25.6-25.6h834.202l-263.475-263.475c-9.984-9.984-9.984-26.214 0-36.198 5.018-5.018 11.571-7.475 18.125-7.475s13.107 2.509 18.125 7.475l307.2 307.2c9.984 9.984 9.984 26.214 0 36.198z" />
</font>
</defs>
</svg>
